G04 ================== begin FILE IDENTIFICATION RECORD ==================*
G04 Layout Name:  analogater_after_clg_arun.brd*
G04 Film Name:    FAB*
G04 File Format:  Gerber RS274X*
G04 File Origin:  Cadence Allegro -unreleased*
G04 Origin Date:  Tue Mar 25 13:31:54 2025*
G04 *
G04 Layer:  MANUFACTURING/NCDRILL_LEGEND*
G04 Layer:  MANUFACTURING/NCDRILL_FIGURE*
G04 Layer:  MANUFACTURING/XSECTION_CHART*
G04 Layer:  MANUFACTURING/NCLEGEND-1-2*
G04 Layer:  DRAWING FORMAT/OUTLINE*
G04 Layer:  BOARD GEOMETRY/OUTLINE*
G04 Layer:  BOARD GEOMETRY/DIMENSION*
G04 *
G04 Offset:    (0.00 0.00)*
G04 Mirror:    No*
G04 Mode:      Positive*
G04 Rotation:  0*
G04 FullContactRelief:  No*
G04 UndefLineWidth:     5.00*
G04 ================== end FILE IDENTIFICATION RECORD ====================*
%FSLAX25Y25*MOIN*%
%IR0*IPPOS*OFA0.00000B0.00000*MIA0B0*SFA1.00000B1.00000*%
%AMMACRO11*
1,1,.005,.02,0.0*
20,1,.005,.02,0.0,-.02,0.0,0.0*
1,1,.005,-.02,0.0*
1,1,.005,0.0,.02*
20,1,.005,0.0,.02,0.0,-.02,0.0*
1,1,.005,0.0,-.02*
1,1,.005,.00167,0.0*
20,1,.005,.00167,0.0,.01,.02,0.0*
1,1,.005,.01,.02*
20,1,.005,.01,.02,.01833,0.0,0.0*
1,1,.005,.01833,0.0*
1,1,.005,.01533,.007*
20,1,.005,.01533,.007,.00467,.007,0.0*
1,1,.005,.00467,.007*
%
%ADD11MACRO11*%
%AMMACRO14*
1,1,.005,.02,0.0*
20,1,.005,.02,0.0,-.02,0.0,0.0*
1,1,.005,-.02,0.0*
1,1,.005,0.0,.02*
20,1,.005,0.0,.02,0.0,-.02,0.0*
1,1,.005,0.0,-.02*
1,1,.005,.01267,.01067*
20,1,.005,.01267,.01067,.014,.01167,0.0*
1,1,.005,.014,.01167*
20,1,.005,.014,.01167,.015,.01333,0.0*
1,1,.005,.015,.01333*
20,1,.005,.015,.01333,.01567,.01567,0.0*
1,1,.005,.01567,.01567*
20,1,.005,.01567,.01567,.015,.01767,0.0*
1,1,.005,.015,.01767*
20,1,.005,.015,.01767,.01367,.019,0.0*
1,1,.005,.01367,.019*
20,1,.005,.01367,.019,.01133,.02,0.0*
1,1,.005,.01133,.02*
20,1,.005,.01133,.02,.00233,.02,0.0*
1,1,.005,.00233,.02*
20,1,.005,.00233,.02,.00233,0.0,0.0*
1,1,.005,.00233,0.0*
20,1,.005,.00233,0.0,.01333,0.0,0.0*
1,1,.005,.01333,0.0*
20,1,.005,.01333,0.0,.01567,.00133,0.0*
1,1,.005,.01567,.00133*
20,1,.005,.01567,.00133,.017,.00333,0.0*
1,1,.005,.017,.00333*
20,1,.005,.017,.00333,.01767,.00567,0.0*
1,1,.005,.01767,.00567*
20,1,.005,.01767,.00567,.017,.008,0.0*
1,1,.005,.017,.008*
20,1,.005,.017,.008,.015,.01,0.0*
1,1,.005,.015,.01*
20,1,.005,.015,.01,.01267,.01067,0.0*
1,1,.005,.01267,.01067*
20,1,.005,.01267,.01067,.00233,.01067,0.0*
1,1,.005,.00233,.01067*
%
%ADD14MACRO14*%
%AMMACRO12*
1,1,.005,.02,0.0*
20,1,.005,.02,0.0,-.02,0.0,0.0*
1,1,.005,-.02,0.0*
1,1,.005,0.0,.02*
20,1,.005,0.0,.02,0.0,-.02,0.0*
1,1,.005,0.0,-.02*
1,1,.005,.01733,.01833*
20,1,.005,.01733,.01833,.01533,.01933,0.0*
1,1,.005,.01533,.01933*
20,1,.005,.01533,.01933,.013,.02,0.0*
1,1,.005,.013,.02*
20,1,.005,.013,.02,.01033,.02,0.0*
1,1,.005,.01033,.02*
20,1,.005,.01033,.02,.00733,.019,0.0*
1,1,.005,.00733,.019*
20,1,.005,.00733,.019,.005,.01733,0.0*
1,1,.005,.005,.01733*
20,1,.005,.005,.01733,.00333,.01533,0.0*
1,1,.005,.00333,.01533*
20,1,.005,.00333,.01533,.002,.012,0.0*
1,1,.005,.002,.012*
20,1,.005,.002,.012,.00167,.009,0.0*
1,1,.005,.00167,.009*
20,1,.005,.00167,.009,.00233,.006,0.0*
1,1,.005,.00233,.006*
20,1,.005,.00233,.006,.00333,.004,0.0*
1,1,.005,.00333,.004*
20,1,.005,.00333,.004,.00533,.002,0.0*
1,1,.005,.00533,.002*
20,1,.005,.00533,.002,.00767,.00067,0.0*
1,1,.005,.00767,.00067*
20,1,.005,.00767,.00067,.01,0.0,0.0*
1,1,.005,.01,0.0*
20,1,.005,.01,0.0,.01233,0.0,0.0*
1,1,.005,.01233,0.0*
20,1,.005,.01233,0.0,.01467,.00067,0.0*
1,1,.005,.01467,.00067*
20,1,.005,.01467,.00067,.01667,.00167,0.0*
1,1,.005,.01667,.00167*
20,1,.005,.01667,.00167,.01833,.003,0.0*
1,1,.005,.01833,.003*
%
%ADD12MACRO12*%
%AMMACRO13*
1,1,.005,.02,0.0*
20,1,.005,.02,0.0,-.02,0.0,0.0*
1,1,.005,-.02,0.0*
1,1,.005,0.0,.02*
20,1,.005,0.0,.02,0.0,-.02,0.0*
1,1,.005,0.0,-.02*
1,1,.005,.00267,0.0*
20,1,.005,.00267,0.0,.00267,.02,0.0*
1,1,.005,.00267,.02*
20,1,.005,.00267,.02,.00933,.02,0.0*
1,1,.005,.00933,.02*
20,1,.005,.00933,.02,.012,.019,0.0*
1,1,.005,.012,.019*
20,1,.005,.012,.019,.014,.01767,0.0*
1,1,.005,.014,.01767*
20,1,.005,.014,.01767,.01567,.01567,0.0*
1,1,.005,.01567,.01567*
20,1,.005,.01567,.01567,.017,.01333,0.0*
1,1,.005,.017,.01333*
20,1,.005,.017,.01333,.01733,.01,0.0*
1,1,.005,.01733,.01*
20,1,.005,.01733,.01,.017,.00667,0.0*
1,1,.005,.017,.00667*
20,1,.005,.017,.00667,.01567,.00433,0.0*
1,1,.005,.01567,.00433*
20,1,.005,.01567,.00433,.014,.00233,0.0*
1,1,.005,.014,.00233*
20,1,.005,.014,.00233,.012,.001,0.0*
1,1,.005,.012,.001*
20,1,.005,.012,.001,.00933,0.0,0.0*
1,1,.005,.00933,0.0*
20,1,.005,.00933,0.0,.00267,0.0,0.0*
1,1,.005,.00267,0.0*
%
%ADD13MACRO13*%
%AMMACRO10*
1,1,.005,.079,0.0*
20,1,.005,.079,0.0,-.079,0.0,0.0*
1,1,.005,-.079,0.0*
1,1,.005,0.0,.079*
20,1,.005,0.0,.079,0.0,-.079,0.0*
1,1,.005,0.0,-.079*
1,1,.005,.06583,0.0*
20,1,.005,.06583,0.0,.01317,0.0,0.0*
1,1,.005,.01317,0.0*
20,1,.005,.01317,0.0,.01317,.079,0.0*
1,1,.005,.01317,.079*
20,1,.005,.01317,.079,.06583,.079,0.0*
1,1,.005,.06583,.079*
1,1,.005,.04477,.04082*
20,1,.005,.04477,.04082,.01317,.04082,0.0*
1,1,.005,.01317,.04082*
%
%ADD10MACRO10*%
%ADD15C,.005*%
G75*
%LPD*%
G75*
G36*
G01X856700Y408997D02*
Y404518D01*
X859200D01*
Y211877D01*
X856700D01*
Y207398D01*
X871700D01*
Y211877D01*
X869200D01*
Y404518D01*
X871700D01*
Y408997D01*
X856700D01*
G37*
G36*
G01X836700Y207399D02*
Y211878D01*
X896700D01*
Y207399D01*
X836700D01*
G37*
G36*
G01Y404518D02*
Y408997D01*
X896700D01*
Y404518D01*
X836700D01*
G37*
G54D10*
X20000Y3414D03*
Y396486D03*
X570551Y3414D03*
Y396486D03*
X1021350Y291700D03*
G54D11*
X31000Y54850D03*
Y98150D03*
X33000Y136850D03*
Y180150D03*
X24000Y293850D03*
Y337150D03*
X63660Y55000D03*
X61660Y134500D03*
X53850Y215500D03*
X54000Y293850D03*
Y337150D03*
X93340Y55000D03*
X91340Y134500D03*
X97150Y215500D03*
X94500Y293350D03*
Y336650D03*
X126500Y57350D03*
Y100650D03*
X120350Y168000D03*
X151850Y57000D03*
X163650Y168000D03*
X163850Y196000D03*
X159850Y309000D03*
Y339000D03*
Y369000D03*
X195150Y57000D03*
X212850Y85500D03*
X207150Y196000D03*
X203150Y309000D03*
Y339000D03*
Y369000D03*
X235000Y178850D03*
Y222150D03*
X255850Y56500D03*
X256150Y85500D03*
X270660Y167500D03*
X269350Y192000D03*
X266850Y270500D03*
X299150Y56500D03*
X300340Y167500D03*
X327500Y40350D03*
Y83650D03*
X312650Y192000D03*
X310150Y270500D03*
X338350Y119000D03*
X359000Y52660D03*
Y72340D03*
X381650Y119000D03*
X375000Y165350D03*
Y208650D03*
X367350Y269500D03*
X402660Y58500D03*
X392350Y85000D03*
X410650Y269500D03*
X422340Y58500D03*
X435650Y85000D03*
X424160Y163500D03*
X441850Y268000D03*
X432350Y312500D03*
X453840Y163500D03*
X494350Y53000D03*
X490000Y176350D03*
Y219650D03*
X485150Y268000D03*
X475650Y312500D03*
X504660Y82000D03*
X524340D03*
X509660Y267000D03*
X506350Y351500D03*
X537650Y53000D03*
X539340Y267000D03*
X549650Y351500D03*
X1021350Y391700D03*
G54D12*
X61870Y98500D03*
Y88500D03*
Y78500D03*
Y108500D03*
X60870Y179500D03*
Y169500D03*
Y159500D03*
Y189500D03*
X62870Y244000D03*
Y264000D03*
Y254000D03*
Y274000D03*
X93130Y78500D03*
Y88500D03*
Y98500D03*
Y108500D03*
X92130Y159500D03*
Y169500D03*
Y179500D03*
Y189500D03*
X94130Y244000D03*
Y254000D03*
Y264000D03*
Y274000D03*
X156370Y94500D03*
Y124500D03*
Y114500D03*
Y104500D03*
X187630Y94500D03*
Y104500D03*
Y114500D03*
Y124500D03*
X170870Y241000D03*
Y231000D03*
Y221000D03*
Y251000D03*
X202130Y221000D03*
Y231000D03*
Y241000D03*
Y251000D03*
X269370Y128000D03*
Y118000D03*
Y108000D03*
Y138000D03*
X271870Y215500D03*
Y235500D03*
Y225500D03*
Y245500D03*
X271370Y292500D03*
Y322500D03*
Y312500D03*
Y302500D03*
X300630Y108000D03*
Y118000D03*
Y128000D03*
Y138000D03*
X303130Y215500D03*
Y225500D03*
Y235500D03*
Y245500D03*
X302630Y292500D03*
Y302500D03*
Y312500D03*
Y322500D03*
X367870Y293500D03*
Y323500D03*
Y313500D03*
Y303500D03*
X403370Y127000D03*
Y117000D03*
Y107000D03*
Y137000D03*
X399130Y293500D03*
Y303500D03*
Y313500D03*
Y323500D03*
X434630Y107000D03*
Y117000D03*
Y127000D03*
Y137000D03*
X424370Y187000D03*
Y207000D03*
Y197000D03*
Y217000D03*
X455630Y187000D03*
Y197000D03*
Y207000D03*
Y217000D03*
X498370Y128000D03*
Y118000D03*
Y108000D03*
Y138000D03*
X529630Y108000D03*
Y118000D03*
Y128000D03*
Y138000D03*
X521870Y208000D03*
Y198000D03*
Y188000D03*
Y218000D03*
X511870Y294500D03*
Y324500D03*
Y314500D03*
Y304500D03*
X553130Y188000D03*
Y198000D03*
Y208000D03*
Y218000D03*
X543130Y294500D03*
Y304500D03*
Y314500D03*
Y324500D03*
X1021350Y341700D03*
G54D13*
X74000Y378000D03*
X54000D03*
X94000D03*
X114000D03*
X166000Y16000D03*
X186000D03*
X206000D03*
X226000D03*
X244500Y378000D03*
X264500D03*
X304500D03*
X284500D03*
X348500Y15000D03*
X368500D03*
X388500D03*
X408500D03*
X409500Y378000D03*
X429500D03*
X469500D03*
X449500D03*
X1021350Y316700D03*
G54D14*
Y366700D03*
G54D15*
G01X585551Y416486D02*
X5000D01*
X0Y411486D01*
Y-11586D01*
X5000Y-16586D01*
X585551D01*
X590551Y-11586D01*
Y411486D01*
X585551Y416486D01*
G01X0Y400512D02*
Y469243D01*
G01X263417Y459400D02*
X0D01*
G01X15748Y461860D02*
X0Y459400D01*
X15748Y456940D01*
Y461860D01*
G01X74975Y-59000D02*
X79850Y-43400D01*
X84725Y-59000D01*
G01X82970Y-53540D02*
X76730D01*
G01X93850Y-43400D02*
Y-59000D01*
X101650D01*
G01X111750Y-43400D02*
Y-59000D01*
X119550D01*
G01X147160D02*
Y-43400D01*
X151060D01*
X152620Y-44180D01*
X153790Y-45220D01*
X154765Y-46780D01*
X155545Y-48600D01*
X155740Y-51200D01*
X155545Y-53800D01*
X154765Y-55620D01*
X153790Y-57180D01*
X152620Y-58220D01*
X151060Y-59000D01*
X147160D01*
G01X167010Y-43400D02*
X171690D01*
G01X169350D02*
Y-59000D01*
G01X167010D02*
X171690D01*
G01X182180D02*
Y-43400D01*
X187250Y-56400D01*
X192320Y-43400D01*
Y-59000D01*
G01X209050D02*
X201250D01*
Y-43400D01*
X209050D01*
G01X205930Y-50940D02*
X201250D01*
G01X218565Y-59000D02*
Y-43400D01*
X227535Y-59000D01*
Y-43400D01*
G01X236855Y-56920D02*
X238415Y-58220D01*
X240170Y-59000D01*
X241730D01*
X243290Y-58220D01*
X244460Y-56920D01*
X245045Y-55100D01*
X244655Y-53280D01*
X243680Y-51720D01*
X241925Y-50680D01*
X239585Y-50160D01*
X238220Y-49120D01*
X237635Y-47300D01*
X238025Y-45480D01*
X239000Y-44180D01*
X240365Y-43400D01*
X241730D01*
X243095Y-43920D01*
X244265Y-45220D01*
G01X256510Y-43400D02*
X261190D01*
G01X258850D02*
Y-59000D01*
G01X256510D02*
X261190D01*
G01X276750D02*
X275190Y-58740D01*
X273825Y-57700D01*
X272655Y-56140D01*
X271875Y-54320D01*
X271485Y-52240D01*
Y-50160D01*
X271875Y-48080D01*
X272655Y-46260D01*
X273825Y-44700D01*
X275190Y-43660D01*
X276750Y-43400D01*
X278310Y-43660D01*
X279675Y-44700D01*
X280845Y-46260D01*
X281625Y-48080D01*
X282015Y-50160D01*
Y-52240D01*
X281625Y-54320D01*
X280845Y-56140D01*
X279675Y-57700D01*
X278310Y-58740D01*
X276750Y-59000D01*
G01X290165D02*
Y-43400D01*
X299135Y-59000D01*
Y-43400D01*
G01X308455Y-56920D02*
X310015Y-58220D01*
X311770Y-59000D01*
X313330D01*
X314890Y-58220D01*
X316060Y-56920D01*
X316645Y-55100D01*
X316255Y-53280D01*
X315280Y-51720D01*
X313525Y-50680D01*
X311185Y-50160D01*
X309820Y-49120D01*
X309235Y-47300D01*
X309625Y-45480D01*
X310600Y-44180D01*
X311965Y-43400D01*
X313330D01*
X314695Y-43920D01*
X315865Y-45220D01*
G01X343475Y-59000D02*
X348350Y-43400D01*
X353225Y-59000D01*
G01X351470Y-53540D02*
X345230D01*
G01X362350Y-59000D02*
Y-43400D01*
X367225D01*
X368785Y-44180D01*
X369760Y-45220D01*
X370150Y-47300D01*
X369760Y-49380D01*
X368590Y-50680D01*
X367225Y-51460D01*
X362350D01*
G01X367225D02*
X370150Y-59000D01*
G01X388050D02*
X380250D01*
Y-43400D01*
X388050D01*
G01X384930Y-50940D02*
X380250D01*
G01X417610Y-43400D02*
X422290D01*
G01X419950D02*
Y-59000D01*
G01X417610D02*
X422290D01*
G01X433365D02*
Y-43400D01*
X442335Y-59000D01*
Y-43400D01*
G01X468580Y-59000D02*
Y-43400D01*
X473650Y-56400D01*
X478720Y-43400D01*
Y-59000D01*
G01X486480D02*
Y-43400D01*
X491550Y-56400D01*
X496620Y-43400D01*
Y-59000D01*
G01X277442Y453150D02*
Y465650D01*
X275582Y463150D01*
G01Y453150D02*
X279302D01*
G01X286432Y455025D02*
X287362Y453983D01*
X288447Y453358D01*
X289842Y453150D01*
X291237Y453567D01*
X292322Y454400D01*
X293097Y455858D01*
X293252Y457525D01*
X292942Y459192D01*
X292167Y460233D01*
X291082Y461067D01*
X289997Y461275D01*
X288912Y461067D01*
X287517Y460233D01*
X287982Y465650D01*
X292167D01*
G01X302242D02*
X301002Y465233D01*
X300072Y464192D01*
X299452Y462942D01*
X298987Y461275D01*
X298832Y459400D01*
X298987Y457525D01*
X299452Y455858D01*
X300072Y454608D01*
X301002Y453567D01*
X302242Y453150D01*
X303482Y453567D01*
X304412Y454608D01*
X305032Y455858D01*
X305497Y457525D01*
X305652Y459400D01*
X305497Y461275D01*
X305032Y462942D01*
X304412Y464192D01*
X303482Y465233D01*
X302242Y465650D01*
G01X316267Y459400D02*
X590551D01*
G01X574803Y456940D02*
X590551Y459400D01*
X574803Y461860D01*
Y456940D01*
G01X590551Y400512D02*
Y469243D01*
G01X836700Y211878D02*
Y404518D01*
X896700D01*
Y211878D01*
X836700D01*
G01X838613Y198233D02*
Y200733D01*
X839147D01*
X839360Y200608D01*
X839520Y200441D01*
X839653Y200191D01*
X839760Y199900D01*
X839787Y199483D01*
X839760Y199066D01*
X839653Y198775D01*
X839520Y198525D01*
X839360Y198358D01*
X839147Y198233D01*
X838613D01*
G01X841933D02*
X840867D01*
Y200733D01*
X841933D01*
G01X841507Y199525D02*
X840867D01*
G01X843040Y198566D02*
X843253Y198358D01*
X843493Y198233D01*
X843707D01*
X843920Y198358D01*
X844080Y198566D01*
X844160Y198858D01*
X844107Y199150D01*
X843973Y199400D01*
X843733Y199566D01*
X843413Y199650D01*
X843227Y199816D01*
X843147Y200108D01*
X843200Y200400D01*
X843333Y200608D01*
X843520Y200733D01*
X843707D01*
X843893Y200650D01*
X844053Y200441D01*
G01X845480Y200733D02*
X846120D01*
G01X845800D02*
Y198233D01*
G01X845480D02*
X846120D01*
G01X848160Y199483D02*
X848693D01*
Y198733D01*
X848533Y198483D01*
X848347Y198316D01*
X848080Y198233D01*
X847813Y198316D01*
X847627Y198483D01*
X847467Y198733D01*
X847360Y199025D01*
X847307Y199358D01*
Y199650D01*
X847360Y199900D01*
X847467Y200191D01*
X847627Y200441D01*
X847787Y200608D01*
X848000Y200733D01*
X848187D01*
X848400Y200650D01*
X848560Y200483D01*
G01X849587Y198233D02*
Y200733D01*
X850813Y198233D01*
Y200733D01*
G01X855187Y200525D02*
X855027Y200650D01*
X854840Y200733D01*
X854627D01*
X854387Y200608D01*
X854200Y200400D01*
X854067Y200150D01*
X853960Y199733D01*
X853933Y199358D01*
X853987Y198983D01*
X854067Y198733D01*
X854227Y198483D01*
X854413Y198316D01*
X854600Y198233D01*
X854787D01*
X854973Y198316D01*
X855133Y198441D01*
X855267Y198608D01*
G01X856267Y198233D02*
Y200733D01*
X856933D01*
X857147Y200608D01*
X857280Y200441D01*
X857333Y200108D01*
X857280Y199775D01*
X857120Y199566D01*
X856933Y199441D01*
X856267D01*
G01X856933D02*
X857333Y198233D01*
G01X859000D02*
X858787Y198275D01*
X858600Y198441D01*
X858440Y198691D01*
X858333Y198983D01*
X858280Y199316D01*
Y199650D01*
X858333Y199983D01*
X858440Y200275D01*
X858600Y200525D01*
X858787Y200691D01*
X859000Y200733D01*
X859213Y200691D01*
X859400Y200525D01*
X859560Y200275D01*
X859667Y199983D01*
X859720Y199650D01*
Y199316D01*
X859667Y198983D01*
X859560Y198691D01*
X859400Y198441D01*
X859213Y198275D01*
X859000Y198233D01*
G01X860640Y198566D02*
X860853Y198358D01*
X861093Y198233D01*
X861307D01*
X861520Y198358D01*
X861680Y198566D01*
X861760Y198858D01*
X861707Y199150D01*
X861573Y199400D01*
X861333Y199566D01*
X861013Y199650D01*
X860827Y199816D01*
X860747Y200108D01*
X860800Y200400D01*
X860933Y200608D01*
X861120Y200733D01*
X861307D01*
X861493Y200650D01*
X861653Y200441D01*
G01X862840Y198566D02*
X863053Y198358D01*
X863293Y198233D01*
X863507D01*
X863720Y198358D01*
X863880Y198566D01*
X863960Y198858D01*
X863907Y199150D01*
X863773Y199400D01*
X863533Y199566D01*
X863213Y199650D01*
X863027Y199816D01*
X862947Y200108D01*
X863000Y200400D01*
X863133Y200608D01*
X863320Y200733D01*
X863507D01*
X863693Y200650D01*
X863853Y200441D01*
G01X867240Y198566D02*
X867453Y198358D01*
X867693Y198233D01*
X867907D01*
X868120Y198358D01*
X868280Y198566D01*
X868360Y198858D01*
X868307Y199150D01*
X868173Y199400D01*
X867933Y199566D01*
X867613Y199650D01*
X867427Y199816D01*
X867347Y200108D01*
X867400Y200400D01*
X867533Y200608D01*
X867720Y200733D01*
X867907D01*
X868093Y200650D01*
X868253Y200441D01*
G01X870533Y198233D02*
X869467D01*
Y200733D01*
X870533D01*
G01X870107Y199525D02*
X869467D01*
G01X872787Y200525D02*
X872627Y200650D01*
X872440Y200733D01*
X872227D01*
X871987Y200608D01*
X871800Y200400D01*
X871667Y200150D01*
X871560Y199733D01*
X871533Y199358D01*
X871587Y198983D01*
X871667Y198733D01*
X871827Y198483D01*
X872013Y198316D01*
X872200Y198233D01*
X872387D01*
X872573Y198316D01*
X872733Y198441D01*
X872867Y198608D01*
G01X874400Y200733D02*
Y198233D01*
G01X873787Y200733D02*
X875013D01*
G01X876280D02*
X876920D01*
G01X876600D02*
Y198233D01*
G01X876280D02*
X876920D01*
G01X878800D02*
X878587Y198275D01*
X878400Y198441D01*
X878240Y198691D01*
X878133Y198983D01*
X878080Y199316D01*
Y199650D01*
X878133Y199983D01*
X878240Y200275D01*
X878400Y200525D01*
X878587Y200691D01*
X878800Y200733D01*
X879013Y200691D01*
X879200Y200525D01*
X879360Y200275D01*
X879467Y199983D01*
X879520Y199650D01*
Y199316D01*
X879467Y198983D01*
X879360Y198691D01*
X879200Y198441D01*
X879013Y198275D01*
X878800Y198233D01*
G01X880387D02*
Y200733D01*
X881613Y198233D01*
Y200733D01*
G01X885987Y200525D02*
X885827Y200650D01*
X885640Y200733D01*
X885427D01*
X885187Y200608D01*
X885000Y200400D01*
X884867Y200150D01*
X884760Y199733D01*
X884733Y199358D01*
X884787Y198983D01*
X884867Y198733D01*
X885027Y198483D01*
X885213Y198316D01*
X885400Y198233D01*
X885587D01*
X885773Y198316D01*
X885933Y198441D01*
X886067Y198608D01*
G01X887040Y198233D02*
Y200733D01*
G01X888160D02*
Y198233D01*
G01Y199483D02*
X887040D01*
G01X889133Y198233D02*
X889800Y200733D01*
X890467Y198233D01*
G01X890227Y199108D02*
X889373D01*
G01X891467Y198233D02*
Y200733D01*
X892133D01*
X892347Y200608D01*
X892480Y200441D01*
X892533Y200108D01*
X892480Y199775D01*
X892320Y199566D01*
X892133Y199441D01*
X891467D01*
G01X892133D02*
X892533Y198233D01*
G01X894200Y200733D02*
Y198233D01*
G01X893587Y200733D02*
X894813D01*
G01X837300Y197400D02*
X838900D01*
G01X839500D02*
X841100D01*
G01X841700D02*
X843300D01*
G01X843900D02*
X845500D01*
G01X846100D02*
X847700D01*
G01X848300D02*
X849900D01*
G01X850500D02*
X852100D01*
G01X852700D02*
X854300D01*
G01X854900D02*
X856500D01*
G01X857100D02*
X858700D01*
G01X859300D02*
X860900D01*
G01X861500D02*
X863100D01*
G01X863700D02*
X865300D01*
G01X865900D02*
X867500D01*
G01X868100D02*
X869700D01*
G01X870300D02*
X871900D01*
G01X872500D02*
X874100D01*
G01X874700D02*
X876300D01*
G01X876900D02*
X878500D01*
G01X879100D02*
X880700D01*
G01X881300D02*
X882900D01*
G01X883500D02*
X885100D01*
G01X885700D02*
X887300D01*
G01X887900D02*
X889500D01*
G01X890100D02*
X891700D01*
G01X892300D02*
X893900D01*
G01X894500D02*
X896100D01*
G01X843600Y196233D02*
Y193733D01*
G01X842987Y196233D02*
X844213D01*
G01X845800Y193733D02*
X845587Y193775D01*
X845400Y193941D01*
X845240Y194191D01*
X845133Y194483D01*
X845080Y194816D01*
Y195150D01*
X845133Y195483D01*
X845240Y195775D01*
X845400Y196025D01*
X845587Y196191D01*
X845800Y196233D01*
X846013Y196191D01*
X846200Y196025D01*
X846360Y195775D01*
X846467Y195483D01*
X846520Y195150D01*
Y194816D01*
X846467Y194483D01*
X846360Y194191D01*
X846200Y193941D01*
X846013Y193775D01*
X845800Y193733D01*
G01X848000Y196233D02*
Y193733D01*
G01X847387Y196233D02*
X848613D01*
G01X849533Y193733D02*
X850200Y196233D01*
X850867Y193733D01*
G01X850627Y194608D02*
X849773D01*
G01X851867Y196233D02*
Y193733D01*
X852933D01*
G01X856800Y196233D02*
Y193733D01*
G01X856187Y196233D02*
X857413D01*
G01X858440Y193733D02*
Y196233D01*
G01X859560D02*
Y193733D01*
G01Y194983D02*
X858440D01*
G01X860880Y196233D02*
X861520D01*
G01X861200D02*
Y193733D01*
G01X860880D02*
X861520D01*
G01X863987Y196025D02*
X863827Y196150D01*
X863640Y196233D01*
X863427D01*
X863187Y196108D01*
X863000Y195900D01*
X862867Y195650D01*
X862760Y195233D01*
X862733Y194858D01*
X862787Y194483D01*
X862867Y194233D01*
X863027Y193983D01*
X863213Y193816D01*
X863400Y193733D01*
X863587D01*
X863773Y193816D01*
X863933Y193941D01*
X864067Y194108D01*
G01X865013Y193733D02*
Y196233D01*
G01X866027D02*
X865013Y194691D01*
G01X866187Y193733D02*
X865467Y195400D01*
G01X867187Y193733D02*
Y196233D01*
X868413Y193733D01*
Y196233D01*
G01X870533Y193733D02*
X869467D01*
Y196233D01*
X870533D01*
G01X870107Y195025D02*
X869467D01*
G01X871640Y194066D02*
X871853Y193858D01*
X872093Y193733D01*
X872307D01*
X872520Y193858D01*
X872680Y194066D01*
X872760Y194358D01*
X872707Y194650D01*
X872573Y194900D01*
X872333Y195066D01*
X872013Y195150D01*
X871827Y195316D01*
X871747Y195608D01*
X871800Y195900D01*
X871933Y196108D01*
X872120Y196233D01*
X872307D01*
X872493Y196150D01*
X872653Y195941D01*
G01X873840Y194066D02*
X874053Y193858D01*
X874293Y193733D01*
X874507D01*
X874720Y193858D01*
X874880Y194066D01*
X874960Y194358D01*
X874907Y194650D01*
X874773Y194900D01*
X874533Y195066D01*
X874213Y195150D01*
X874027Y195316D01*
X873947Y195608D01*
X874000Y195900D01*
X874133Y196108D01*
X874320Y196233D01*
X874507D01*
X874693Y196150D01*
X874853Y195941D01*
G01X878293Y194775D02*
X878480Y195066D01*
X878640Y195233D01*
X878853Y195316D01*
X879040Y195233D01*
X879173Y195066D01*
X879280Y194816D01*
X879307Y194525D01*
X879280Y194275D01*
X879173Y194025D01*
X879013Y193816D01*
X878827Y193733D01*
X878613Y193816D01*
X878427Y194066D01*
X878320Y194441D01*
X878293Y194858D01*
X878347Y195400D01*
X878427Y195691D01*
X878560Y195983D01*
X878747Y196191D01*
X878933Y196233D01*
X879120Y196150D01*
X879253Y195941D01*
G01X880413Y194233D02*
X880573Y193941D01*
X880787Y193775D01*
X881027Y193733D01*
X881240Y193775D01*
X881453Y193983D01*
X881587Y194233D01*
X881613Y194483D01*
X881560Y194775D01*
X881373Y194983D01*
X881187Y195066D01*
X880947D01*
G01X881187D02*
X881347Y195191D01*
X881480Y195400D01*
X881533Y195650D01*
X881480Y195900D01*
X881347Y196108D01*
X881107Y196233D01*
X880867Y196191D01*
X880627Y196025D01*
G01X884707Y193733D02*
Y196233D01*
X885400Y194150D01*
X886093Y196233D01*
Y193733D01*
G01X887280Y196233D02*
X887920D01*
G01X887600D02*
Y193733D01*
G01X887280D02*
X887920D01*
G01X889267Y196233D02*
Y193733D01*
X890333D01*
G01X864200Y412297D02*
X861700D01*
X862200Y411977D01*
G01X864200D02*
Y412617D01*
G01X863367Y414150D02*
Y414844D01*
G01X862117Y416190D02*
X861867Y416350D01*
X861742Y416537D01*
X861700Y416750D01*
X861783Y417017D01*
X861992Y417204D01*
X862242Y417257D01*
X862492Y417230D01*
X862700Y417124D01*
X863117Y416590D01*
X863408Y416350D01*
X863825Y416190D01*
X864200Y416137D01*
Y417257D01*
G01X899167Y211045D02*
Y208545D01*
X900233D01*
G01X901393Y210628D02*
X901553Y210878D01*
X901740Y211003D01*
X901953Y211045D01*
X902220Y210962D01*
X902407Y210753D01*
X902460Y210503D01*
X902433Y210253D01*
X902327Y210045D01*
X901793Y209628D01*
X901553Y209337D01*
X901393Y208920D01*
X901340Y208545D01*
X902460D01*
G01X906513Y209878D02*
X906620Y210003D01*
X906700Y210212D01*
X906753Y210503D01*
X906700Y210753D01*
X906593Y210920D01*
X906407Y211045D01*
X905687D01*
Y208545D01*
X906567D01*
X906753Y208712D01*
X906860Y208962D01*
X906913Y209253D01*
X906860Y209545D01*
X906700Y209795D01*
X906513Y209878D01*
X905687D01*
G01X908500Y208545D02*
X908287Y208587D01*
X908100Y208753D01*
X907940Y209003D01*
X907833Y209295D01*
X907780Y209628D01*
Y209962D01*
X907833Y210295D01*
X907940Y210587D01*
X908100Y210837D01*
X908287Y211003D01*
X908500Y211045D01*
X908713Y211003D01*
X908900Y210837D01*
X909060Y210587D01*
X909167Y210295D01*
X909220Y209962D01*
Y209628D01*
X909167Y209295D01*
X909060Y209003D01*
X908900Y208753D01*
X908713Y208587D01*
X908500Y208545D01*
G01X910700Y211045D02*
Y208545D01*
G01X910087Y211045D02*
X911313D01*
G01X912900D02*
Y208545D01*
G01X912287Y211045D02*
X913513D01*
G01X915100Y208545D02*
X914887Y208587D01*
X914700Y208753D01*
X914540Y209003D01*
X914433Y209295D01*
X914380Y209628D01*
Y209962D01*
X914433Y210295D01*
X914540Y210587D01*
X914700Y210837D01*
X914887Y211003D01*
X915100Y211045D01*
X915313Y211003D01*
X915500Y210837D01*
X915660Y210587D01*
X915767Y210295D01*
X915820Y209962D01*
Y209628D01*
X915767Y209295D01*
X915660Y209003D01*
X915500Y208753D01*
X915313Y208587D01*
X915100Y208545D01*
G01X916607D02*
Y211045D01*
X917300Y208962D01*
X917993Y211045D01*
Y208545D01*
G01X922287Y210837D02*
X922127Y210962D01*
X921940Y211045D01*
X921727D01*
X921487Y210920D01*
X921300Y210712D01*
X921167Y210462D01*
X921060Y210045D01*
X921033Y209670D01*
X921087Y209295D01*
X921167Y209045D01*
X921327Y208795D01*
X921513Y208628D01*
X921700Y208545D01*
X921887D01*
X922073Y208628D01*
X922233Y208753D01*
X922367Y208920D01*
G01X923900Y208545D02*
X923687Y208587D01*
X923500Y208753D01*
X923340Y209003D01*
X923233Y209295D01*
X923180Y209628D01*
Y209962D01*
X923233Y210295D01*
X923340Y210587D01*
X923500Y210837D01*
X923687Y211003D01*
X923900Y211045D01*
X924113Y211003D01*
X924300Y210837D01*
X924460Y210587D01*
X924567Y210295D01*
X924620Y209962D01*
Y209628D01*
X924567Y209295D01*
X924460Y209003D01*
X924300Y208753D01*
X924113Y208587D01*
X923900Y208545D01*
G01X925487D02*
Y211045D01*
X926713Y208545D01*
Y211045D01*
G01X927713Y208545D02*
Y211045D01*
X928247D01*
X928460Y210920D01*
X928620Y210753D01*
X928753Y210503D01*
X928860Y210212D01*
X928887Y209795D01*
X928860Y209378D01*
X928753Y209087D01*
X928620Y208837D01*
X928460Y208670D01*
X928247Y208545D01*
X927713D01*
G01X929913Y211045D02*
Y209253D01*
X930020Y208878D01*
X930233Y208628D01*
X930500Y208545D01*
X930767Y208628D01*
X930980Y208878D01*
X931087Y209253D01*
Y211045D01*
G01X933287Y210837D02*
X933127Y210962D01*
X932940Y211045D01*
X932727D01*
X932487Y210920D01*
X932300Y210712D01*
X932167Y210462D01*
X932060Y210045D01*
X932033Y209670D01*
X932087Y209295D01*
X932167Y209045D01*
X932327Y208795D01*
X932513Y208628D01*
X932700Y208545D01*
X932887D01*
X933073Y208628D01*
X933233Y208753D01*
X933367Y208920D01*
G01X934900Y211045D02*
Y208545D01*
G01X934287Y211045D02*
X935513D01*
G01X937100Y208545D02*
X936887Y208587D01*
X936700Y208753D01*
X936540Y209003D01*
X936433Y209295D01*
X936380Y209628D01*
Y209962D01*
X936433Y210295D01*
X936540Y210587D01*
X936700Y210837D01*
X936887Y211003D01*
X937100Y211045D01*
X937313Y211003D01*
X937500Y210837D01*
X937660Y210587D01*
X937767Y210295D01*
X937820Y209962D01*
Y209628D01*
X937767Y209295D01*
X937660Y209003D01*
X937500Y208753D01*
X937313Y208587D01*
X937100Y208545D01*
G01X938767D02*
Y211045D01*
X939433D01*
X939647Y210920D01*
X939780Y210753D01*
X939833Y210420D01*
X939780Y210087D01*
X939620Y209878D01*
X939433Y209753D01*
X938767D01*
G01X939433D02*
X939833Y208545D01*
G01X903513Y203983D02*
X904687Y205816D01*
G01X904100Y206149D02*
Y203649D01*
G01X904687Y203983D02*
X903513Y205816D01*
G01X903300Y204899D02*
X904900D01*
G01X910140Y204399D02*
X910353Y204191D01*
X910593Y204066D01*
X910807D01*
X911020Y204191D01*
X911180Y204399D01*
X911260Y204691D01*
X911207Y204983D01*
X911073Y205233D01*
X910833Y205399D01*
X910513Y205483D01*
X910327Y205649D01*
X910247Y205941D01*
X910300Y206233D01*
X910433Y206441D01*
X910620Y206566D01*
X910807D01*
X910993Y206483D01*
X911153Y206274D01*
G01X912313Y206566D02*
Y204774D01*
X912420Y204399D01*
X912633Y204149D01*
X912900Y204066D01*
X913167Y204149D01*
X913380Y204399D01*
X913487Y204774D01*
Y206566D01*
G01X914567Y204066D02*
Y206566D01*
X915233D01*
X915447Y206441D01*
X915580Y206274D01*
X915633Y205941D01*
X915580Y205608D01*
X915420Y205399D01*
X915233Y205274D01*
X914567D01*
G01X915233D02*
X915633Y204066D01*
G01X916793D02*
Y206566D01*
X917807D01*
G01X917433Y205358D02*
X916793D01*
G01X918833Y204066D02*
X919500Y206566D01*
X920167Y204066D01*
G01X919927Y204941D02*
X919073D01*
G01X922287Y206358D02*
X922127Y206483D01*
X921940Y206566D01*
X921727D01*
X921487Y206441D01*
X921300Y206233D01*
X921167Y205983D01*
X921060Y205566D01*
X921033Y205191D01*
X921087Y204816D01*
X921167Y204566D01*
X921327Y204316D01*
X921513Y204149D01*
X921700Y204066D01*
X921887D01*
X922073Y204149D01*
X922233Y204274D01*
X922367Y204441D01*
G01X924433Y204066D02*
X923367D01*
Y206566D01*
X924433D01*
G01X924007Y205358D02*
X923367D01*
G01X903513Y308115D02*
X904687Y309948D01*
G01X904100Y310281D02*
Y307781D01*
G01X904687Y308115D02*
X903513Y309948D01*
G01X903300Y309031D02*
X904900D01*
G01X910113Y308198D02*
Y310698D01*
X910647D01*
X910860Y310573D01*
X911020Y310406D01*
X911153Y310156D01*
X911260Y309865D01*
X911287Y309448D01*
X911260Y309031D01*
X911153Y308740D01*
X911020Y308490D01*
X910860Y308323D01*
X910647Y308198D01*
X910113D01*
G01X912580Y310698D02*
X913220D01*
G01X912900D02*
Y308198D01*
G01X912580D02*
X913220D01*
G01X915633D02*
X914567D01*
Y310698D01*
X915633D01*
G01X915207Y309490D02*
X914567D01*
G01X916767Y310698D02*
Y308198D01*
X917833D01*
G01X920033D02*
X918967D01*
Y310698D01*
X920033D01*
G01X919607Y309490D02*
X918967D01*
G01X922287Y310490D02*
X922127Y310615D01*
X921940Y310698D01*
X921727D01*
X921487Y310573D01*
X921300Y310365D01*
X921167Y310115D01*
X921060Y309698D01*
X921033Y309323D01*
X921087Y308948D01*
X921167Y308698D01*
X921327Y308448D01*
X921513Y308281D01*
X921700Y308198D01*
X921887D01*
X922073Y308281D01*
X922233Y308406D01*
X922367Y308573D01*
G01X923900Y310698D02*
Y308198D01*
G01X923287Y310698D02*
X924513D01*
G01X925567Y308198D02*
Y310698D01*
X926233D01*
X926447Y310573D01*
X926580Y310406D01*
X926633Y310073D01*
X926580Y309740D01*
X926420Y309531D01*
X926233Y309406D01*
X925567D01*
G01X926233D02*
X926633Y308198D01*
G01X927980Y310698D02*
X928620D01*
G01X928300D02*
Y308198D01*
G01X927980D02*
X928620D01*
G01X931087Y310490D02*
X930927Y310615D01*
X930740Y310698D01*
X930527D01*
X930287Y310573D01*
X930100Y310365D01*
X929967Y310115D01*
X929860Y309698D01*
X929833Y309323D01*
X929887Y308948D01*
X929967Y308698D01*
X930127Y308448D01*
X930313Y308281D01*
X930500Y308198D01*
X930687D01*
X930873Y308281D01*
X931033Y308406D01*
X931167Y308573D01*
G01X903513Y409747D02*
X904687Y411580D01*
G01X904100Y411913D02*
Y409413D01*
G01X904687Y409747D02*
X903513Y411580D01*
G01X903300Y410663D02*
X904900D01*
G01X910140Y410163D02*
X910353Y409955D01*
X910593Y409830D01*
X910807D01*
X911020Y409955D01*
X911180Y410163D01*
X911260Y410455D01*
X911207Y410747D01*
X911073Y410997D01*
X910833Y411163D01*
X910513Y411247D01*
X910327Y411413D01*
X910247Y411705D01*
X910300Y411997D01*
X910433Y412205D01*
X910620Y412330D01*
X910807D01*
X910993Y412247D01*
X911153Y412038D01*
G01X912313Y412330D02*
Y410538D01*
X912420Y410163D01*
X912633Y409913D01*
X912900Y409830D01*
X913167Y409913D01*
X913380Y410163D01*
X913487Y410538D01*
Y412330D01*
G01X914567Y409830D02*
Y412330D01*
X915233D01*
X915447Y412205D01*
X915580Y412038D01*
X915633Y411705D01*
X915580Y411372D01*
X915420Y411163D01*
X915233Y411038D01*
X914567D01*
G01X915233D02*
X915633Y409830D01*
G01X916793D02*
Y412330D01*
X917807D01*
G01X917433Y411122D02*
X916793D01*
G01X918833Y409830D02*
X919500Y412330D01*
X920167Y409830D01*
G01X919927Y410705D02*
X919073D01*
G01X922287Y412122D02*
X922127Y412247D01*
X921940Y412330D01*
X921727D01*
X921487Y412205D01*
X921300Y411997D01*
X921167Y411747D01*
X921060Y411330D01*
X921033Y410955D01*
X921087Y410580D01*
X921167Y410330D01*
X921327Y410080D01*
X921513Y409913D01*
X921700Y409830D01*
X921887D01*
X922073Y409913D01*
X922233Y410038D01*
X922367Y410205D01*
G01X924433Y409830D02*
X923367D01*
Y412330D01*
X924433D01*
G01X924007Y411122D02*
X923367D01*
G01X899167Y408164D02*
Y405664D01*
X900233D01*
G01X901900D02*
Y408164D01*
X901580Y407664D01*
G01Y405664D02*
X902220D01*
G01X906300Y408164D02*
Y405664D01*
G01X905687Y408164D02*
X906913D01*
G01X908500Y405664D02*
X908287Y405706D01*
X908100Y405872D01*
X907940Y406122D01*
X907833Y406414D01*
X907780Y406747D01*
Y407081D01*
X907833Y407414D01*
X907940Y407706D01*
X908100Y407956D01*
X908287Y408122D01*
X908500Y408164D01*
X908713Y408122D01*
X908900Y407956D01*
X909060Y407706D01*
X909167Y407414D01*
X909220Y407081D01*
Y406747D01*
X909167Y406414D01*
X909060Y406122D01*
X908900Y405872D01*
X908713Y405706D01*
X908500Y405664D01*
G01X910167D02*
Y408164D01*
X910807D01*
X911020Y408039D01*
X911180Y407747D01*
X911233Y407414D01*
X911180Y407081D01*
X911047Y406831D01*
X910807Y406706D01*
X910167D01*
G01X915687Y407956D02*
X915527Y408081D01*
X915340Y408164D01*
X915127D01*
X914887Y408039D01*
X914700Y407831D01*
X914567Y407581D01*
X914460Y407164D01*
X914433Y406789D01*
X914487Y406414D01*
X914567Y406164D01*
X914727Y405914D01*
X914913Y405747D01*
X915100Y405664D01*
X915287D01*
X915473Y405747D01*
X915633Y405872D01*
X915767Y406039D01*
G01X917300Y405664D02*
X917087Y405706D01*
X916900Y405872D01*
X916740Y406122D01*
X916633Y406414D01*
X916580Y406747D01*
Y407081D01*
X916633Y407414D01*
X916740Y407706D01*
X916900Y407956D01*
X917087Y408122D01*
X917300Y408164D01*
X917513Y408122D01*
X917700Y407956D01*
X917860Y407706D01*
X917967Y407414D01*
X918020Y407081D01*
Y406747D01*
X917967Y406414D01*
X917860Y406122D01*
X917700Y405872D01*
X917513Y405706D01*
X917300Y405664D01*
G01X918887D02*
Y408164D01*
X920113Y405664D01*
Y408164D01*
G01X921113Y405664D02*
Y408164D01*
X921647D01*
X921860Y408039D01*
X922020Y407872D01*
X922153Y407622D01*
X922260Y407331D01*
X922287Y406914D01*
X922260Y406497D01*
X922153Y406206D01*
X922020Y405956D01*
X921860Y405789D01*
X921647Y405664D01*
X921113D01*
G01X923313Y408164D02*
Y406372D01*
X923420Y405997D01*
X923633Y405747D01*
X923900Y405664D01*
X924167Y405747D01*
X924380Y405997D01*
X924487Y406372D01*
Y408164D01*
G01X926687Y407956D02*
X926527Y408081D01*
X926340Y408164D01*
X926127D01*
X925887Y408039D01*
X925700Y407831D01*
X925567Y407581D01*
X925460Y407164D01*
X925433Y406789D01*
X925487Y406414D01*
X925567Y406164D01*
X925727Y405914D01*
X925913Y405747D01*
X926100Y405664D01*
X926287D01*
X926473Y405747D01*
X926633Y405872D01*
X926767Y406039D01*
G01X928300Y408164D02*
Y405664D01*
G01X927687Y408164D02*
X928913D01*
G01X930500Y405664D02*
X930287Y405706D01*
X930100Y405872D01*
X929940Y406122D01*
X929833Y406414D01*
X929780Y406747D01*
Y407081D01*
X929833Y407414D01*
X929940Y407706D01*
X930100Y407956D01*
X930287Y408122D01*
X930500Y408164D01*
X930713Y408122D01*
X930900Y407956D01*
X931060Y407706D01*
X931167Y407414D01*
X931220Y407081D01*
Y406747D01*
X931167Y406414D01*
X931060Y406122D01*
X930900Y405872D01*
X930713Y405706D01*
X930500Y405664D01*
G01X932167D02*
Y408164D01*
X932833D01*
X933047Y408039D01*
X933180Y407872D01*
X933233Y407539D01*
X933180Y407206D01*
X933020Y406997D01*
X932833Y406872D01*
X932167D01*
G01X932833D02*
X933233Y405664D01*
G01X976400Y279200D02*
Y479200D01*
X1673900D01*
Y279200D01*
X976400D01*
G01Y304200D02*
X1673900D01*
G01X976400Y354200D02*
X1673900D01*
G01X976400Y329200D02*
X1673900D01*
G01X976400Y379200D02*
X1673900D01*
G01X976400Y404200D02*
X1673900D01*
G01X976400Y429200D02*
X1673900D01*
G01X976400Y454200D02*
X1673900D01*
G01X987405Y410450D02*
Y422950D01*
X993295D01*
G01X991125Y416908D02*
X987405D01*
G01X1000890Y422950D02*
X1004610D01*
G01X1002750D02*
Y410450D01*
G01X1000890D02*
X1004610D01*
G01X1016080Y416700D02*
X1019180D01*
Y412950D01*
X1018250Y411700D01*
X1017165Y410867D01*
X1015615Y410450D01*
X1014065Y410867D01*
X1012980Y411700D01*
X1012050Y412950D01*
X1011430Y414408D01*
X1011120Y416075D01*
Y417533D01*
X1011430Y418783D01*
X1012050Y420242D01*
X1012980Y421492D01*
X1013910Y422325D01*
X1015150Y422950D01*
X1016235D01*
X1017475Y422533D01*
X1018405Y421700D01*
G01X1024140Y422950D02*
Y413992D01*
X1024760Y412116D01*
X1026000Y410867D01*
X1027550Y410450D01*
X1029100Y410867D01*
X1030340Y412116D01*
X1030960Y413992D01*
Y422950D01*
G01X1036850Y410450D02*
Y422950D01*
X1040725D01*
X1041965Y422325D01*
X1042740Y421492D01*
X1043050Y419825D01*
X1042740Y418158D01*
X1041810Y417117D01*
X1040725Y416492D01*
X1036850D01*
G01X1040725D02*
X1043050Y410450D01*
G01X1055450D02*
X1049250D01*
Y422950D01*
X1055450D01*
G01X1052970Y416908D02*
X1049250D01*
G01X1066300Y429200D02*
Y279200D01*
G01X1089705Y410450D02*
Y422950D01*
X1095595D01*
G01X1093425Y416908D02*
X1089705D01*
G01X1103190Y422950D02*
X1106910D01*
G01X1105050D02*
Y410450D01*
G01X1103190D02*
X1106910D01*
G01X1113885D02*
Y422950D01*
X1121015Y410450D01*
Y422950D01*
G01X1127990D02*
X1131710D01*
G01X1129850D02*
Y410450D01*
G01X1127990D02*
X1131710D01*
G01X1138995Y412116D02*
X1140235Y411075D01*
X1141630Y410450D01*
X1142870D01*
X1144110Y411075D01*
X1145040Y412116D01*
X1145505Y413575D01*
X1145195Y415033D01*
X1144420Y416283D01*
X1143025Y417117D01*
X1141165Y417533D01*
X1140080Y418367D01*
X1139615Y419825D01*
X1139925Y421283D01*
X1140700Y422325D01*
X1141785Y422950D01*
X1142870D01*
X1143955Y422533D01*
X1144885Y421492D01*
G01X1151395Y410450D02*
Y422950D01*
G01X1157905D02*
Y410450D01*
G01Y416700D02*
X1151395D01*
G01X1170150Y410450D02*
X1163950D01*
Y422950D01*
X1170150D01*
G01X1167670Y416908D02*
X1163950D01*
G01X1176040Y410450D02*
Y422950D01*
X1179140D01*
X1180380Y422325D01*
X1181310Y421492D01*
X1182085Y420242D01*
X1182705Y418783D01*
X1182860Y416700D01*
X1182705Y414617D01*
X1182085Y413158D01*
X1181310Y411908D01*
X1180380Y411075D01*
X1179140Y410450D01*
X1176040D01*
G01X1187200Y406283D02*
X1196500D01*
G01X1200995Y412116D02*
X1202235Y411075D01*
X1203630Y410450D01*
X1204870D01*
X1206110Y411075D01*
X1207040Y412116D01*
X1207505Y413575D01*
X1207195Y415033D01*
X1206420Y416283D01*
X1205025Y417117D01*
X1203165Y417533D01*
X1202080Y418367D01*
X1201615Y419825D01*
X1201925Y421283D01*
X1202700Y422325D01*
X1203785Y422950D01*
X1204870D01*
X1205955Y422533D01*
X1206885Y421492D01*
G01X1214790Y422950D02*
X1218510D01*
G01X1216650D02*
Y410450D01*
G01X1214790D02*
X1218510D01*
G01X1226105Y422950D02*
X1231995D01*
X1226105Y410450D01*
X1231995D01*
G01X1244550D02*
X1238350D01*
Y422950D01*
X1244550D01*
G01X1242070Y416908D02*
X1238350D01*
G01X1142250Y285450D02*
Y297950D01*
X1140390Y295450D01*
G01Y285450D02*
X1144110D01*
G01X1151240Y287325D02*
X1152170Y286283D01*
X1153255Y285658D01*
X1154650Y285450D01*
X1156045Y285867D01*
X1157130Y286700D01*
X1157905Y288158D01*
X1158060Y289825D01*
X1157750Y291492D01*
X1156975Y292533D01*
X1155890Y293367D01*
X1154805Y293575D01*
X1153720Y293367D01*
X1152325Y292533D01*
X1152790Y297950D01*
X1156975D01*
G01X1167050Y285450D02*
X1168135Y285658D01*
X1169375Y286283D01*
X1170150Y287325D01*
X1170460Y288783D01*
X1170150Y290241D01*
X1169220Y291492D01*
X1167825Y292117D01*
X1166275D01*
X1165345Y292533D01*
X1164570Y293575D01*
X1164260Y295033D01*
X1164725Y296492D01*
X1165810Y297533D01*
X1167050Y297950D01*
X1168290Y297533D01*
X1169375Y296492D01*
X1169840Y295033D01*
X1169530Y293575D01*
X1168755Y292533D01*
X1167825Y292117D01*
X1166275D01*
X1164880Y291492D01*
X1163950Y290241D01*
X1163640Y288783D01*
X1163950Y287325D01*
X1164725Y286283D01*
X1165965Y285658D01*
X1167050Y285450D01*
G01X1179450Y285033D02*
X1179140Y285242D01*
Y285658D01*
X1179450Y285867D01*
X1179760Y285658D01*
Y285242D01*
X1179450Y285033D01*
G01X1191850Y297950D02*
X1190610Y297533D01*
X1189680Y296492D01*
X1189060Y295242D01*
X1188595Y293575D01*
X1188440Y291700D01*
X1188595Y289825D01*
X1189060Y288158D01*
X1189680Y286908D01*
X1190610Y285867D01*
X1191850Y285450D01*
X1193090Y285867D01*
X1194020Y286908D01*
X1194640Y288158D01*
X1195105Y289825D01*
X1195260Y291700D01*
X1195105Y293575D01*
X1194640Y295242D01*
X1194020Y296492D01*
X1193090Y297533D01*
X1191850Y297950D01*
G01X1150310Y310450D02*
Y322950D01*
X1144575Y313992D01*
X1152325D01*
G01X1162710Y310450D02*
Y322950D01*
X1156975Y313992D01*
X1164725D01*
G01X1173250Y310033D02*
X1172940Y310242D01*
Y310658D01*
X1173250Y310867D01*
X1173560Y310658D01*
Y310242D01*
X1173250Y310033D01*
G01X1185650Y322950D02*
X1184410Y322533D01*
X1183480Y321492D01*
X1182860Y320242D01*
X1182395Y318575D01*
X1182240Y316700D01*
X1182395Y314825D01*
X1182860Y313158D01*
X1183480Y311908D01*
X1184410Y310867D01*
X1185650Y310450D01*
X1186890Y310867D01*
X1187820Y311908D01*
X1188440Y313158D01*
X1188905Y314825D01*
X1189060Y316700D01*
X1188905Y318575D01*
X1188440Y320242D01*
X1187820Y321492D01*
X1186890Y322533D01*
X1185650Y322950D01*
G01X1145040Y337950D02*
X1145970Y336491D01*
X1147210Y335658D01*
X1148605Y335450D01*
X1149845Y335658D01*
X1151085Y336700D01*
X1151860Y337950D01*
X1152015Y339200D01*
X1151705Y340658D01*
X1150620Y341700D01*
X1149535Y342117D01*
X1148140D01*
G01X1149535D02*
X1150465Y342742D01*
X1151240Y343783D01*
X1151550Y345033D01*
X1151240Y346283D01*
X1150465Y347325D01*
X1149070Y347950D01*
X1147675Y347742D01*
X1146280Y346908D01*
G01X1162710Y335450D02*
Y347950D01*
X1156975Y338992D01*
X1164725D01*
G01X1173250Y335033D02*
X1172940Y335242D01*
Y335658D01*
X1173250Y335867D01*
X1173560Y335658D01*
Y335242D01*
X1173250Y335033D01*
G01X1185650Y347950D02*
X1184410Y347533D01*
X1183480Y346492D01*
X1182860Y345242D01*
X1182395Y343575D01*
X1182240Y341700D01*
X1182395Y339825D01*
X1182860Y338158D01*
X1183480Y336908D01*
X1184410Y335867D01*
X1185650Y335450D01*
X1186890Y335867D01*
X1187820Y336908D01*
X1188440Y338158D01*
X1188905Y339825D01*
X1189060Y341700D01*
X1188905Y343575D01*
X1188440Y345242D01*
X1187820Y346492D01*
X1186890Y347533D01*
X1185650Y347950D01*
G01X1145040Y387950D02*
X1145970Y386491D01*
X1147210Y385658D01*
X1148605Y385450D01*
X1149845Y385658D01*
X1151085Y386700D01*
X1151860Y387950D01*
X1152015Y389200D01*
X1151705Y390658D01*
X1150620Y391700D01*
X1149535Y392117D01*
X1148140D01*
G01X1149535D02*
X1150465Y392742D01*
X1151240Y393783D01*
X1151550Y395033D01*
X1151240Y396283D01*
X1150465Y397325D01*
X1149070Y397950D01*
X1147675Y397742D01*
X1146280Y396908D01*
G01X1160850Y397950D02*
X1159610Y397533D01*
X1158680Y396492D01*
X1158060Y395242D01*
X1157595Y393575D01*
X1157440Y391700D01*
X1157595Y389825D01*
X1158060Y388158D01*
X1158680Y386908D01*
X1159610Y385867D01*
X1160850Y385450D01*
X1162090Y385867D01*
X1163020Y386908D01*
X1163640Y388158D01*
X1164105Y389825D01*
X1164260Y391700D01*
X1164105Y393575D01*
X1163640Y395242D01*
X1163020Y396492D01*
X1162090Y397533D01*
X1160850Y397950D01*
G01X1173250Y385033D02*
X1172940Y385242D01*
Y385658D01*
X1173250Y385867D01*
X1173560Y385658D01*
Y385242D01*
X1173250Y385033D01*
G01X1185650Y397950D02*
X1184410Y397533D01*
X1183480Y396492D01*
X1182860Y395242D01*
X1182395Y393575D01*
X1182240Y391700D01*
X1182395Y389825D01*
X1182860Y388158D01*
X1183480Y386908D01*
X1184410Y385867D01*
X1185650Y385450D01*
X1186890Y385867D01*
X1187820Y386908D01*
X1188440Y388158D01*
X1188905Y389825D01*
X1189060Y391700D01*
X1188905Y393575D01*
X1188440Y395242D01*
X1187820Y396492D01*
X1186890Y397533D01*
X1185650Y397950D01*
G01X1145040Y362950D02*
X1145970Y361491D01*
X1147210Y360658D01*
X1148605Y360450D01*
X1149845Y360658D01*
X1151085Y361700D01*
X1151860Y362950D01*
X1152015Y364200D01*
X1151705Y365658D01*
X1150620Y366700D01*
X1149535Y367117D01*
X1148140D01*
G01X1149535D02*
X1150465Y367742D01*
X1151240Y368783D01*
X1151550Y370033D01*
X1151240Y371283D01*
X1150465Y372325D01*
X1149070Y372950D01*
X1147675Y372742D01*
X1146280Y371908D01*
G01X1157905Y370867D02*
X1158835Y372116D01*
X1159920Y372742D01*
X1161160Y372950D01*
X1162710Y372533D01*
X1163795Y371492D01*
X1164105Y370242D01*
X1163950Y368991D01*
X1163330Y367950D01*
X1160230Y365867D01*
X1158835Y364408D01*
X1157905Y362325D01*
X1157595Y360450D01*
X1164105D01*
G01X1173250Y360033D02*
X1172940Y360242D01*
Y360658D01*
X1173250Y360867D01*
X1173560Y360658D01*
Y360242D01*
X1173250Y360033D01*
G01X1185650Y372950D02*
X1184410Y372533D01*
X1183480Y371492D01*
X1182860Y370242D01*
X1182395Y368575D01*
X1182240Y366700D01*
X1182395Y364825D01*
X1182860Y363158D01*
X1183480Y361908D01*
X1184410Y360867D01*
X1185650Y360450D01*
X1186890Y360867D01*
X1187820Y361908D01*
X1188440Y363158D01*
X1188905Y364825D01*
X1189060Y366700D01*
X1188905Y368575D01*
X1188440Y370242D01*
X1187820Y371492D01*
X1186890Y372533D01*
X1185650Y372950D01*
G01X1166740Y460450D02*
Y472950D01*
X1169840D01*
X1171080Y472325D01*
X1172010Y471492D01*
X1172785Y470242D01*
X1173405Y468783D01*
X1173560Y466700D01*
X1173405Y464617D01*
X1172785Y463158D01*
X1172010Y461908D01*
X1171080Y461075D01*
X1169840Y460450D01*
X1166740D01*
G01X1179450D02*
Y472950D01*
X1183325D01*
X1184565Y472325D01*
X1185340Y471492D01*
X1185650Y469825D01*
X1185340Y468158D01*
X1184410Y467117D01*
X1183325Y466492D01*
X1179450D01*
G01X1183325D02*
X1185650Y460450D01*
G01X1193090Y472950D02*
X1196810D01*
G01X1194950D02*
Y460450D01*
G01X1193090D02*
X1196810D01*
G01X1204250Y472950D02*
Y460450D01*
X1210450D01*
G01X1216650Y472950D02*
Y460450D01*
X1222850D01*
G01X1247960Y471908D02*
X1247030Y472533D01*
X1245945Y472950D01*
X1244705D01*
X1243310Y472325D01*
X1242225Y471283D01*
X1241450Y470033D01*
X1240830Y467950D01*
X1240675Y466075D01*
X1240985Y464200D01*
X1241450Y462950D01*
X1242380Y461700D01*
X1243465Y460867D01*
X1244550Y460450D01*
X1245635D01*
X1246720Y460867D01*
X1247650Y461491D01*
X1248425Y462325D01*
G01X1253695Y460450D02*
Y472950D01*
G01X1260205D02*
Y460450D01*
G01Y466700D02*
X1253695D01*
G01X1265475Y460450D02*
X1269350Y472950D01*
X1273225Y460450D01*
G01X1271830Y464825D02*
X1266870D01*
G01X1278650Y460450D02*
Y472950D01*
X1282525D01*
X1283765Y472325D01*
X1284540Y471492D01*
X1284850Y469825D01*
X1284540Y468158D01*
X1283610Y467117D01*
X1282525Y466492D01*
X1278650D01*
G01X1282525D02*
X1284850Y460450D01*
G01X1294150Y472950D02*
Y460450D01*
G01X1290585Y472950D02*
X1297715D01*
G01X1306550Y460033D02*
X1306240Y460242D01*
Y460658D01*
X1306550Y460867D01*
X1306860Y460658D01*
Y460242D01*
X1306550Y460033D01*
G01Y465658D02*
X1306240Y465867D01*
Y466283D01*
X1306550Y466492D01*
X1306860Y466283D01*
Y465867D01*
X1306550Y465658D01*
G01X1331350Y472950D02*
Y460450D01*
G01X1327785Y472950D02*
X1334915D01*
G01X1343750Y460450D02*
X1342510Y460658D01*
X1341425Y461491D01*
X1340495Y462742D01*
X1339875Y464200D01*
X1339565Y465867D01*
Y467533D01*
X1339875Y469200D01*
X1340495Y470658D01*
X1341425Y471908D01*
X1342510Y472742D01*
X1343750Y472950D01*
X1344990Y472742D01*
X1346075Y471908D01*
X1347005Y470658D01*
X1347625Y469200D01*
X1347935Y467533D01*
Y465867D01*
X1347625Y464200D01*
X1347005Y462742D01*
X1346075Y461491D01*
X1344990Y460658D01*
X1343750Y460450D01*
G01X1353050D02*
Y472950D01*
X1356770D01*
X1358010Y472325D01*
X1358940Y470867D01*
X1359250Y469200D01*
X1358940Y467533D01*
X1358165Y466283D01*
X1356770Y465658D01*
X1353050D01*
G01X1380950Y472950D02*
Y460450D01*
G01X1378780Y468783D02*
X1383120D01*
G01X1393350Y460450D02*
X1392420Y460658D01*
X1391490Y461491D01*
X1390870Y462950D01*
X1390560Y464617D01*
X1390870Y466283D01*
X1391490Y467742D01*
X1392420Y468575D01*
X1393350Y468783D01*
X1394280Y468575D01*
X1395210Y467742D01*
X1395830Y466283D01*
X1395985Y464617D01*
X1395830Y462950D01*
X1395210Y461491D01*
X1394280Y460658D01*
X1393350Y460450D01*
G01X1419390Y467117D02*
X1420010Y467742D01*
X1420475Y468783D01*
X1420785Y470242D01*
X1420475Y471492D01*
X1419855Y472325D01*
X1418770Y472950D01*
X1414585D01*
Y460450D01*
X1419700D01*
X1420785Y461283D01*
X1421405Y462533D01*
X1421715Y463992D01*
X1421405Y465450D01*
X1420475Y466700D01*
X1419390Y467117D01*
X1414585D01*
G01X1430550Y460450D02*
X1429310Y460658D01*
X1428225Y461491D01*
X1427295Y462742D01*
X1426675Y464200D01*
X1426365Y465867D01*
Y467533D01*
X1426675Y469200D01*
X1427295Y470658D01*
X1428225Y471908D01*
X1429310Y472742D01*
X1430550Y472950D01*
X1431790Y472742D01*
X1432875Y471908D01*
X1433805Y470658D01*
X1434425Y469200D01*
X1434735Y467533D01*
Y465867D01*
X1434425Y464200D01*
X1433805Y462742D01*
X1432875Y461491D01*
X1431790Y460658D01*
X1430550Y460450D01*
G01X1442950Y472950D02*
Y460450D01*
G01X1439385Y472950D02*
X1446515D01*
G01X1455350D02*
Y460450D01*
G01X1451785Y472950D02*
X1458915D01*
G01X1467750Y460450D02*
X1466510Y460658D01*
X1465425Y461491D01*
X1464495Y462742D01*
X1463875Y464200D01*
X1463565Y465867D01*
Y467533D01*
X1463875Y469200D01*
X1464495Y470658D01*
X1465425Y471908D01*
X1466510Y472742D01*
X1467750Y472950D01*
X1468990Y472742D01*
X1470075Y471908D01*
X1471005Y470658D01*
X1471625Y469200D01*
X1471935Y467533D01*
Y465867D01*
X1471625Y464200D01*
X1471005Y462742D01*
X1470075Y461491D01*
X1468990Y460658D01*
X1467750Y460450D01*
G01X1476120D02*
Y472950D01*
X1480150Y462533D01*
X1484180Y472950D01*
Y460450D01*
G01X1197275Y435450D02*
X1201150Y447950D01*
X1205025Y435450D01*
G01X1203630Y439825D02*
X1198670D01*
G01X1210450Y447950D02*
Y435450D01*
X1216650D01*
G01X1222850Y447950D02*
Y435450D01*
X1229050D01*
G01X1247340Y447950D02*
Y438992D01*
X1247960Y437116D01*
X1249200Y435867D01*
X1250750Y435450D01*
X1252300Y435867D01*
X1253540Y437116D01*
X1254160Y438992D01*
Y447950D01*
G01X1259585Y435450D02*
Y447950D01*
X1266715Y435450D01*
Y447950D01*
G01X1273690D02*
X1277410D01*
G01X1275550D02*
Y435450D01*
G01X1273690D02*
X1277410D01*
G01X1287950Y447950D02*
Y435450D01*
G01X1284385Y447950D02*
X1291515D01*
G01X1297095Y437116D02*
X1298335Y436075D01*
X1299730Y435450D01*
X1300970D01*
X1302210Y436075D01*
X1303140Y437116D01*
X1303605Y438575D01*
X1303295Y440033D01*
X1302520Y441283D01*
X1301125Y442117D01*
X1299265Y442533D01*
X1298180Y443367D01*
X1297715Y444825D01*
X1298025Y446283D01*
X1298800Y447325D01*
X1299885Y447950D01*
X1300970D01*
X1302055Y447533D01*
X1302985Y446492D01*
G01X1321275Y435450D02*
X1325150Y447950D01*
X1329025Y435450D01*
G01X1327630Y439825D02*
X1322670D01*
G01X1334450Y435450D02*
Y447950D01*
X1338325D01*
X1339565Y447325D01*
X1340340Y446492D01*
X1340650Y444825D01*
X1340340Y443158D01*
X1339410Y442117D01*
X1338325Y441492D01*
X1334450D01*
G01X1338325D02*
X1340650Y435450D01*
G01X1353050D02*
X1346850D01*
Y447950D01*
X1353050D01*
G01X1350570Y441908D02*
X1346850D01*
G01X1372890Y447950D02*
X1376610D01*
G01X1374750D02*
Y435450D01*
G01X1372890D02*
X1376610D01*
G01X1383585D02*
Y447950D01*
X1390715Y435450D01*
Y447950D01*
G01X1407920Y435450D02*
Y447950D01*
X1411950Y437533D01*
X1415980Y447950D01*
Y435450D01*
G01X1422490Y447950D02*
X1426210D01*
G01X1424350D02*
Y435450D01*
G01X1422490D02*
X1426210D01*
G01X1433650Y447950D02*
Y435450D01*
X1439850D01*
G01X1445895Y437116D02*
X1447135Y436075D01*
X1448530Y435450D01*
X1449770D01*
X1451010Y436075D01*
X1451940Y437116D01*
X1452405Y438575D01*
X1452095Y440033D01*
X1451320Y441283D01*
X1449925Y442117D01*
X1448065Y442533D01*
X1446980Y443367D01*
X1446515Y444825D01*
X1446825Y446283D01*
X1447600Y447325D01*
X1448685Y447950D01*
X1449770D01*
X1450855Y447533D01*
X1451785Y446492D01*
G01X1267800Y429200D02*
Y279200D01*
G01X1281750Y422950D02*
Y410450D01*
G01X1278185Y422950D02*
X1285315D01*
G01X1294150Y410450D02*
X1292910Y410658D01*
X1291825Y411491D01*
X1290895Y412742D01*
X1290275Y414200D01*
X1289965Y415867D01*
Y417533D01*
X1290275Y419200D01*
X1290895Y420658D01*
X1291825Y421908D01*
X1292910Y422742D01*
X1294150Y422950D01*
X1295390Y422742D01*
X1296475Y421908D01*
X1297405Y420658D01*
X1298025Y419200D01*
X1298335Y417533D01*
Y415867D01*
X1298025Y414200D01*
X1297405Y412742D01*
X1296475Y411491D01*
X1295390Y410658D01*
X1294150Y410450D01*
G01X1303450Y422950D02*
Y410450D01*
X1309650D01*
G01X1322050D02*
X1315850D01*
Y422950D01*
X1322050D01*
G01X1319570Y416908D02*
X1315850D01*
G01X1328250Y410450D02*
Y422950D01*
X1332125D01*
X1333365Y422325D01*
X1334140Y421492D01*
X1334450Y419825D01*
X1334140Y418158D01*
X1333210Y417117D01*
X1332125Y416492D01*
X1328250D01*
G01X1332125D02*
X1334450Y410450D01*
G01X1339875D02*
X1343750Y422950D01*
X1347625Y410450D01*
G01X1346230Y414825D02*
X1341270D01*
G01X1352585Y410450D02*
Y422950D01*
X1359715Y410450D01*
Y422950D01*
G01X1371960Y421908D02*
X1371030Y422533D01*
X1369945Y422950D01*
X1368705D01*
X1367310Y422325D01*
X1366225Y421283D01*
X1365450Y420033D01*
X1364830Y417950D01*
X1364675Y416075D01*
X1364985Y414200D01*
X1365450Y412950D01*
X1366380Y411700D01*
X1367465Y410867D01*
X1368550Y410450D01*
X1369635D01*
X1370720Y410867D01*
X1371650Y411491D01*
X1372425Y412325D01*
G01X1384050Y410450D02*
X1377850D01*
Y422950D01*
X1384050D01*
G01X1381570Y416908D02*
X1377850D01*
G01X1388700Y406283D02*
X1398000D01*
G01X1402340Y410450D02*
Y422950D01*
X1405440D01*
X1406680Y422325D01*
X1407610Y421492D01*
X1408385Y420242D01*
X1409005Y418783D01*
X1409160Y416700D01*
X1409005Y414617D01*
X1408385Y413158D01*
X1407610Y411908D01*
X1406680Y411075D01*
X1405440Y410450D01*
X1402340D01*
G01X1415050D02*
Y422950D01*
X1418925D01*
X1420165Y422325D01*
X1420940Y421492D01*
X1421250Y419825D01*
X1420940Y418158D01*
X1420010Y417117D01*
X1418925Y416492D01*
X1415050D01*
G01X1418925D02*
X1421250Y410450D01*
G01X1428690Y422950D02*
X1432410D01*
G01X1430550D02*
Y410450D01*
G01X1428690D02*
X1432410D01*
G01X1439850Y422950D02*
Y410450D01*
X1446050D01*
G01X1452250Y422950D02*
Y410450D01*
X1458450D01*
G01X1317245Y289617D02*
X1320965D01*
G01X1318950Y292325D02*
Y286908D01*
G01X1328405Y295867D02*
X1329335Y297116D01*
X1330420Y297742D01*
X1331660Y297950D01*
X1333210Y297533D01*
X1334295Y296492D01*
X1334605Y295242D01*
X1334450Y293991D01*
X1333830Y292950D01*
X1330730Y290867D01*
X1329335Y289408D01*
X1328405Y287325D01*
X1328095Y285450D01*
X1334605D01*
G01X1343750Y285033D02*
X1343440Y285242D01*
Y285658D01*
X1343750Y285867D01*
X1344060Y285658D01*
Y285242D01*
X1343750Y285033D01*
G01X1356150Y297950D02*
X1354910Y297533D01*
X1353980Y296492D01*
X1353360Y295242D01*
X1352895Y293575D01*
X1352740Y291700D01*
X1352895Y289825D01*
X1353360Y288158D01*
X1353980Y286908D01*
X1354910Y285867D01*
X1356150Y285450D01*
X1357390Y285867D01*
X1358320Y286908D01*
X1358940Y288158D01*
X1359405Y289825D01*
X1359560Y291700D01*
X1359405Y293575D01*
X1358940Y295242D01*
X1358320Y296492D01*
X1357390Y297533D01*
X1356150Y297950D01*
G01X1365760Y285033D02*
X1371340Y297950D01*
G01X1378935Y289617D02*
X1382965D01*
G01X1390405Y295867D02*
X1391335Y297116D01*
X1392420Y297742D01*
X1393660Y297950D01*
X1395210Y297533D01*
X1396295Y296492D01*
X1396605Y295242D01*
X1396450Y293991D01*
X1395830Y292950D01*
X1392730Y290867D01*
X1391335Y289408D01*
X1390405Y287325D01*
X1390095Y285450D01*
X1396605D01*
G01X1405750Y285033D02*
X1405440Y285242D01*
Y285658D01*
X1405750Y285867D01*
X1406060Y285658D01*
Y285242D01*
X1405750Y285033D01*
G01X1418150Y297950D02*
X1416910Y297533D01*
X1415980Y296492D01*
X1415360Y295242D01*
X1414895Y293575D01*
X1414740Y291700D01*
X1414895Y289825D01*
X1415360Y288158D01*
X1415980Y286908D01*
X1416910Y285867D01*
X1418150Y285450D01*
X1419390Y285867D01*
X1420320Y286908D01*
X1420940Y288158D01*
X1421405Y289825D01*
X1421560Y291700D01*
X1421405Y293575D01*
X1420940Y295242D01*
X1420320Y296492D01*
X1419390Y297533D01*
X1418150Y297950D01*
G01X1317245Y314617D02*
X1320965D01*
G01X1318950Y317325D02*
Y311908D01*
G01X1327940Y312950D02*
X1328870Y311491D01*
X1330110Y310658D01*
X1331505Y310450D01*
X1332745Y310658D01*
X1333985Y311700D01*
X1334760Y312950D01*
X1334915Y314200D01*
X1334605Y315658D01*
X1333520Y316700D01*
X1332435Y317117D01*
X1331040D01*
G01X1332435D02*
X1333365Y317742D01*
X1334140Y318783D01*
X1334450Y320033D01*
X1334140Y321283D01*
X1333365Y322325D01*
X1331970Y322950D01*
X1330575Y322742D01*
X1329180Y321908D01*
G01X1343750Y310033D02*
X1343440Y310242D01*
Y310658D01*
X1343750Y310867D01*
X1344060Y310658D01*
Y310242D01*
X1343750Y310033D01*
G01X1356150Y322950D02*
X1354910Y322533D01*
X1353980Y321492D01*
X1353360Y320242D01*
X1352895Y318575D01*
X1352740Y316700D01*
X1352895Y314825D01*
X1353360Y313158D01*
X1353980Y311908D01*
X1354910Y310867D01*
X1356150Y310450D01*
X1357390Y310867D01*
X1358320Y311908D01*
X1358940Y313158D01*
X1359405Y314825D01*
X1359560Y316700D01*
X1359405Y318575D01*
X1358940Y320242D01*
X1358320Y321492D01*
X1357390Y322533D01*
X1356150Y322950D01*
G01X1365760Y310033D02*
X1371340Y322950D01*
G01X1378935Y314617D02*
X1382965D01*
G01X1389940Y312950D02*
X1390870Y311491D01*
X1392110Y310658D01*
X1393505Y310450D01*
X1394745Y310658D01*
X1395985Y311700D01*
X1396760Y312950D01*
X1396915Y314200D01*
X1396605Y315658D01*
X1395520Y316700D01*
X1394435Y317117D01*
X1393040D01*
G01X1394435D02*
X1395365Y317742D01*
X1396140Y318783D01*
X1396450Y320033D01*
X1396140Y321283D01*
X1395365Y322325D01*
X1393970Y322950D01*
X1392575Y322742D01*
X1391180Y321908D01*
G01X1405750Y310033D02*
X1405440Y310242D01*
Y310658D01*
X1405750Y310867D01*
X1406060Y310658D01*
Y310242D01*
X1405750Y310033D01*
G01X1418150Y322950D02*
X1416910Y322533D01*
X1415980Y321492D01*
X1415360Y320242D01*
X1414895Y318575D01*
X1414740Y316700D01*
X1414895Y314825D01*
X1415360Y313158D01*
X1415980Y311908D01*
X1416910Y310867D01*
X1418150Y310450D01*
X1419390Y310867D01*
X1420320Y311908D01*
X1420940Y313158D01*
X1421405Y314825D01*
X1421560Y316700D01*
X1421405Y318575D01*
X1420940Y320242D01*
X1420320Y321492D01*
X1419390Y322533D01*
X1418150Y322950D01*
G01X1317245Y339617D02*
X1320965D01*
G01X1318950Y342325D02*
Y336908D01*
G01X1327940Y337950D02*
X1328870Y336491D01*
X1330110Y335658D01*
X1331505Y335450D01*
X1332745Y335658D01*
X1333985Y336700D01*
X1334760Y337950D01*
X1334915Y339200D01*
X1334605Y340658D01*
X1333520Y341700D01*
X1332435Y342117D01*
X1331040D01*
G01X1332435D02*
X1333365Y342742D01*
X1334140Y343783D01*
X1334450Y345033D01*
X1334140Y346283D01*
X1333365Y347325D01*
X1331970Y347950D01*
X1330575Y347742D01*
X1329180Y346908D01*
G01X1343750Y335033D02*
X1343440Y335242D01*
Y335658D01*
X1343750Y335867D01*
X1344060Y335658D01*
Y335242D01*
X1343750Y335033D01*
G01X1356150Y347950D02*
X1354910Y347533D01*
X1353980Y346492D01*
X1353360Y345242D01*
X1352895Y343575D01*
X1352740Y341700D01*
X1352895Y339825D01*
X1353360Y338158D01*
X1353980Y336908D01*
X1354910Y335867D01*
X1356150Y335450D01*
X1357390Y335867D01*
X1358320Y336908D01*
X1358940Y338158D01*
X1359405Y339825D01*
X1359560Y341700D01*
X1359405Y343575D01*
X1358940Y345242D01*
X1358320Y346492D01*
X1357390Y347533D01*
X1356150Y347950D01*
G01X1365760Y335033D02*
X1371340Y347950D01*
G01X1378935Y339617D02*
X1382965D01*
G01X1389940Y337950D02*
X1390870Y336491D01*
X1392110Y335658D01*
X1393505Y335450D01*
X1394745Y335658D01*
X1395985Y336700D01*
X1396760Y337950D01*
X1396915Y339200D01*
X1396605Y340658D01*
X1395520Y341700D01*
X1394435Y342117D01*
X1393040D01*
G01X1394435D02*
X1395365Y342742D01*
X1396140Y343783D01*
X1396450Y345033D01*
X1396140Y346283D01*
X1395365Y347325D01*
X1393970Y347950D01*
X1392575Y347742D01*
X1391180Y346908D01*
G01X1405750Y335033D02*
X1405440Y335242D01*
Y335658D01*
X1405750Y335867D01*
X1406060Y335658D01*
Y335242D01*
X1405750Y335033D01*
G01X1418150Y347950D02*
X1416910Y347533D01*
X1415980Y346492D01*
X1415360Y345242D01*
X1414895Y343575D01*
X1414740Y341700D01*
X1414895Y339825D01*
X1415360Y338158D01*
X1415980Y336908D01*
X1416910Y335867D01*
X1418150Y335450D01*
X1419390Y335867D01*
X1420320Y336908D01*
X1420940Y338158D01*
X1421405Y339825D01*
X1421560Y341700D01*
X1421405Y343575D01*
X1420940Y345242D01*
X1420320Y346492D01*
X1419390Y347533D01*
X1418150Y347950D01*
G01X1317245Y389617D02*
X1320965D01*
G01X1318950Y392325D02*
Y386908D01*
G01X1327940Y387950D02*
X1328870Y386491D01*
X1330110Y385658D01*
X1331505Y385450D01*
X1332745Y385658D01*
X1333985Y386700D01*
X1334760Y387950D01*
X1334915Y389200D01*
X1334605Y390658D01*
X1333520Y391700D01*
X1332435Y392117D01*
X1331040D01*
G01X1332435D02*
X1333365Y392742D01*
X1334140Y393783D01*
X1334450Y395033D01*
X1334140Y396283D01*
X1333365Y397325D01*
X1331970Y397950D01*
X1330575Y397742D01*
X1329180Y396908D01*
G01X1343750Y385033D02*
X1343440Y385242D01*
Y385658D01*
X1343750Y385867D01*
X1344060Y385658D01*
Y385242D01*
X1343750Y385033D01*
G01X1356150Y397950D02*
X1354910Y397533D01*
X1353980Y396492D01*
X1353360Y395242D01*
X1352895Y393575D01*
X1352740Y391700D01*
X1352895Y389825D01*
X1353360Y388158D01*
X1353980Y386908D01*
X1354910Y385867D01*
X1356150Y385450D01*
X1357390Y385867D01*
X1358320Y386908D01*
X1358940Y388158D01*
X1359405Y389825D01*
X1359560Y391700D01*
X1359405Y393575D01*
X1358940Y395242D01*
X1358320Y396492D01*
X1357390Y397533D01*
X1356150Y397950D01*
G01X1365760Y385033D02*
X1371340Y397950D01*
G01X1378935Y389617D02*
X1382965D01*
G01X1389940Y387950D02*
X1390870Y386491D01*
X1392110Y385658D01*
X1393505Y385450D01*
X1394745Y385658D01*
X1395985Y386700D01*
X1396760Y387950D01*
X1396915Y389200D01*
X1396605Y390658D01*
X1395520Y391700D01*
X1394435Y392117D01*
X1393040D01*
G01X1394435D02*
X1395365Y392742D01*
X1396140Y393783D01*
X1396450Y395033D01*
X1396140Y396283D01*
X1395365Y397325D01*
X1393970Y397950D01*
X1392575Y397742D01*
X1391180Y396908D01*
G01X1405750Y385033D02*
X1405440Y385242D01*
Y385658D01*
X1405750Y385867D01*
X1406060Y385658D01*
Y385242D01*
X1405750Y385033D01*
G01X1418150Y397950D02*
X1416910Y397533D01*
X1415980Y396492D01*
X1415360Y395242D01*
X1414895Y393575D01*
X1414740Y391700D01*
X1414895Y389825D01*
X1415360Y388158D01*
X1415980Y386908D01*
X1416910Y385867D01*
X1418150Y385450D01*
X1419390Y385867D01*
X1420320Y386908D01*
X1420940Y388158D01*
X1421405Y389825D01*
X1421560Y391700D01*
X1421405Y393575D01*
X1420940Y395242D01*
X1420320Y396492D01*
X1419390Y397533D01*
X1418150Y397950D01*
G01X1317245Y364617D02*
X1320965D01*
G01X1318950Y367325D02*
Y361908D01*
G01X1327940Y362950D02*
X1328870Y361491D01*
X1330110Y360658D01*
X1331505Y360450D01*
X1332745Y360658D01*
X1333985Y361700D01*
X1334760Y362950D01*
X1334915Y364200D01*
X1334605Y365658D01*
X1333520Y366700D01*
X1332435Y367117D01*
X1331040D01*
G01X1332435D02*
X1333365Y367742D01*
X1334140Y368783D01*
X1334450Y370033D01*
X1334140Y371283D01*
X1333365Y372325D01*
X1331970Y372950D01*
X1330575Y372742D01*
X1329180Y371908D01*
G01X1343750Y360033D02*
X1343440Y360242D01*
Y360658D01*
X1343750Y360867D01*
X1344060Y360658D01*
Y360242D01*
X1343750Y360033D01*
G01X1356150Y372950D02*
X1354910Y372533D01*
X1353980Y371492D01*
X1353360Y370242D01*
X1352895Y368575D01*
X1352740Y366700D01*
X1352895Y364825D01*
X1353360Y363158D01*
X1353980Y361908D01*
X1354910Y360867D01*
X1356150Y360450D01*
X1357390Y360867D01*
X1358320Y361908D01*
X1358940Y363158D01*
X1359405Y364825D01*
X1359560Y366700D01*
X1359405Y368575D01*
X1358940Y370242D01*
X1358320Y371492D01*
X1357390Y372533D01*
X1356150Y372950D01*
G01X1365760Y360033D02*
X1371340Y372950D01*
G01X1378935Y364617D02*
X1382965D01*
G01X1389940Y362950D02*
X1390870Y361491D01*
X1392110Y360658D01*
X1393505Y360450D01*
X1394745Y360658D01*
X1395985Y361700D01*
X1396760Y362950D01*
X1396915Y364200D01*
X1396605Y365658D01*
X1395520Y366700D01*
X1394435Y367117D01*
X1393040D01*
G01X1394435D02*
X1395365Y367742D01*
X1396140Y368783D01*
X1396450Y370033D01*
X1396140Y371283D01*
X1395365Y372325D01*
X1393970Y372950D01*
X1392575Y372742D01*
X1391180Y371908D01*
G01X1405750Y360033D02*
X1405440Y360242D01*
Y360658D01*
X1405750Y360867D01*
X1406060Y360658D01*
Y360242D01*
X1405750Y360033D01*
G01X1418150Y372950D02*
X1416910Y372533D01*
X1415980Y371492D01*
X1415360Y370242D01*
X1414895Y368575D01*
X1414740Y366700D01*
X1414895Y364825D01*
X1415360Y363158D01*
X1415980Y361908D01*
X1416910Y360867D01*
X1418150Y360450D01*
X1419390Y360867D01*
X1420320Y361908D01*
X1420940Y363158D01*
X1421405Y364825D01*
X1421560Y366700D01*
X1421405Y368575D01*
X1420940Y370242D01*
X1420320Y371492D01*
X1419390Y372533D01*
X1418150Y372950D01*
G01X1442850Y272950D02*
Y260450D01*
G01X1439285Y272950D02*
X1446415D01*
G01X1455250Y260450D02*
X1454010Y260658D01*
X1452925Y261491D01*
X1451995Y262742D01*
X1451375Y264200D01*
X1451065Y265867D01*
Y267533D01*
X1451375Y269200D01*
X1451995Y270658D01*
X1452925Y271908D01*
X1454010Y272742D01*
X1455250Y272950D01*
X1456490Y272742D01*
X1457575Y271908D01*
X1458505Y270658D01*
X1459125Y269200D01*
X1459435Y267533D01*
Y265867D01*
X1459125Y264200D01*
X1458505Y262742D01*
X1457575Y261491D01*
X1456490Y260658D01*
X1455250Y260450D01*
G01X1467650Y272950D02*
Y260450D01*
G01X1464085Y272950D02*
X1471215D01*
G01X1476175Y260450D02*
X1480050Y272950D01*
X1483925Y260450D01*
G01X1482530Y264825D02*
X1477570D01*
G01X1489350Y272950D02*
Y260450D01*
X1495550D01*
G01X1513995D02*
Y272950D01*
G01X1520505D02*
Y260450D01*
G01Y266700D02*
X1513995D01*
G01X1529650Y260450D02*
X1528410Y260658D01*
X1527325Y261491D01*
X1526395Y262742D01*
X1525775Y264200D01*
X1525465Y265867D01*
Y267533D01*
X1525775Y269200D01*
X1526395Y270658D01*
X1527325Y271908D01*
X1528410Y272742D01*
X1529650Y272950D01*
X1530890Y272742D01*
X1531975Y271908D01*
X1532905Y270658D01*
X1533525Y269200D01*
X1533835Y267533D01*
Y265867D01*
X1533525Y264200D01*
X1532905Y262742D01*
X1531975Y261491D01*
X1530890Y260658D01*
X1529650Y260450D01*
G01X1538950Y272950D02*
Y260450D01*
X1545150D01*
G01X1557550D02*
X1551350D01*
Y272950D01*
X1557550D01*
G01X1555070Y266908D02*
X1551350D01*
G01X1563595Y262116D02*
X1564835Y261075D01*
X1566230Y260450D01*
X1567470D01*
X1568710Y261075D01*
X1569640Y262116D01*
X1570105Y263575D01*
X1569795Y265033D01*
X1569020Y266283D01*
X1567625Y267117D01*
X1565765Y267533D01*
X1564680Y268367D01*
X1564215Y269825D01*
X1564525Y271283D01*
X1565300Y272325D01*
X1566385Y272950D01*
X1567470D01*
X1568555Y272533D01*
X1569485Y271492D01*
G01X1579250Y260033D02*
X1578940Y260242D01*
Y260658D01*
X1579250Y260867D01*
X1579560Y260658D01*
Y260242D01*
X1579250Y260033D01*
G01Y265658D02*
X1578940Y265867D01*
Y266283D01*
X1579250Y266492D01*
X1579560Y266283D01*
Y265867D01*
X1579250Y265658D01*
G01X1473485Y285450D02*
Y297950D01*
X1480615Y285450D01*
Y297950D01*
G01X1489450Y285450D02*
X1488210Y285658D01*
X1487125Y286491D01*
X1486195Y287742D01*
X1485575Y289200D01*
X1485265Y290867D01*
Y292533D01*
X1485575Y294200D01*
X1486195Y295658D01*
X1487125Y296908D01*
X1488210Y297742D01*
X1489450Y297950D01*
X1490690Y297742D01*
X1491775Y296908D01*
X1492705Y295658D01*
X1493325Y294200D01*
X1493635Y292533D01*
Y290867D01*
X1493325Y289200D01*
X1492705Y287742D01*
X1491775Y286491D01*
X1490690Y285658D01*
X1489450Y285450D01*
G01X1498285D02*
Y297950D01*
X1505415Y285450D01*
Y297950D01*
G01X1512235Y289617D02*
X1516265D01*
G01X1523550Y285450D02*
Y297950D01*
X1527270D01*
X1528510Y297325D01*
X1529440Y295867D01*
X1529750Y294200D01*
X1529440Y292533D01*
X1528665Y291283D01*
X1527270Y290658D01*
X1523550D01*
G01X1535950Y297950D02*
Y285450D01*
X1542150D01*
G01X1547575D02*
X1551450Y297950D01*
X1555325Y285450D01*
G01X1553930Y289825D02*
X1548970D01*
G01X1563850Y297950D02*
Y285450D01*
G01X1560285Y297950D02*
X1567415D01*
G01X1579350Y285450D02*
X1573150D01*
Y297950D01*
X1579350D01*
G01X1576870Y291908D02*
X1573150D01*
G01X1585240Y285450D02*
Y297950D01*
X1588340D01*
X1589580Y297325D01*
X1590510Y296492D01*
X1591285Y295242D01*
X1591905Y293783D01*
X1592060Y291700D01*
X1591905Y289617D01*
X1591285Y288158D01*
X1590510Y286908D01*
X1589580Y286075D01*
X1588340Y285450D01*
X1585240D01*
G01X1469300Y429200D02*
Y279200D01*
G01X1498750Y310450D02*
Y322950D01*
X1502470D01*
X1503710Y322325D01*
X1504640Y320867D01*
X1504950Y319200D01*
X1504640Y317533D01*
X1503865Y316283D01*
X1502470Y315658D01*
X1498750D01*
G01X1511150Y322950D02*
Y310450D01*
X1517350D01*
G01X1522775D02*
X1526650Y322950D01*
X1530525Y310450D01*
G01X1529130Y314825D02*
X1524170D01*
G01X1539050Y322950D02*
Y310450D01*
G01X1535485Y322950D02*
X1542615D01*
G01X1554550Y310450D02*
X1548350D01*
Y322950D01*
X1554550D01*
G01X1552070Y316908D02*
X1548350D01*
G01X1560440Y310450D02*
Y322950D01*
X1563540D01*
X1564780Y322325D01*
X1565710Y321492D01*
X1566485Y320242D01*
X1567105Y318783D01*
X1567260Y316700D01*
X1567105Y314617D01*
X1566485Y313158D01*
X1565710Y311908D01*
X1564780Y311075D01*
X1563540Y310450D01*
X1560440D01*
G01X1498750Y335450D02*
Y347950D01*
X1502470D01*
X1503710Y347325D01*
X1504640Y345867D01*
X1504950Y344200D01*
X1504640Y342533D01*
X1503865Y341283D01*
X1502470Y340658D01*
X1498750D01*
G01X1511150Y347950D02*
Y335450D01*
X1517350D01*
G01X1522775D02*
X1526650Y347950D01*
X1530525Y335450D01*
G01X1529130Y339825D02*
X1524170D01*
G01X1539050Y347950D02*
Y335450D01*
G01X1535485Y347950D02*
X1542615D01*
G01X1554550Y335450D02*
X1548350D01*
Y347950D01*
X1554550D01*
G01X1552070Y341908D02*
X1548350D01*
G01X1560440Y335450D02*
Y347950D01*
X1563540D01*
X1564780Y347325D01*
X1565710Y346492D01*
X1566485Y345242D01*
X1567105Y343783D01*
X1567260Y341700D01*
X1567105Y339617D01*
X1566485Y338158D01*
X1565710Y336908D01*
X1564780Y336075D01*
X1563540Y335450D01*
X1560440D01*
G01X1498750Y385450D02*
Y397950D01*
X1502470D01*
X1503710Y397325D01*
X1504640Y395867D01*
X1504950Y394200D01*
X1504640Y392533D01*
X1503865Y391283D01*
X1502470Y390658D01*
X1498750D01*
G01X1511150Y397950D02*
Y385450D01*
X1517350D01*
G01X1522775D02*
X1526650Y397950D01*
X1530525Y385450D01*
G01X1529130Y389825D02*
X1524170D01*
G01X1539050Y397950D02*
Y385450D01*
G01X1535485Y397950D02*
X1542615D01*
G01X1554550Y385450D02*
X1548350D01*
Y397950D01*
X1554550D01*
G01X1552070Y391908D02*
X1548350D01*
G01X1560440Y385450D02*
Y397950D01*
X1563540D01*
X1564780Y397325D01*
X1565710Y396492D01*
X1566485Y395242D01*
X1567105Y393783D01*
X1567260Y391700D01*
X1567105Y389617D01*
X1566485Y388158D01*
X1565710Y386908D01*
X1564780Y386075D01*
X1563540Y385450D01*
X1560440D01*
G01X1498750Y360450D02*
Y372950D01*
X1502470D01*
X1503710Y372325D01*
X1504640Y370867D01*
X1504950Y369200D01*
X1504640Y367533D01*
X1503865Y366283D01*
X1502470Y365658D01*
X1498750D01*
G01X1511150Y372950D02*
Y360450D01*
X1517350D01*
G01X1522775D02*
X1526650Y372950D01*
X1530525Y360450D01*
G01X1529130Y364825D02*
X1524170D01*
G01X1539050Y372950D02*
Y360450D01*
G01X1535485Y372950D02*
X1542615D01*
G01X1554550Y360450D02*
X1548350D01*
Y372950D01*
X1554550D01*
G01X1552070Y366908D02*
X1548350D01*
G01X1560440Y360450D02*
Y372950D01*
X1563540D01*
X1564780Y372325D01*
X1565710Y371492D01*
X1566485Y370242D01*
X1567105Y368783D01*
X1567260Y366700D01*
X1567105Y364617D01*
X1566485Y363158D01*
X1565710Y361908D01*
X1564780Y361075D01*
X1563540Y360450D01*
X1560440D01*
G01X1498750Y410450D02*
Y422950D01*
X1502470D01*
X1503710Y422325D01*
X1504640Y420867D01*
X1504950Y419200D01*
X1504640Y417533D01*
X1503865Y416283D01*
X1502470Y415658D01*
X1498750D01*
G01X1511150Y422950D02*
Y410450D01*
X1517350D01*
G01X1522775D02*
X1526650Y422950D01*
X1530525Y410450D01*
G01X1529130Y414825D02*
X1524170D01*
G01X1539050Y422950D02*
Y410450D01*
G01X1535485Y422950D02*
X1542615D01*
G01X1554550Y410450D02*
X1548350D01*
Y422950D01*
X1554550D01*
G01X1552070Y416908D02*
X1548350D01*
G01X1560440Y410450D02*
Y422950D01*
X1563540D01*
X1564780Y422325D01*
X1565710Y421492D01*
X1566485Y420242D01*
X1567105Y418783D01*
X1567260Y416700D01*
X1567105Y414617D01*
X1566485Y413158D01*
X1565710Y411908D01*
X1564780Y411075D01*
X1563540Y410450D01*
X1560440D01*
G01X1596400Y429200D02*
Y279200D01*
G01X1619805Y270867D02*
X1620735Y272116D01*
X1621820Y272742D01*
X1623060Y272950D01*
X1624610Y272533D01*
X1625695Y271492D01*
X1626005Y270242D01*
X1625850Y268991D01*
X1625230Y267950D01*
X1622130Y265867D01*
X1620735Y264408D01*
X1619805Y262325D01*
X1619495Y260450D01*
X1626005D01*
G01X1635150Y272950D02*
X1633910Y272533D01*
X1632980Y271492D01*
X1632360Y270242D01*
X1631895Y268575D01*
X1631740Y266700D01*
X1631895Y264825D01*
X1632360Y263158D01*
X1632980Y261908D01*
X1633910Y260867D01*
X1635150Y260450D01*
X1636390Y260867D01*
X1637320Y261908D01*
X1637940Y263158D01*
X1638405Y264825D01*
X1638560Y266700D01*
X1638405Y268575D01*
X1637940Y270242D01*
X1637320Y271492D01*
X1636390Y272533D01*
X1635150Y272950D01*
G01X1647550Y260450D02*
X1648635Y260658D01*
X1649875Y261283D01*
X1650650Y262325D01*
X1650960Y263783D01*
X1650650Y265241D01*
X1649720Y266492D01*
X1648325Y267117D01*
X1646775D01*
X1645845Y267533D01*
X1645070Y268575D01*
X1644760Y270033D01*
X1645225Y271492D01*
X1646310Y272533D01*
X1647550Y272950D01*
X1648790Y272533D01*
X1649875Y271492D01*
X1650340Y270033D01*
X1650030Y268575D01*
X1649255Y267533D01*
X1648325Y267117D01*
X1646775D01*
X1645380Y266492D01*
X1644450Y265241D01*
X1644140Y263783D01*
X1644450Y262325D01*
X1645225Y261283D01*
X1646465Y260658D01*
X1647550Y260450D01*
G01X1637010Y285450D02*
Y297950D01*
X1631275Y288992D01*
X1639025D01*
G01X1626005Y320867D02*
X1626935Y322116D01*
X1628020Y322742D01*
X1629260Y322950D01*
X1630810Y322533D01*
X1631895Y321492D01*
X1632205Y320242D01*
X1632050Y318991D01*
X1631430Y317950D01*
X1628330Y315867D01*
X1626935Y314408D01*
X1626005Y312325D01*
X1625695Y310450D01*
X1632205D01*
G01X1641350Y322950D02*
X1640110Y322533D01*
X1639180Y321492D01*
X1638560Y320242D01*
X1638095Y318575D01*
X1637940Y316700D01*
X1638095Y314825D01*
X1638560Y313158D01*
X1639180Y311908D01*
X1640110Y310867D01*
X1641350Y310450D01*
X1642590Y310867D01*
X1643520Y311908D01*
X1644140Y313158D01*
X1644605Y314825D01*
X1644760Y316700D01*
X1644605Y318575D01*
X1644140Y320242D01*
X1643520Y321492D01*
X1642590Y322533D01*
X1641350Y322950D01*
G01X1622750Y335450D02*
Y347950D01*
X1620890Y345450D01*
G01Y335450D02*
X1624610D01*
G01X1635150D02*
Y347950D01*
X1633290Y345450D01*
G01Y335450D02*
X1637010D01*
G01X1644605Y345867D02*
X1645535Y347116D01*
X1646620Y347742D01*
X1647860Y347950D01*
X1649410Y347533D01*
X1650495Y346492D01*
X1650805Y345242D01*
X1650650Y343991D01*
X1650030Y342950D01*
X1646930Y340867D01*
X1645535Y339408D01*
X1644605Y337325D01*
X1644295Y335450D01*
X1650805D01*
G01X1626005Y390658D02*
X1627090Y392117D01*
X1628020Y392950D01*
X1629260Y393367D01*
X1630345Y392950D01*
X1631120Y392117D01*
X1631740Y390867D01*
X1631895Y389408D01*
X1631740Y388158D01*
X1631120Y386908D01*
X1630190Y385867D01*
X1629105Y385450D01*
X1627865Y385867D01*
X1626780Y387116D01*
X1626160Y388992D01*
X1626005Y391075D01*
X1626315Y393783D01*
X1626780Y395242D01*
X1627555Y396700D01*
X1628640Y397742D01*
X1629725Y397950D01*
X1630810Y397533D01*
X1631585Y396492D01*
G01X1638405Y395867D02*
X1639335Y397116D01*
X1640420Y397742D01*
X1641660Y397950D01*
X1643210Y397533D01*
X1644295Y396492D01*
X1644605Y395242D01*
X1644450Y393991D01*
X1643830Y392950D01*
X1640730Y390867D01*
X1639335Y389408D01*
X1638405Y387325D01*
X1638095Y385450D01*
X1644605D01*
G01X1628950Y360450D02*
Y372950D01*
X1627090Y370450D01*
G01Y360450D02*
X1630810D01*
G01X1641350Y372950D02*
X1640110Y372533D01*
X1639180Y371492D01*
X1638560Y370242D01*
X1638095Y368575D01*
X1637940Y366700D01*
X1638095Y364825D01*
X1638560Y363158D01*
X1639180Y361908D01*
X1640110Y360867D01*
X1641350Y360450D01*
X1642590Y360867D01*
X1643520Y361908D01*
X1644140Y363158D01*
X1644605Y364825D01*
X1644760Y366700D01*
X1644605Y368575D01*
X1644140Y370242D01*
X1643520Y371492D01*
X1642590Y372533D01*
X1641350Y372950D01*
G01X1622750Y410450D02*
X1621510Y410658D01*
X1620425Y411491D01*
X1619495Y412742D01*
X1618875Y414200D01*
X1618565Y415867D01*
Y417533D01*
X1618875Y419200D01*
X1619495Y420658D01*
X1620425Y421908D01*
X1621510Y422742D01*
X1622750Y422950D01*
X1623990Y422742D01*
X1625075Y421908D01*
X1626005Y420658D01*
X1626625Y419200D01*
X1626935Y417533D01*
Y415867D01*
X1626625Y414200D01*
X1626005Y412742D01*
X1625075Y411491D01*
X1623990Y410658D01*
X1622750Y410450D01*
G01X1623990Y413783D02*
X1625850Y410450D01*
G01X1635150Y422950D02*
Y410450D01*
G01X1631585Y422950D02*
X1638715D01*
G01X1647550Y410450D02*
Y416075D01*
X1644450Y422950D01*
G01X1650650D02*
X1647550Y416075D01*
M02*
