G04 ================== begin FILE IDENTIFICATION RECORD ==================*
G04 Layout Name:  analogater_after_clg_arun.brd*
G04 Film Name:    PLACEMENT_BOTTOM*
G04 File Format:  Gerber RS274X*
G04 File Origin:  Cadence Allegro -unreleased*
G04 Origin Date:  Tue Mar 25 13:31:54 2025*
G04 *
G04 Layer:  ETCH/BOTTOM*
G04 Layer:  VIA KEEPOUT/ALL*
G04 Layer:  VIA KEEPOUT/BOTTOM*
G04 Layer:  VIA KEEPOUT/TOP*
G04 Layer:  VIA CLASS/BOTTOM*
G04 Layer:  ROUTE KEEPOUT/ALL*
G04 Layer:  ROUTE KEEPOUT/BOTTOM*
G04 Layer:  ROUTE KEEPIN/ALL*
G04 Layer:  PIN/SOLDERMASK_BOTTOM*
G04 Layer:  PIN/PASTEMASK_BOTTOM*
G04 Layer:  PIN/BOTTOM*
G04 Layer:  PACKAGE KEEPOUT/ALL*
G04 Layer:  PACKAGE KEEPOUT/BOTTOM*
G04 Layer:  PACKAGE KEEPIN/ALL*
G04 Layer:  PACKAGE GEOMETRY/ASSEMBLY_BOTTOM*
G04 Layer:  PACKAGE GEOMETRY/PLACE_BOUND_BOTTOM*
G04 Layer:  PACKAGE GEOMETRY/SILKSCREEN_BOTTOM*
G04 Layer:  PACKAGE GEOMETRY/SOLDERMASK_BOTTOM*
G04 Layer:  PACKAGE GEOMETRY/PASTEMASK_BOTTOM*
G04 Layer:  DRC ERROR CLASS/PACKAGE_BOTTOM*
G04 Layer:  BOARD GEOMETRY/OUTLINE*
G04 Layer:  BOARD GEOMETRY/ASSEMBLY_NOTES*
G04 Layer:  BOARD GEOMETRY/SOLDERMASK_BOTTOM*
G04 *
G04 Offset:    (0.00 0.00)*
G04 Mirror:    No*
G04 Mode:      Positive*
G04 Rotation:  0*
G04 FullContactRelief:  No*
G04 UndefLineWidth:     0.00*
G04 ================== end FILE IDENTIFICATION RECORD ====================*
%FSLAX25Y25*MOIN*%
%IR0*IPPOS*OFA0.00000B0.00000*MIA0B0*SFA1.00000B1.00000*%
%AMMACRO15*
4,1,40,-.0227,-.03937,
.0227,-.03937,
.025595,-.039117,
.028401,-.038365,
.031035,-.037137,
.033415,-.03547,
.03547,-.033415,
.037137,-.031035,
.038365,-.028401,
.039117,-.025595,
.03937,-.0227,
.03937,.0227,
.039117,.025595,
.038365,.028401,
.037137,.031035,
.03547,.033415,
.033415,.03547,
.031035,.037137,
.028401,.038365,
.025595,.039117,
.0227,.03937,
-.0227,.03937,
-.025595,.039117,
-.028401,.038365,
-.031035,.037137,
-.033415,.03547,
-.03547,.033415,
-.037137,.031035,
-.038365,.028401,
-.039117,.025595,
-.03937,.0227,
-.03937,-.0227,
-.039117,-.025595,
-.038365,-.028401,
-.037137,-.031035,
-.03547,-.033415,
-.033415,-.03547,
-.031035,-.037137,
-.028401,-.038365,
-.025595,-.039117,
-.0227,-.03937,
0.0*
%
%ADD15MACRO15*%
%AMMACRO13*
4,1,40,.03937,-.0227,
.03937,.0227,
.039117,.025595,
.038365,.028401,
.037137,.031035,
.03547,.033415,
.033415,.03547,
.031035,.037137,
.028401,.038365,
.025595,.039117,
.0227,.03937,
-.0227,.03937,
-.025595,.039117,
-.028401,.038365,
-.031035,.037137,
-.033415,.03547,
-.03547,.033415,
-.037137,.031035,
-.038365,.028401,
-.039117,.025595,
-.03937,.0227,
-.03937,-.0227,
-.039117,-.025595,
-.038365,-.028401,
-.037137,-.031035,
-.03547,-.033415,
-.033415,-.03547,
-.031035,-.037137,
-.028401,-.038365,
-.025595,-.039117,
-.0227,-.03937,
.0227,-.03937,
.025595,-.039117,
.028401,-.038365,
.031035,-.037137,
.033415,-.03547,
.03547,-.033415,
.037137,-.031035,
.038365,-.028401,
.039117,-.025595,
.03937,-.0227,
0.0*
%
%ADD13MACRO13*%
%AMMACRO24*
4,1,40,.02347,.08024,
-.02347,.08024,
-.031619,.079527,
-.039521,.07741,
-.046935,.073953,
-.053636,.06926,
-.05942,.063476,
-.064113,.056775,
-.06757,.049361,
-.069687,.041459,
-.0704,.03331,
-.0704,-.03331,
-.069687,-.041459,
-.06757,-.049361,
-.064113,-.056775,
-.05942,-.063476,
-.053636,-.06926,
-.046935,-.073953,
-.039521,-.07741,
-.031619,-.079527,
-.02347,-.08024,
.02347,-.08024,
.031619,-.079527,
.039521,-.07741,
.046935,-.073953,
.053636,-.06926,
.05942,-.063476,
.064113,-.056775,
.06757,-.049361,
.069687,-.041459,
.0704,-.03331,
.0704,.03331,
.069687,.041459,
.06757,.049361,
.064113,.056775,
.05942,.063476,
.053636,.06926,
.046935,.073953,
.039521,.07741,
.031619,.079527,
.02347,.08024,
0.0*
%
%ADD24MACRO24*%
%AMMACRO26*
4,1,40,-.04087,.01362,
-.04087,-.01362,
-.040456,-.018352,
-.039227,-.02294,
-.037219,-.027245,
-.034495,-.031136,
-.031136,-.034495,
-.027245,-.037219,
-.02294,-.039227,
-.018352,-.040456,
-.01362,-.04087,
.01362,-.04087,
.018352,-.040456,
.02294,-.039227,
.027245,-.037219,
.031136,-.034495,
.034495,-.031136,
.037219,-.027245,
.039227,-.02294,
.040456,-.018352,
.04087,-.01362,
.04087,.01362,
.040456,.018352,
.039227,.02294,
.037219,.027245,
.034495,.031136,
.031136,.034495,
.027245,.037219,
.02294,.039227,
.018352,.040456,
.01362,.04087,
-.01362,.04087,
-.018352,.040456,
-.02294,.039227,
-.027245,.037219,
-.031136,.034495,
-.034495,.031136,
-.037219,.027245,
-.039227,.02294,
-.040456,.018352,
-.04087,.01362,
0.0*
%
%ADD26MACRO26*%
%AMMACRO18*
4,1,40,.01362,.04087,
-.01362,.04087,
-.018352,.040456,
-.02294,.039227,
-.027245,.037219,
-.031136,.034495,
-.034495,.031136,
-.037219,.027245,
-.039227,.02294,
-.040456,.018352,
-.04087,.01362,
-.04087,-.01362,
-.040456,-.018352,
-.039227,-.02294,
-.037219,-.027245,
-.034495,-.031136,
-.031136,-.034495,
-.027245,-.037219,
-.02294,-.039227,
-.018352,-.040456,
-.01362,-.04087,
.01362,-.04087,
.018352,-.040456,
.02294,-.039227,
.027245,-.037219,
.031136,-.034495,
.034495,-.031136,
.037219,-.027245,
.039227,-.02294,
.040456,-.018352,
.04087,-.01362,
.04087,.01362,
.040456,.018352,
.039227,.02294,
.037219,.027245,
.034495,.031136,
.031136,.034495,
.027245,.037219,
.02294,.039227,
.018352,.040456,
.01362,.04087,
0.0*
%
%ADD18MACRO18*%
%AMMACRO25*
4,1,40,.02297,.07874,
-.02297,.07874,
-.030946,.078042,
-.038679,.07597,
-.045935,.072587,
-.052493,.067994,
-.058154,.062333,
-.062747,.055775,
-.06613,.048519,
-.068202,.040786,
-.0689,.03281,
-.0689,-.03281,
-.068202,-.040786,
-.06613,-.048519,
-.062747,-.055775,
-.058154,-.062333,
-.052493,-.067994,
-.045935,-.072587,
-.038679,-.07597,
-.030946,-.078042,
-.02297,-.07874,
.02297,-.07874,
.030946,-.078042,
.038679,-.07597,
.045935,-.072587,
.052493,-.067994,
.058154,-.062333,
.062747,-.055775,
.06613,-.048519,
.068202,-.040786,
.0689,-.03281,
.0689,.03281,
.068202,.040786,
.06613,.048519,
.062747,.055775,
.058154,.062333,
.052493,.067994,
.045935,.072587,
.038679,.07597,
.030946,.078042,
.02297,.07874,
0.0*
%
%ADD25MACRO25*%
%AMMACRO27*
4,1,40,-.03937,.0227,
-.03937,-.0227,
-.039117,-.025595,
-.038365,-.028401,
-.037137,-.031035,
-.03547,-.033415,
-.033415,-.03547,
-.031035,-.037137,
-.028401,-.038365,
-.025595,-.039117,
-.0227,-.03937,
.0227,-.03937,
.025595,-.039117,
.028401,-.038365,
.031035,-.037137,
.033415,-.03547,
.03547,-.033415,
.037137,-.031035,
.038365,-.028401,
.039117,-.025595,
.03937,-.0227,
.03937,.0227,
.039117,.025595,
.038365,.028401,
.037137,.031035,
.03547,.033415,
.033415,.03547,
.031035,.037137,
.028401,.038365,
.025595,.039117,
.0227,.03937,
-.0227,.03937,
-.025595,.039117,
-.028401,.038365,
-.031035,.037137,
-.033415,.03547,
-.03547,.033415,
-.037137,.031035,
-.038365,.028401,
-.039117,.025595,
-.03937,.0227,
0.0*
%
%ADD27MACRO27*%
%AMMACRO19*
4,1,40,.0227,.03937,
-.0227,.03937,
-.025595,.039117,
-.028401,.038365,
-.031035,.037137,
-.033415,.03547,
-.03547,.033415,
-.037137,.031035,
-.038365,.028401,
-.039117,.025595,
-.03937,.0227,
-.03937,-.0227,
-.039117,-.025595,
-.038365,-.028401,
-.037137,-.031035,
-.03547,-.033415,
-.033415,-.03547,
-.031035,-.037137,
-.028401,-.038365,
-.025595,-.039117,
-.0227,-.03937,
.0227,-.03937,
.025595,-.039117,
.028401,-.038365,
.031035,-.037137,
.033415,-.03547,
.03547,-.033415,
.037137,-.031035,
.038365,-.028401,
.039117,-.025595,
.03937,-.0227,
.03937,.0227,
.039117,.025595,
.038365,.028401,
.037137,.031035,
.03547,.033415,
.033415,.03547,
.031035,.037137,
.028401,.038365,
.025595,.039117,
.0227,.03937,
0.0*
%
%ADD19MACRO19*%
%AMMACRO17*
4,1,44,.02755,.03543,
-.02755,.03543,
-.030969,.035137,
-.034285,.034249,
-.037396,.0328,
-.040208,.030832,
-.042635,.028405,
-.044605,.025594,
-.046056,.022484,
-.046945,.019169,
-.047245,.01575,
-.04724,.01574,
-.04724,-.01574,
-.046947,-.019159,
-.046059,-.022475,
-.04461,-.025586,
-.042642,-.028398,
-.040215,-.030825,
-.037404,-.032795,
-.034294,-.034246,
-.030979,-.035135,
-.02756,-.035435,
-.02755,-.03543,
.02755,-.03543,
.030969,-.035137,
.034285,-.034249,
.037396,-.0328,
.040208,-.030832,
.042635,-.028405,
.044605,-.025594,
.046056,-.022484,
.046945,-.019169,
.047245,-.01575,
.04724,-.01574,
.04724,.01574,
.046947,.019159,
.046059,.022475,
.04461,.025586,
.042642,.028398,
.040215,.030825,
.037404,.032795,
.034294,.034246,
.030979,.035135,
.02756,.035435,
.02755,.03543,
0.0*
%
%ADD17MACRO17*%
%AMMACRO16*
4,1,44,.02905,.03693,
-.02905,.03693,
-.032469,.036637,
-.035785,.035749,
-.038896,.0343,
-.041708,.032332,
-.044135,.029905,
-.046105,.027094,
-.047556,.023984,
-.048445,.020669,
-.048745,.01725,
-.04874,.01724,
-.04874,-.01724,
-.048447,-.020659,
-.047559,-.023975,
-.04611,-.027086,
-.044142,-.029898,
-.041715,-.032325,
-.038904,-.034295,
-.035794,-.035746,
-.032479,-.036635,
-.02906,-.036935,
-.02905,-.03693,
.02905,-.03693,
.032469,-.036637,
.035785,-.035749,
.038896,-.0343,
.041708,-.032332,
.044135,-.029905,
.046105,-.027094,
.047556,-.023984,
.048445,-.020669,
.048745,-.01725,
.04874,-.01724,
.04874,.01724,
.048447,.020659,
.047559,.023975,
.04611,.027086,
.044142,.029898,
.041715,.032325,
.038904,.034295,
.035794,.035746,
.032479,.036635,
.02906,.036935,
.02905,.03693,
0.0*
%
%ADD16MACRO16*%
%ADD10C,.161*%
%ADD11C,.158*%
%ADD20O,.1408X.16048*%
%AMMACRO22*
4,1,40,-.02347,-.08024,
.02347,-.08024,
.031619,-.079527,
.039521,-.07741,
.046935,-.073953,
.053636,-.06926,
.05942,-.063476,
.064113,-.056775,
.06757,-.049361,
.069687,-.041459,
.0704,-.03331,
.0704,.03331,
.069687,.041459,
.06757,.049361,
.064113,.056775,
.05942,.063476,
.053636,.06926,
.046935,.073953,
.039521,.07741,
.031619,.079527,
.02347,.08024,
-.02347,.08024,
-.031619,.079527,
-.039521,.07741,
-.046935,.073953,
-.053636,.06926,
-.05942,.063476,
-.064113,.056775,
-.06757,.049361,
-.069687,.041459,
-.0704,.03331,
-.0704,-.03331,
-.069687,-.041459,
-.06757,-.049361,
-.064113,-.056775,
-.05942,-.063476,
-.053636,-.06926,
-.046935,-.073953,
-.039521,-.07741,
-.031619,-.079527,
-.02347,-.08024,
0.0*
%
%ADD22MACRO22*%
%ADD21O,.1378X.15748*%
%AMMACRO14*
4,1,40,-.01362,-.04087,
.01362,-.04087,
.018352,-.040456,
.02294,-.039227,
.027245,-.037219,
.031136,-.034495,
.034495,-.031136,
.037219,-.027245,
.039227,-.02294,
.040456,-.018352,
.04087,-.01362,
.04087,.01362,
.040456,.018352,
.039227,.02294,
.037219,.027245,
.034495,.031136,
.031136,.034495,
.027245,.037219,
.02294,.039227,
.018352,.040456,
.01362,.04087,
-.01362,.04087,
-.018352,.040456,
-.02294,.039227,
-.027245,.037219,
-.031136,.034495,
-.034495,.031136,
-.037219,.027245,
-.039227,.02294,
-.040456,.018352,
-.04087,.01362,
-.04087,-.01362,
-.040456,-.018352,
-.039227,-.02294,
-.037219,-.027245,
-.034495,-.031136,
-.031136,-.034495,
-.027245,-.037219,
-.02294,-.039227,
-.018352,-.040456,
-.01362,-.04087,
0.0*
%
%ADD14MACRO14*%
%AMMACRO12*
4,1,40,.04087,-.01362,
.04087,.01362,
.040456,.018352,
.039227,.02294,
.037219,.027245,
.034495,.031136,
.031136,.034495,
.027245,.037219,
.02294,.039227,
.018352,.040456,
.01362,.04087,
-.01362,.04087,
-.018352,.040456,
-.02294,.039227,
-.027245,.037219,
-.031136,.034495,
-.034495,.031136,
-.037219,.027245,
-.039227,.02294,
-.040456,.018352,
-.04087,.01362,
-.04087,-.01362,
-.040456,-.018352,
-.039227,-.02294,
-.037219,-.027245,
-.034495,-.031136,
-.031136,-.034495,
-.027245,-.037219,
-.02294,-.039227,
-.018352,-.040456,
-.01362,-.04087,
.01362,-.04087,
.018352,-.040456,
.02294,-.039227,
.027245,-.037219,
.031136,-.034495,
.034495,-.031136,
.037219,-.027245,
.039227,-.02294,
.040456,-.018352,
.04087,-.01362,
0.0*
%
%ADD12MACRO12*%
%AMMACRO23*
4,1,40,-.02297,-.07874,
.02297,-.07874,
.030946,-.078042,
.038679,-.07597,
.045935,-.072587,
.052493,-.067994,
.058154,-.062333,
.062747,-.055775,
.06613,-.048519,
.068202,-.040786,
.0689,-.03281,
.0689,.03281,
.068202,.040786,
.06613,.048519,
.062747,.055775,
.058154,.062333,
.052493,.067994,
.045935,.072587,
.038679,.07597,
.030946,.078042,
.02297,.07874,
-.02297,.07874,
-.030946,.078042,
-.038679,.07597,
-.045935,.072587,
-.052493,.067994,
-.058154,.062333,
-.062747,.055775,
-.06613,.048519,
-.068202,.040786,
-.0689,.03281,
-.0689,-.03281,
-.068202,-.040786,
-.06613,-.048519,
-.062747,-.055775,
-.058154,-.062333,
-.052493,-.067994,
-.045935,-.072587,
-.038679,-.07597,
-.030946,-.078042,
-.02297,-.07874,
0.0*
%
%ADD23MACRO23*%
%ADD28C,.02*%
G75*
%LPD*%
G75*
G36*
G01X40000Y3414D02*
G03I-20000J0D01*
G37*
G36*
G01X31981Y-13500D02*
G02X31746Y-12776I0J400D01*
G03X40002Y3414I-11746J16190D01*
G03X20000Y23416I-20002J0D01*
G01X19998D01*
G03X5687Y17387I1J-20002D01*
G02X5001Y17666I-286J279D01*
G01Y382234D01*
G02X5687Y382513I400J0D01*
G03X19998Y376484I14312J13973D01*
G01X20000D01*
G03X40002Y396486I0J20002D01*
G01Y396488D01*
G03X33754Y411010I-20002J-1D01*
G02X34029Y411700I275J290D01*
G01X556522D01*
G02X556797Y411010I0J-400D01*
G03X550548Y396486I13754J-14524D01*
G03X570549Y376484I20002J0D01*
G01X570552D01*
G03X584864Y382513I0J20002D01*
G02X585550Y382234I286J-279D01*
G01Y17666D01*
G02X584864Y17387I-400J0D01*
G03X570553Y23416I-14312J-13973D01*
G01X570551D01*
G03X550548Y3414I0J-20003D01*
G03X558805Y-12776I20003J1D01*
G02X558570Y-13500I-235J-324D01*
G01X31981D01*
G37*
G36*
G01X40000Y396486D02*
G03I-20000J0D01*
G37*
G36*
G01X590551Y3414D02*
G03I-20000J0D01*
G37*
G36*
G01Y396486D02*
G03I-20000J0D01*
G37*
%LPC*%
G75*
G36*
G01X555886Y223544D02*
G02X559856Y219575I0J-3970D01*
G01Y216425D01*
G02X558351Y213314I-3970J1D01*
G03Y212686I248J-314D01*
G02X558797Y212274I-2463J-3114D01*
G03X559373Y212263I293J272D01*
G01X560998Y213888D01*
Y302057D01*
X551557Y311498D01*
X549590D01*
G02X548351Y309814I-3704J1428D01*
G03Y309186I248J-314D01*
G02X549594Y307492I-2465J-3112D01*
G02X551477Y306622I-240J-2992D01*
G01X554522Y303577D01*
G02X555402Y301455I-2121J-2123D01*
G01Y280060D01*
G02X554522Y277938I-3001J1D01*
G01X545278Y268694D01*
Y264730D01*
G02X541610Y261062I-3668J0D01*
G01X537070D01*
G02X533402Y264730I0J3668D01*
G01Y269270D01*
G02X537070Y272938I3668J0D01*
G01X541034D01*
X549398Y281303D01*
Y289859D01*
G03X548714Y290139I-400J-1D01*
G02X545887Y288956I-2827J2787D01*
G01X540374D01*
G02X536404Y292925I0J3970D01*
G01Y296075D01*
G02X537909Y299186I3970J-1D01*
G03Y299814I-248J314D01*
G02X536666Y301508I2465J3112D01*
G02X534783Y302378I240J2992D01*
G01X531078Y306083D01*
G02X530198Y308205I2121J2123D01*
G01Y327700D01*
G02X531078Y329822I3001J-1D01*
G01X546351Y345096D01*
G03X546197Y345757I-283J283D01*
G02X543712Y349230I1184J3473D01*
G01Y353770D01*
G02X547380Y357438I3668J0D01*
G01X548551D01*
G03X548834Y358121I0J400D01*
G01X514857Y392098D01*
X321859D01*
X313072Y383311D01*
X313107Y383197D01*
G02X313392Y381281I-6310J-1918D01*
G01Y381002D01*
X391201D01*
G02X393323Y380122I-1J-3001D01*
G01X400946Y372499D01*
G03X401585Y372964I283J283D01*
G02X400608Y377016I7914J4052D01*
G01Y378984D01*
G02X418392I8892J0D01*
G01Y377016D01*
G02X412502Y368646I-8892J0D01*
G01Y366601D01*
X455722Y323380D01*
G02X456602Y321258I-2121J-2123D01*
G01Y269300D01*
G02X455722Y267178I-3001J1D01*
G01X438022Y249478D01*
G02X437727Y249219I-2123J2121D01*
G03X437970Y248502I244J-317D01*
G01X464150D01*
G02X466272Y247622I-1J-3001D01*
G01X488306Y225588D01*
X492270D01*
G02X495938Y221920I0J-3668D01*
G01Y217380D01*
G02X492270Y213712I-3668J0D01*
G01X487730D01*
G02X484062Y217380I0J3668D01*
G01Y221344D01*
X462907Y242498D01*
X398500D01*
G02X396378Y243378I1J3001D01*
G01X373701Y266054D01*
G03X373045Y265915I-283J-283D01*
G02X369620Y263562I-3425J1316D01*
G01X365080D01*
G02X361412Y267230I0J3668D01*
G01Y271194D01*
X352678Y279928D01*
G02X351798Y282050I2121J2123D01*
G01Y307300D01*
G02X352678Y309422I3001J-1D01*
G01X358878Y315622D01*
G02X361000Y316502I2123J-2121D01*
G01X361410D01*
G02X362649Y318186I3704J-1428D01*
G03Y318814I-248J314D01*
G02X361144Y321925I2465J3112D01*
G01Y325075D01*
G02X361811Y327277I3970J-1D01*
G03X361478Y327898I-333J221D01*
G01X348743D01*
X345902Y325057D01*
Y209143D01*
X368743Y186302D01*
X412988D01*
G03X413271Y186984I0J400D01*
G01X408578Y191678D01*
G02X407698Y193800I2121J2123D01*
G01Y220400D01*
G02X408578Y222522I3001J-1D01*
G01X415771Y229716D01*
G03X415488Y230398I-283J282D01*
G01X400993D01*
X380938Y210344D01*
Y206380D01*
G02X377270Y202712I-3668J0D01*
G01X372730D01*
G02X369062Y206380I0J3668D01*
G01Y210920D01*
G02X372730Y214588I3668J0D01*
G01X376694D01*
X397628Y235522D01*
G02X399750Y236402I2123J-2121D01*
G01X460300D01*
G02X462422Y235522I-1J-3001D01*
G01X488143Y209802D01*
X497657D01*
X500598Y212743D01*
Y225957D01*
X459378Y267178D01*
G02X458498Y269300I2121J2123D01*
G01Y328157D01*
X427378Y359278D01*
G02X426498Y361400I2121J2123D01*
G01Y368646D01*
G02X420608Y377016I3002J8370D01*
G01Y378984D01*
G02X438392I8892J0D01*
G01Y377016D01*
G02X432502Y368646I-8892J0D01*
G01Y362643D01*
X461816Y333329D01*
G03X462498Y333612I282J283D01*
G01Y340657D01*
X447378Y355778D01*
G02X446498Y357900I2121J2123D01*
G01Y368646D01*
G02X440608Y377016I3002J8370D01*
G01Y378984D01*
G02X458392I8892J0D01*
G01Y377016D01*
G02X452502Y368646I-8892J0D01*
G01Y359143D01*
X465816Y345829D01*
G03X466498Y346112I282J283D01*
G01Y368160D01*
X466325Y368183D01*
G02X460608Y374719I878J6536D01*
G01Y381281D01*
G02X467203Y387876I6595J0D01*
G01X471797D01*
G02X478392Y381281I0J-6595D01*
G01Y374719D01*
G02X472675Y368183I-6595J0D01*
G01X472502Y368160D01*
Y318810D01*
G03X472949Y318413I400J0D01*
G02X473380Y318438I428J-3643D01*
G01X477920D01*
G02X481481Y315653I0J-3669D01*
G01X481518Y315502D01*
X502402D01*
X502978Y316078D01*
X496178Y322878D01*
G02X495298Y325000I2121J2123D01*
G01Y343450D01*
G02X496178Y345572I3001J-1D01*
G01X500412Y349806D01*
Y353770D01*
G02X504080Y357438I3668J0D01*
G01X508620D01*
G02X512288Y353770I0J-3668D01*
G01Y349230D01*
G02X508620Y345562I-3668J0D01*
G01X504656D01*
X501302Y342207D01*
Y326243D01*
X504945Y322600D01*
X505146Y322801D01*
X505145Y322885D01*
G02X505144Y322925I3968J119D01*
G01Y326075D01*
G02X509114Y330044I3970J-1D01*
G01X514626D01*
G02X518596Y326075I0J-3970D01*
G01Y322925D01*
G02X517091Y319814I-3970J1D01*
G03Y319186I248J-314D01*
G02X518596Y316075I-2465J-3112D01*
G01Y312925D01*
G02X514626Y308956I-3970J1D01*
G01X509114D01*
G02X506072Y310375I0J3970D01*
G01X506067Y310382D01*
X505919Y310529D01*
X505767Y310378D01*
G02X503645Y309498I-2123J2121D01*
G01X481518D01*
X481481Y309347D01*
G02X477920Y306562I-3561J884D01*
G01X474249D01*
G03X473966Y305879I0J-400D01*
G01X482343Y297502D01*
X505410D01*
G02X509114Y300044I3704J-1428D01*
G01X514626D01*
G02X518596Y296075I0J-3970D01*
G01Y293200D01*
X524422Y287373D01*
G02X525302Y285251I-2121J-2123D01*
G01Y249543D01*
X536322Y238522D01*
G02X537202Y236400I-2121J-2123D01*
G01Y200330D01*
G02X536322Y198208I-3001J1D01*
G01X528511Y190396D01*
X528530Y190293D01*
G02X528596Y189575I-3904J-721D01*
G01Y186425D01*
G02X528530Y185707I-3970J3D01*
G01X528511Y185604D01*
X562822Y151292D01*
G02X563702Y149170I-2121J-2123D01*
G01Y55900D01*
G02X562822Y53778I-3001J1D01*
G01X541422Y32378D01*
G02X539300Y31498I-2123J2121D01*
G01X492700D01*
G02X490578Y32378I1J3001D01*
G01X479578Y43378D01*
G02X479358Y43623I2120J2125D01*
G03X479002Y43498I-156J-125D01*
G01Y34000D01*
G02X478122Y31878I-3001J1D01*
G01X442422Y-3822D01*
G02X440300Y-4702I-2123J2121D01*
G01X312000D01*
G02X309878Y-3822I1J3001D01*
G01X278078Y27978D01*
G02X277198Y30100I2121J2123D01*
G01Y33087D01*
G03X276516Y33370I-400J0D01*
G01X272198Y29052D01*
Y26342D01*
X241758Y-4098D01*
X62742D01*
X11802Y46842D01*
Y137657D01*
X30643Y156498D01*
X31646D01*
X36164Y161016D01*
G03X35881Y161698I-283J282D01*
G01X24900D01*
G02X22778Y162578I1J3001D01*
G01X12478Y172878D01*
G02X11598Y175000I2121J2123D01*
G01Y205100D01*
G02X12478Y207222I3001J-1D01*
G01X51378Y246122D01*
G02X53500Y247002I2123J-2121D01*
G01X56410D01*
G02X57649Y248686I3704J-1428D01*
G03Y249314I-248J314D01*
G02X56410Y250998I2465J3112D01*
G01X26600D01*
G02X24478Y251878I1J3001D01*
G01X11278Y265078D01*
G02X10398Y267200I2121J2123D01*
G01Y304100D01*
G02X11278Y306222I3001J-1D01*
G01X14878Y309822D01*
G02X17000Y310702I2123J-2121D01*
G01X30100D01*
G02X32222Y309822I-1J-3001D01*
G01X45193Y296852D01*
X48132D01*
X48169Y297003D01*
G02X51730Y299788I3561J-884D01*
G01X56270D01*
G02X59831Y297003I0J-3669D01*
G01X59868Y296852D01*
X88563D01*
G02X88772Y296844I-10J-3002D01*
G02X92230Y299288I3458J-1224D01*
G01X96770D01*
G02X100438Y295620I0J-3668D01*
G01Y291080D01*
G02X96770Y287412I-3668J0D01*
G01X92230D01*
G02X88629Y290380I0J3669D01*
G02X87404Y290848I433J2970D01*
G01X59868D01*
X59831Y290697D01*
G02X56270Y287912I-3561J884D01*
G01X51730D01*
G02X48169Y290697I0J3669D01*
G01X48132Y290848D01*
X43950D01*
G02X41828Y291728I1J3001D01*
G01X28857Y304698D01*
X18243D01*
X16402Y302857D01*
Y268443D01*
X27843Y257002D01*
X56410D01*
G02X57649Y258686I3704J-1428D01*
G03Y259314I-248J314D01*
G02X56410Y260998I2465J3112D01*
G01X46100D01*
G02X43978Y261878I1J3001D01*
G01X21878Y283978D01*
G02X20998Y286100I2121J2123D01*
G01Y287982D01*
X20847Y288019D01*
G02X18062Y291580I884J3561D01*
G01Y296120D01*
G02X21730Y299788I3668J0D01*
G01X26270D01*
G02X29938Y296120I0J-3668D01*
G01Y291580D01*
G02X27153Y288019I-3669J0D01*
G01X27002Y287982D01*
Y287343D01*
X47343Y267002D01*
X56410D01*
G02X57649Y268686I3704J-1428D01*
G03Y269314I-248J314D01*
G02X56144Y272425I2465J3112D01*
G01Y275575D01*
G02X60114Y279544I3970J-1D01*
G01X65626D01*
G02X69596Y275575I0J-3970D01*
G01Y272425D01*
G02X68091Y269314I-3970J1D01*
G03Y268686I248J-314D01*
G02X69596Y265575I-2465J-3112D01*
G01Y262700D01*
X72622Y259673D01*
G02X73502Y257551I-2121J-2123D01*
G01Y232150D01*
G02X72622Y230028I-3001J1D01*
G01X59788Y217194D01*
Y213230D01*
G02X56120Y209562I-3668J0D01*
G01X51580D01*
G02X47912Y213230I0J3668D01*
G01Y217770D01*
G02X51580Y221438I3668J0D01*
G01X55544D01*
X67498Y233393D01*
Y238312D01*
G03X66964Y238688I-400J-1D01*
G02X65628Y238456I-1337J3738D01*
G01X60114D01*
G02X56410Y240998I0J3970D01*
G01X54743D01*
X17602Y203857D01*
Y176243D01*
X26143Y167702D01*
X54489D01*
G02X56611Y166822I-1J-3001D01*
G01X58389Y165044D01*
X63626D01*
G02X66417Y163897I0J-3970D01*
G03X67098Y164181I281J284D01*
G01Y175252D01*
X66821Y175529D01*
X66673Y175382D01*
X66668Y175375D01*
G02X63626Y173956I-3042J2551D01*
G01X58114D01*
G02X54406Y176508I0J3970D01*
G02X52780Y177148I239J2992D01*
G01X38868D01*
X38831Y176997D01*
G02X35270Y174212I-3561J884D01*
G01X30730D01*
G02X27062Y177880I0J3668D01*
G01Y182420D01*
G02X30730Y186088I3668J0D01*
G01X35270D01*
G02X38831Y183303I0J-3669D01*
G01X38868Y183152D01*
X53995D01*
G02X54683Y183072I0J-3002D01*
G02X55649Y184186I3430J-1999D01*
G03Y184814I-248J314D01*
G02X54144Y187925I2465J3112D01*
G01Y191075D01*
G02X58114Y195044I3970J-1D01*
G01X63626D01*
G02X67596Y191075I0J-3970D01*
G01Y187925D01*
G02X66091Y184814I-3970J1D01*
G03Y184186I248J-314D01*
G02X67334Y182492I-2465J-3112D01*
G02X69217Y181622I-240J-2992D01*
G01X72222Y178617D01*
G02X73102Y176495I-2121J-2123D01*
G01Y142940D01*
G02X72222Y140818I-3001J1D01*
G01X67598Y136194D01*
Y132230D01*
G02X63930Y128562I-3668J0D01*
G01X59390D01*
G02X55722Y132230I0J3668D01*
G01Y136770D01*
G02X59390Y140438I3668J0D01*
G01X63354D01*
X67098Y144183D01*
Y154819D01*
G03X66417Y155103I-400J0D01*
G02X64050Y153978I-2792J2822D01*
G01X63872Y153959D01*
Y148770D01*
G02X62992Y146648I-3001J1D01*
G01X26902Y110557D01*
Y104229D01*
G03X27442Y103855I400J0D01*
G02X28727Y104088I1287J-3435D01*
G01X33270D01*
G02X36831Y101303I0J-3669D01*
G01X36868Y101152D01*
X54238D01*
G02X55406Y101492I1406J-2652D01*
G02X56649Y103186I3708J-1418D01*
G03Y103814I-248J314D01*
G02X55144Y106925I2465J3112D01*
G01Y110075D01*
G02X59114Y114044I3970J-1D01*
G01X64626D01*
G02X68596Y110075I0J-3970D01*
G01Y106925D01*
G02X67091Y103814I-3970J1D01*
G03Y103186I248J-314D01*
G02X68334Y101492I-2465J-3112D01*
G02X70217Y100622I-240J-2992D01*
G01X77722Y93117D01*
G02X78602Y90995I-2121J-2123D01*
G01Y66940D01*
G02X77722Y64818I-3001J1D01*
G01X69598Y56694D01*
Y52730D01*
G02X65930Y49062I-3668J0D01*
G01X61390D01*
G02X57722Y52730I0J3668D01*
G01Y57270D01*
G02X61390Y60938I3668J0D01*
G01X65354D01*
X72598Y68183D01*
Y89752D01*
X68113Y94237D01*
G03X67537Y94226I-283J-283D01*
G02X64627Y92956I-2910J2700D01*
G01X59114D01*
G02X55559Y95160I0J3970D01*
G02X55295Y95148I-268J2990D01*
G01X36868D01*
X36831Y94997D01*
G02X33270Y92212I-3561J884D01*
G01X28727D01*
G02X27442Y92445I2J3668D01*
G03X26902Y92071I-140J-374D01*
G01Y89044D01*
X34444Y81502D01*
X55410D01*
G02X59114Y84044I3704J-1428D01*
G01X64626D01*
G02X68596Y80075I0J-3970D01*
G01Y76925D01*
G02X64830Y72961I-3970J1D01*
G02X63992Y71334I-2960J495D01*
G01X51066Y58408D01*
Y49678D01*
X56543Y44202D01*
X157557D01*
X162398Y49043D01*
Y85408D01*
X158851Y88956D01*
X153614D01*
G02X149644Y92925I0J3970D01*
G01Y96075D01*
G02X151149Y99186I3970J-1D01*
G03Y99814I-248J314D01*
G02X149644Y102925I2465J3112D01*
G01Y106075D01*
G02X151149Y109186I3970J-1D01*
G03Y109814I-248J314D01*
G02X150476Y110494I2465J3112D01*
G03X149877Y110532I-316J-245D01*
G01X147102Y107756D01*
Y71430D01*
X153972Y64559D01*
G02X154820Y62871I-2122J-2123D01*
G02X157788Y59270I-701J-3601D01*
G01Y54730D01*
G02X154120Y51062I-3668J0D01*
G01X149580D01*
G02X145979Y54030I0J3669D01*
G02X145006Y54348I432J2971D01*
G01X132368D01*
X132331Y54197D01*
G02X128770Y51412I-3561J884D01*
G01X124230D01*
G02X120562Y55080I0J3668D01*
G01Y59620D01*
G02X124230Y63288I3668J0D01*
G01X128770D01*
G02X132331Y60503I0J-3669D01*
G01X132368Y60352D01*
X146075D01*
G02X147284Y62131I3505J-1082D01*
G03X147316Y62726I-250J312D01*
G01X141978Y68065D01*
G02X141098Y70187I2121J2123D01*
G01Y108999D01*
G02X141978Y111121I3001J-1D01*
G01X147479Y116622D01*
G02X149601Y117502I2123J-2121D01*
G01X149910D01*
G02X151149Y119186I3704J-1428D01*
G03Y119814I-248J314D01*
G02X149644Y122925I2465J3112D01*
G01Y126075D01*
G02X153614Y130044I3970J-1D01*
G01X159126D01*
G02X163096Y126075I0J-3970D01*
G01Y122925D01*
G02X161591Y119814I-3970J1D01*
G03Y119186I248J-314D01*
G02X163096Y116075I-2465J-3112D01*
G01Y115953D01*
G03X163437Y115812I200J0D01*
G01X168898Y121273D01*
Y162583D01*
G03X168245Y162892I-400J0D01*
G02X165922Y162062I-2324J2838D01*
G01X161380D01*
G02X157712Y165730I0J3668D01*
G01Y170270D01*
G02X160680Y173871I3669J0D01*
G02X160848Y174514I2970J-433D01*
G01Y190132D01*
X160697Y190169D01*
G02X157912Y193730I884J3561D01*
G01Y197694D01*
X155278Y200328D01*
G02X154398Y202450I2121J2123D01*
G01Y233755D01*
G02X155278Y235877I3001J-1D01*
G01X162523Y243122D01*
G02X164406Y243992I2123J-2122D01*
G02X165649Y245686I3708J-1418D01*
G03Y246314I-248J314D01*
G02X164144Y249425I2465J3112D01*
G01Y252575D01*
G02X168114Y256544I3970J-1D01*
G01X173626D01*
G02X177596Y252575I0J-3970D01*
G01Y249425D01*
G02X176091Y246314I-3970J1D01*
G03Y245686I248J-314D01*
G02X177596Y242575I-2465J-3112D01*
G01Y239425D01*
G02X176091Y236314I-3970J1D01*
G03Y235686I248J-314D01*
G02X177596Y232575I-2465J-3112D01*
G01Y229425D01*
G02X176091Y226314I-3970J1D01*
G03Y225686I248J-314D01*
G02X177596Y222575I-2465J-3112D01*
G01Y219700D01*
X178422Y218873D01*
G02X179302Y216751I-2121J-2123D01*
G01Y62543D01*
X193543Y48302D01*
X212457D01*
X221898Y57743D01*
Y166949D01*
X217178Y171670D01*
G02X216298Y173792I2121J2123D01*
G01Y190814D01*
G02X217178Y192936I3001J-1D01*
G01X251998Y227757D01*
Y245200D01*
G02X252878Y247322I3001J-1D01*
G01X269434Y263879D01*
G03X269148Y264562I-283J283D01*
G01X264580D01*
G02X260912Y268230I0J3668D01*
G01Y272194D01*
X256807Y276298D01*
X215500D01*
G02X213378Y277178I1J3001D01*
G01X190578Y299978D01*
G02X189698Y302100I2121J2123D01*
G01Y319957D01*
G02X190578Y322079I3001J-1D01*
G01X193598Y325100D01*
Y362450D01*
G02X194478Y364572I3001J-1D01*
G01X197212Y367306D01*
Y371270D01*
G02X200880Y374938I3668J0D01*
G01X205420D01*
G02X209088Y371270I0J-3668D01*
G01Y367306D01*
X219022Y357372D01*
G02X219902Y355250I-2121J-2123D01*
G01Y322750D01*
G02X219022Y320628I-3001J1D01*
G01X211079Y312684D01*
G03X211362Y312002I283J-282D01*
G01X260402D01*
X263023Y314622D01*
G02X264906Y315492I2123J-2122D01*
G02X266149Y317186I3708J-1418D01*
G03Y317814I-248J314D01*
G02X264644Y320925I2465J3112D01*
G01Y324075D01*
G02X268614Y328044I3970J-1D01*
G01X274126D01*
G02X278096Y324075I0J-3970D01*
G01Y320925D01*
G02X276591Y317814I-3970J1D01*
G03Y317186I248J-314D01*
G02X278096Y314075I-2465J-3112D01*
G01Y310925D01*
G02X276591Y307814I-3970J1D01*
G03Y307186I248J-314D01*
G02X278096Y304075I-2465J-3112D01*
G01Y300925D01*
G02X276591Y297814I-3970J1D01*
G03Y297186I248J-314D01*
G02X277834Y295492I-2465J-3112D01*
G02X279717Y294622I-240J-2992D01*
G01X286222Y288117D01*
G02X287102Y285995I-2121J-2123D01*
G01Y163000D01*
G02X286222Y160878I-3001J1D01*
G01X281822Y156478D01*
G02X279700Y155598I-2123J2121D01*
G01X263900D01*
G02X261778Y156478I1J3001D01*
G01X258978Y159278D01*
G02X258098Y161400I2121J2123D01*
G01Y205911D01*
G02X258978Y208033I3001J-1D01*
G01X262760Y211816D01*
G03X262477Y212498I-283J282D01*
G01X256543D01*
X230302Y186257D01*
Y184646D01*
G03X230901Y184300I400J1D01*
G02X232728Y184788I1828J-3180D01*
G01X237270D01*
G02X240938Y181120I0J-3668D01*
G01Y177156D01*
X241632Y176462D01*
G02X242512Y174340I-2121J-2123D01*
G01Y164633D01*
X257322Y149822D01*
G02X258202Y147700I-2121J-2123D01*
G01Y138342D01*
X260884Y135658D01*
X262261D01*
G03X262659Y136091I-1J400D01*
G02X262644Y136425I3955J345D01*
G01Y139575D01*
G02X266614Y143544I3970J-1D01*
G01X272126D01*
G02X276096Y139575I0J-3970D01*
G01Y136425D01*
G02X274591Y133314I-3970J1D01*
G03Y132686I248J-314D01*
G02X276096Y129575I-2465J-3112D01*
G01Y126425D01*
G02X272126Y122456I-3970J1D01*
G01X266614D01*
G02X263557Y123893I0J3970D01*
G03X262966Y123921I-308J-255D01*
G01X253502Y114457D01*
Y92393D01*
X254456Y91438D01*
X258420D01*
G02X262088Y87770I0J-3668D01*
G01Y83230D01*
G02X259303Y79669I-3669J0D01*
G01X259152Y79632D01*
Y62290D01*
G02X261788Y58770I-1032J-3520D01*
G01Y54230D01*
G02X258120Y50562I-3668J0D01*
G01X253580D01*
G02X249912Y54230I0J3668D01*
G01Y58770D01*
G02X252880Y62371I3669J0D01*
G02X253148Y63245I2970J-433D01*
G01Y79632D01*
X252997Y79669D01*
G02X250212Y83230I884J3561D01*
G01Y87194D01*
X248378Y89028D01*
G02X247498Y91150I2121J2123D01*
G01Y115700D01*
G02X248378Y117822I3001J-1D01*
G01X259868Y129313D01*
G03X259727Y129654I-141J141D01*
G01X259640D01*
G02X257517Y130535I1J3001D01*
G01X253077Y134979D01*
G02X252198Y137100I2122J2122D01*
G01Y146457D01*
X237984Y160671D01*
G03X237302Y160388I-282J-283D01*
G01Y45143D01*
X240843Y41602D01*
X260918D01*
X266368Y47052D01*
Y102459D01*
X266190Y102478D01*
G02X262644Y106425I424J3948D01*
G01Y109575D01*
G02X266614Y113544I3970J-1D01*
G01X272126D01*
G02X275834Y110992I0J-3970D01*
G02X277717Y110122I-240J-2992D01*
G01X282322Y105517D01*
G02X283202Y103395I-2121J-2123D01*
G01Y31343D01*
X313243Y1302D01*
X439057D01*
X472998Y35243D01*
Y86811D01*
G02X473878Y88933I3001J-1D01*
G01X491644Y106700D01*
Y109575D01*
G02X495614Y113544I3970J-1D01*
G01X501126D01*
G02X505096Y109575I0J-3970D01*
G01Y106425D01*
G02X501550Y102478I-3970J1D01*
G01X501372Y102459D01*
Y92470D01*
G02X500492Y90348I-3001J1D01*
G01X484702Y74557D01*
Y46743D01*
X493943Y37502D01*
X538057D01*
X557698Y57143D01*
Y147927D01*
X523170Y182456D01*
X519114D01*
G02X515410Y184998I0J3970D01*
G01X500043D01*
G02X497921Y185878I1J3001D01*
G01X457400Y226398D01*
X420943D01*
X413702Y219157D01*
Y195043D01*
X417834Y190911D01*
G03X418437Y190954I283J283D01*
G02X421614Y192544I3177J-2380D01*
G01X427126D01*
G02X431096Y188575I0J-3970D01*
G01Y185425D01*
G02X427550Y181478I-3970J1D01*
G01X427372Y181459D01*
Y179270D01*
G02X426492Y177148I-3001J1D01*
G01X424322Y174978D01*
G02X422200Y174098I-2123J2121D01*
G01X369443D01*
X361902Y166557D01*
Y125243D01*
X377143Y110002D01*
X396910D01*
G02X398149Y111686I3704J-1428D01*
G03Y112314I-248J314D01*
G02X396910Y113998I2465J3112D01*
G01X389087D01*
G02X387355Y114549I1J3002D01*
G03X386809Y114469I-231J-327D01*
G02X383921Y113062I-2888J2261D01*
G01X379380D01*
G02X375712Y116730I0J3668D01*
G01Y121270D01*
G02X379380Y124938I3668J0D01*
G01X383920D01*
G02X387521Y121970I0J-3669D01*
G02X389209Y121122I-435J-2970D01*
G01X390330Y120002D01*
X396910D01*
G02X398149Y121686I3704J-1428D01*
G03Y122314I-248J314D01*
G02X396644Y125425I2465J3112D01*
G01Y128575D01*
G02X398149Y131686I3970J-1D01*
G03Y132314I-248J314D01*
G02X396644Y135425I2465J3112D01*
G01Y138575D01*
G02X400614Y142544I3970J-1D01*
G01X406126D01*
G02X410096Y138575I0J-3970D01*
G01Y135425D01*
G02X408591Y132314I-3970J1D01*
G03Y131686I248J-314D01*
G02X409834Y129992I-2465J-3112D01*
G02X411717Y129122I-240J-2992D01*
G01X413622Y127217D01*
G02X414502Y125095I-2121J-2123D01*
G01Y92700D01*
G02X413622Y90578I-3001J1D01*
G01X405922Y82878D01*
G02X403800Y81998I-2123J2121D01*
G01X398218D01*
X398181Y81847D01*
G02X395503Y79169I-3561J883D01*
G01X395352Y79132D01*
Y70053D01*
X400966Y64438D01*
X404930D01*
G02X408598Y60770I0J-3668D01*
G01Y56230D01*
G02X404930Y52562I-3668J0D01*
G01X400390D01*
G02X396722Y56230I0J3668D01*
G01Y60194D01*
X390228Y66688D01*
G02X389348Y68810I2121J2123D01*
G01Y79132D01*
X389197Y79169D01*
G02X386873Y80949I883J3561D01*
G02X385563Y80648I-1310J2700D01*
G01X333368D01*
X333331Y80497D01*
G02X329770Y77712I-3561J884D01*
G01X325230D01*
G02X321562Y81380I0J3668D01*
G01Y85920D01*
G02X325230Y89588I3668J0D01*
G01X329770D01*
G02X333331Y86803I0J-3669D01*
G01X333368Y86652D01*
X384320D01*
X384791Y87122D01*
G02X386479Y87970I2123J-2122D01*
G02X390080Y90938I3601J-701D01*
G01X394620D01*
G02X398181Y88153I0J-3669D01*
G01X398218Y88002D01*
X402557D01*
X408498Y93943D01*
Y101526D01*
G03X407918Y101883I-400J0D01*
G02X406128Y101456I-1791J3543D01*
G01X400614D01*
G02X396910Y103998I0J3970D01*
G01X375900D01*
G02X373778Y104878I1J3001D01*
G01X356778Y121878D01*
G02X355898Y124000I2121J2123D01*
G01Y167800D01*
G02X356778Y169922I3001J-1D01*
G01X366078Y179222D01*
G02X366703Y179701I2122J-2122D01*
G03X366620Y180430I-200J346D01*
G02X365378Y181178I882J2869D01*
G01X340778Y205778D01*
G02X339898Y207900I2121J2123D01*
G01Y326300D01*
G02X340778Y328422I3001J-1D01*
G01X345378Y333022D01*
G02X347500Y333902I2123J-2121D01*
G01X374500D01*
G02X376622Y333022I-1J-3001D01*
G01X378622Y331022D01*
G02X379502Y328900I-2121J-2123D01*
G01Y295905D01*
G02X378622Y293783I-3001J1D01*
G01X376217Y291378D01*
G02X374334Y290508I-2123J2122D01*
G02X370626Y287956I-3708J1418D01*
G01X365114D01*
G02X363103Y288503I0J3970D01*
G01X363056Y288530D01*
X362802D01*
Y288043D01*
X367843Y283002D01*
X370500D01*
G02X372622Y282122I-1J-3001D01*
G01X400143Y254602D01*
X434657D01*
X441434Y261379D01*
G03X441151Y262062I-283J283D01*
G01X439580D01*
G02X435912Y265730I0J3668D01*
G01Y270270D01*
G02X439580Y273938I3668J0D01*
G01X443544D01*
X446598Y276993D01*
Y318358D01*
X389958Y374998D01*
X313392D01*
Y374719D01*
G02X306797Y368124I-6595J0D01*
G01X302203D01*
G02X295608Y374719I0J6595D01*
G01Y381281D01*
G02X302203Y387876I6595J0D01*
G01X306797D01*
G02X308713Y387591I-2J-6595D01*
G01X308827Y387556D01*
X317487Y396216D01*
G03X317204Y396898I-283J282D01*
G01X127769D01*
X118835Y387964D01*
G03X118957Y387315I283J-283D01*
G02X122892Y381281I-2659J-6034D01*
G01Y381002D01*
X166200D01*
G02X168322Y380122I-1J-3001D01*
G01X173922Y374522D01*
G02X174087Y374344I-2117J-2128D01*
G03X174674Y374320I305J259D01*
G01X187394Y387039D01*
G02X189516Y387918I2122J-2122D01*
G01X238569D01*
G02X240704Y387025I-1J-3001D01*
G02X244500Y387876I3796J-8041D01*
G02X253392Y378984I0J-8892D01*
G01Y377016D01*
G02X235608I-8892J0D01*
G01Y378984D01*
G02X235945Y381407I8892J-2D01*
G03X235560Y381916I-385J109D01*
G01X215195D01*
G03X214912Y381233I0J-400D01*
G01X249443Y346702D01*
X272888D01*
G03X273171Y347384I0J400D01*
G01X262378Y358178D01*
G02X261498Y360300I2121J2123D01*
G01Y368646D01*
G02X255608Y377016I3002J8370D01*
G01Y378984D01*
G02X273392I8892J0D01*
G01Y377016D01*
G02X267502Y368646I-8892J0D01*
G01Y361543D01*
X296422Y332622D01*
G02X297302Y330500I-2121J-2123D01*
G01Y327866D01*
G03X297900Y327519I400J0D01*
G02X299872Y328044I1973J-3445D01*
G01X305386D01*
G02X309356Y324075I0J-3970D01*
G01Y323255D01*
G03X310038Y322972I400J0D01*
G01X316902Y329836D01*
Y343457D01*
X323743Y350298D01*
X323753D01*
X328878Y355422D01*
G02X331000Y356302I2123J-2121D01*
G01X381100D01*
G02X383222Y355422I-1J-3001D01*
G01X392322Y346322D01*
G02X393202Y344200I-2121J-2123D01*
G01Y328452D01*
G03X393855Y328143I400J0D01*
G02X396373Y329044I2518J-3069D01*
G01X401886D01*
G02X405856Y325075I0J-3970D01*
G01Y321925D01*
G02X404351Y318814I-3970J1D01*
G03Y318186I248J-314D01*
G02X405856Y315075I-2465J-3112D01*
G01Y314255D01*
G03X406538Y313972I400J0D01*
G01X407189Y314622D01*
G02X409311Y315502I2123J-2121D01*
G01X426482D01*
X426519Y315653D01*
G02X430080Y318438I3561J-884D01*
G01X432551D01*
G03X432834Y319121I0J400D01*
G01X391857Y360098D01*
X287000D01*
G02X284878Y360978I1J3001D01*
G01X282378Y363478D01*
G02X281498Y365600I2121J2123D01*
G01Y368646D01*
G02X275608Y377016I3002J8370D01*
G01Y378984D01*
G02X293392I8892J0D01*
G01Y377016D01*
G02X287502Y368646I-8892J0D01*
G01Y366843D01*
X288243Y366102D01*
X393100D01*
G02X395222Y365222I-1J-3001D01*
G01X440209Y320235D01*
G02X441088Y318113I-2122J-2122D01*
G01Y285287D01*
G02X440209Y283165I-3001J0D01*
G01X418685Y261641D01*
G02X416563Y260762I-2122J2122D01*
G01X402138D01*
G02X400016Y261641I0J3001D01*
G01X383878Y277779D01*
G02X382998Y279901I2121J2123D01*
G01Y339557D01*
X376257Y346298D01*
X340843D01*
X334402Y339857D01*
Y251600D01*
G02X333522Y249478I-3001J1D01*
G01X312465Y228420D01*
G03X312495Y227827I283J-283D01*
G02X312722Y227622I-1895J-2327D01*
G01X314822Y225522D01*
G02X315702Y223400I-2121J-2123D01*
G01Y197858D01*
X315851Y197818D01*
G02X318588Y194270I-931J-3548D01*
G01Y189730D01*
G02X314920Y186062I-3668J0D01*
G01X310380D01*
G02X306712Y189730I0J3668D01*
G01Y194270D01*
G02X309544Y197842I3669J0D01*
G01X309679Y197874D01*
G02X309698Y197985I2969J-451D01*
G01Y211197D01*
G03X308986Y211446I-400J-1D01*
G02X305886Y209956I-3100J2480D01*
G01X300374D01*
G02X297219Y211516I0J3970D01*
G03X296502Y211273I-317J-243D01*
G01Y173667D01*
G03X297016Y173284I400J0D01*
G02X298065Y173438I1052J-3514D01*
G01X302610D01*
G02X306278Y169770I0J-3668D01*
G01Y165806D01*
X307587Y164498D01*
X308757D01*
X317498Y155757D01*
Y154587D01*
X322622Y149462D01*
G02X323502Y147340I-2121J-2123D01*
G01Y125632D01*
G02X322622Y123510I-3001J1D01*
G01X314422Y115310D01*
G02X312849Y114481I-2123J2122D01*
G03X312639Y113805I73J-393D01*
G01X314323Y112121D01*
G02X315202Y109999I-2122J-2122D01*
G01Y69550D01*
G02X314322Y67428I-3001J1D01*
G01X305088Y58194D01*
Y54230D01*
G02X301420Y50562I-3668J0D01*
G01X296880D01*
G02X293212Y54230I0J3668D01*
G01Y58770D01*
G02X296880Y62438I3668J0D01*
G01X300844D01*
X309198Y70793D01*
Y108756D01*
X308038Y109917D01*
G03X307355Y109629I-283J-283D01*
G02X307356Y109575I-3969J-101D01*
G01Y106425D01*
G02X303386Y102456I-3970J1D01*
G01X297874D01*
G02X293904Y106425I0J3970D01*
G01Y109575D01*
G02X295409Y112686I3970J-1D01*
G03Y113314I-248J314D01*
G02X293904Y116425I2465J3112D01*
G01Y117245D01*
G03X293222Y117528I-400J0D01*
G01X292602Y116908D01*
Y51143D01*
X295743Y48002D01*
X311557D01*
X329578Y66022D01*
G02X331700Y66902I2123J-2121D01*
G01X364500D01*
G02X366622Y66022I-1J-3001D01*
G01X381843Y50802D01*
X407357D01*
X411598Y55043D01*
Y73100D01*
G02X412478Y75222I3001J-1D01*
G01X417602Y80347D01*
Y88857D01*
X418898Y90154D01*
Y115451D01*
G02X419778Y117573I3001J-1D01*
G01X427904Y125700D01*
Y128575D01*
G02X429409Y131686I3970J-1D01*
G03Y132314I-248J314D01*
G02X427904Y135425I2465J3112D01*
G01Y138575D01*
G02X431874Y142544I3970J-1D01*
G01X437388D01*
G02X439396Y141998I-1J-3970D01*
G03X439998Y142343I202J345D01*
G01Y174128D01*
G03X439316Y174411I-400J0D01*
G01X430098Y165194D01*
Y161230D01*
G02X426430Y157562I-3668J0D01*
G01X421890D01*
G02X418289Y160530I0J3669D01*
G02X416601Y161378I435J2970D01*
G01X415630Y162348D01*
X380868D01*
X380831Y162197D01*
G02X377270Y159412I-3561J884D01*
G01X372730D01*
G02X369062Y163080I0J3668D01*
G01Y167620D01*
G02X372730Y171288I3668J0D01*
G01X377270D01*
G02X380831Y168503I0J-3669D01*
G01X380868Y168352D01*
X416873D01*
G02X418595Y167808I-1J-3002D01*
G03X418874Y167858I115J164D01*
G02X421890Y169438I3016J-2089D01*
G01X425854D01*
X435098Y178683D01*
Y198252D01*
X430613Y202737D01*
G03X430037Y202726I-283J-283D01*
G02X427127Y201456I-2910J2700D01*
G01X421614D01*
G02X417644Y205425I0J3970D01*
G01Y208575D01*
G02X419149Y211686I3970J-1D01*
G03Y212314I-248J314D01*
G02X417644Y215425I2465J3112D01*
G01Y218575D01*
G02X421614Y222544I3970J-1D01*
G01X427126D01*
G02X431096Y218575I0J-3970D01*
G01Y215425D01*
G02X429591Y212314I-3970J1D01*
G03Y211686I248J-314D01*
G02X430834Y209992I-2465J-3112D01*
G02X432717Y209122I-240J-2992D01*
G01X439531Y202308D01*
G03X440189Y202451I283J283D01*
G02X440878Y203521I2811J-1053D01*
G01X446479Y209122D01*
G02X448601Y210002I2123J-2121D01*
G01X449170D01*
G02X450409Y211686I3704J-1428D01*
G03Y212314I-248J314D01*
G02X448904Y215425I2465J3112D01*
G01Y218575D01*
G02X452874Y222544I3970J-1D01*
G01X458386D01*
G02X462356Y218575I0J-3970D01*
G01Y215425D01*
G02X460851Y212314I-3970J1D01*
G03Y211686I248J-314D01*
G02X462090Y210002I-2465J-3112D01*
G01X470000D01*
G02X472122Y209122I-1J-3001D01*
G01X521822Y159422D01*
G02X522702Y157300I-2121J-2123D01*
G01Y141779D01*
G03X523447Y141577I400J0D01*
G02X526874Y143544I3427J-2003D01*
G01X532386D01*
G02X536356Y139575I0J-3970D01*
G01Y136425D01*
G02X536355Y136366I-3970J38D01*
G03X536606Y136169I200J-4D01*
G02X536991Y136065I102J-387D01*
G01X537398Y135657D01*
Y131243D01*
X537157Y131002D01*
X536633D01*
G03X536244Y130508I0J-400D01*
G02X536356Y129575I-3858J-936D01*
G01Y126425D01*
G02X534851Y123314I-3970J1D01*
G03Y122686I248J-314D01*
G02X536356Y119575I-2465J-3112D01*
G01Y116425D01*
G02X534851Y113314I-3970J1D01*
G03Y112686I248J-314D01*
G02X536356Y109575I-2465J-3112D01*
G01Y106425D01*
G02X532386Y102456I-3970J1D01*
G01X526871D01*
G02X525900Y102577I2J3970D01*
G03X525402Y102190I-98J-388D01*
G01Y90620D01*
X526462Y89559D01*
G02X527310Y87871I-2122J-2123D01*
G02X530278Y84270I-701J-3601D01*
G01Y79730D01*
G02X527493Y76169I-3669J0D01*
G01X527342Y76132D01*
Y67553D01*
X535956Y58938D01*
X539920D01*
G02X543588Y55270I0J-3668D01*
G01Y50730D01*
G02X539920Y47062I-3668J0D01*
G01X535380D01*
G02X531712Y50730I0J3668D01*
G01Y54694D01*
X522218Y64188D01*
G02X521338Y66310I2121J2123D01*
G01Y76132D01*
X521187Y76169D01*
G02X518402Y79730I884J3561D01*
G01Y84270D01*
G02X519820Y87167I3668J0D01*
G03X519907Y87706I-245J316D01*
G02X519398Y89377I2493J1672D01*
G01Y111951D01*
G02X520278Y114073I3001J-1D01*
G01X522904Y116700D01*
Y119300D01*
X511478Y130727D01*
G02X510598Y132849I2121J2123D01*
G01Y142357D01*
X506457Y146498D01*
X471843D01*
X468102Y142757D01*
Y72584D01*
G02X467222Y70462I-3001J1D01*
G01X416541Y19781D01*
X416599Y19655D01*
G02X417392Y15985I-8099J-3671D01*
G01Y14016D01*
G02X399608I-8892J0D01*
G01Y15984D01*
G02X408500Y24876I8892J0D01*
G01X408501D01*
G02X412171Y24083I-1J-8892D01*
G01X412297Y24025D01*
X462098Y73827D01*
Y144000D01*
G02X462978Y146122I3001J-1D01*
G01X468478Y151622D01*
G02X470600Y152502I2123J-2121D01*
G01X507700D01*
G02X509822Y151622I-1J-3001D01*
G01X515722Y145722D01*
G02X515981Y145427I-2121J-2123D01*
G03X516698Y145670I317J244D01*
G01Y156057D01*
X496621Y176134D01*
G03X495938Y175851I-283J-283D01*
G01Y174080D01*
G02X492270Y170412I-3668J0D01*
G01X488306D01*
X479272Y161378D01*
G02X477150Y160498I-2123J2121D01*
G01X459708D01*
X459671Y160347D01*
G02X456110Y157562I-3561J884D01*
G01X451570D01*
G02X447902Y161230I0J3668D01*
G01Y165770D01*
G02X451570Y169438I3668J0D01*
G01X456110D01*
G02X459671Y166653I0J-3669D01*
G01X459708Y166502D01*
X475907D01*
X484062Y174656D01*
Y178044D01*
X468107Y193998D01*
X462090D01*
G02X460851Y192314I-3704J1428D01*
G03Y191686I248J-314D01*
G02X462356Y188575I-2465J-3112D01*
G01Y185425D01*
G02X458386Y181456I-3970J1D01*
G01X452874D01*
G02X448904Y185425I0J3970D01*
G01Y188575D01*
G02X450409Y191686I3970J-1D01*
G03Y192314I-248J314D01*
G02X448904Y195425I2465J3112D01*
G01Y198575D01*
G02X450409Y201686I3970J-1D01*
G03Y202314I-248J314D01*
G02X449636Y203129I2465J3112D01*
G03X449027Y203181I-326J-231D01*
G01X446002Y200156D01*
Y129145D01*
G02X445122Y127023I-3001J1D01*
G01X442977Y124878D01*
G02X441094Y124008I-2123J2122D01*
G02X439851Y122314I-3708J1418D01*
G03Y121686I248J-314D01*
G02X441356Y118575I-2465J-3112D01*
G01Y115425D01*
G02X439851Y112314I-3970J1D01*
G03Y111686I248J-314D01*
G02X441356Y108575I-2465J-3112D01*
G01Y105425D01*
G02X437386Y101456I-3970J1D01*
G01X431872D01*
G02X430082Y101883I1J3970D01*
G03X429502Y101526I-180J-357D01*
G01Y95393D01*
X433956Y90938D01*
X437920D01*
G02X441588Y87270I0J-3668D01*
G01Y82730D01*
G02X437920Y79062I-3668J0D01*
G01X433956D01*
X425342Y70447D01*
Y64368D01*
X425493Y64331D01*
G02X428278Y60770I-884J-3561D01*
G01Y56230D01*
G02X425493Y52669I-3669J0D01*
G01X425342Y52632D01*
Y49824D01*
G02X424462Y47702I-3001J1D01*
G01X396541Y19781D01*
X396599Y19655D01*
G02X397392Y15985I-8099J-3671D01*
G01Y14016D01*
G02X379608I-8892J0D01*
G01Y15984D01*
G02X388500Y24876I8892J0D01*
G02X392296Y24025I0J-8892D01*
G01X419338Y51067D01*
Y52632D01*
X419187Y52669D01*
G02X418074Y53152I884J3561D01*
G03X417473Y52932I-218J-335D01*
G02X416722Y51678I-2873J869D01*
G01X410722Y45678D01*
G02X408600Y44798I-2123J2121D01*
G01X380600D01*
G02X378478Y45678I1J3001D01*
G01X363257Y60898D01*
X332943D01*
X314922Y42878D01*
G02X312800Y41998I-2123J2121D01*
G01X294500D01*
G02X292378Y42878I1J3001D01*
G01X287478Y47778D01*
G02X286598Y49900I2121J2123D01*
G01Y118151D01*
G02X287478Y120273I3001J-1D01*
G01X293904Y126700D01*
Y129575D01*
G02X295409Y132686I3970J-1D01*
G03Y133314I-248J314D01*
G02X293904Y136425I2465J3112D01*
G01Y139575D01*
G02X297874Y143544I3970J-1D01*
G01X303386D01*
G02X306577Y141936I0J-3970D01*
G03X307298Y142174I321J238D01*
G01Y143157D01*
X291378Y159078D01*
G02X290498Y161200I2121J2123D01*
G01Y232300D01*
G02X291378Y234422I3001J-1D01*
G01X294578Y237622D01*
G02X294780Y237807I2126J-2118D01*
G03X294807Y238397I-256J307D01*
G01X292878Y240327D01*
G02X291998Y242449I2121J2123D01*
G01Y297005D01*
X288178Y300826D01*
G02X287298Y302948I2121J2123D01*
G01Y327600D01*
X274200Y340698D01*
X248200D01*
G02X246078Y341578I1J3001D01*
G01X209757Y377898D01*
X192843D01*
X182802Y367857D01*
Y293543D01*
X216622Y259722D01*
G02X217502Y257600I-2121J-2123D01*
G01Y247145D01*
G02X216622Y245023I-3001J1D01*
G01X210477Y238878D01*
G02X208594Y238008I-2123J2122D01*
G02X207351Y236314I-3708J1418D01*
G03Y235686I248J-314D01*
G02X208590Y234002I-2465J-3112D01*
G01X226150D01*
G02X228272Y233122I-1J-3001D01*
G01X233306Y228088D01*
X237270D01*
G02X240938Y224420I0J-3668D01*
G01Y219880D01*
G02X237270Y216212I-3668J0D01*
G01X233306D01*
X215482Y198388D01*
G02X213360Y197508I-2123J2121D01*
G01X213088D01*
Y193730D01*
G02X209420Y190062I-3668J0D01*
G01X204880D01*
G02X201212Y193730I0J3668D01*
G01Y198270D01*
G02X204880Y201938I3668J0D01*
G01X208844D01*
X209538Y202632D01*
G02X211660Y203512I2123J-2121D01*
G01X212117D01*
X229062Y220456D01*
Y223844D01*
X224907Y227998D01*
X208590D01*
G02X207351Y226314I-3704J1428D01*
G03Y225686I248J-314D01*
G02X208856Y222575I-2465J-3112D01*
G01Y219425D01*
G02X204886Y215456I-3970J1D01*
G01X199374D01*
G02X195404Y219425I0J3970D01*
G01Y222575D01*
G02X196909Y225686I3970J-1D01*
G03Y226314I-248J314D01*
G02X195404Y229425I2465J3112D01*
G01Y232575D01*
G02X196909Y235686I3970J-1D01*
G03Y236314I-248J314D01*
G02X195670Y237998I2465J3112D01*
G01X191043D01*
X190802Y237757D01*
Y164443D01*
X200822Y154422D01*
G02X201702Y152300I-2121J-2123D01*
G01Y124389D01*
G02X200822Y122267I-3001J1D01*
G01X194356Y115800D01*
Y112925D01*
G02X192851Y109814I-3970J1D01*
G03Y109186I248J-314D01*
G02X194090Y107502I-2465J-3112D01*
G01X199287D01*
G02X201409Y106622I-1J-3001D01*
G01X214972Y93059D01*
G02X215820Y91371I-2122J-2123D01*
G02X218788Y87770I-701J-3601D01*
G01Y83230D01*
G02X216003Y79669I-3669J0D01*
G01X215852Y79632D01*
Y74700D01*
G02X214972Y72578I-3001J1D01*
G01X201088Y58694D01*
Y54730D01*
G02X197420Y51062I-3668J0D01*
G01X192880D01*
G02X189212Y54730I0J3668D01*
G01Y59270D01*
G02X192880Y62938I3668J0D01*
G01X196844D01*
X209848Y75943D01*
Y79632D01*
X209697Y79669D01*
G02X206912Y83230I884J3561D01*
G01Y87770D01*
G02X208284Y90631I3669J0D01*
G03X208316Y91226I-250J312D01*
G01X198044Y101498D01*
X194090D01*
G02X192851Y99814I-3704J1428D01*
G03Y99186I248J-314D01*
G02X194356Y96075I-2465J-3112D01*
G01Y92925D01*
G02X190386Y88956I-3970J1D01*
G01X184874D01*
G02X180904Y92925I0J3970D01*
G01Y96075D01*
G02X182409Y99186I3970J-1D01*
G03Y99814I-248J314D01*
G02X180904Y102925I2465J3112D01*
G01Y106075D01*
G02X182409Y109186I3970J-1D01*
G03Y109814I-248J314D01*
G02X180904Y112925I2465J3112D01*
G01Y116075D01*
G02X182409Y119186I3970J-1D01*
G03Y119814I-248J314D01*
G02X180904Y122925I2465J3112D01*
G01Y126075D01*
G02X184874Y130044I3970J-1D01*
G01X190386D01*
G02X194356Y126075I0J-3970D01*
G01Y125255D01*
G03X195038Y124972I400J0D01*
G01X195698Y125632D01*
Y151057D01*
X185678Y161078D01*
G02X184798Y163200I2121J2123D01*
G01Y239000D01*
G02X185678Y241122I3001J-1D01*
G01X187678Y243122D01*
G02X189800Y244002I2123J-2121D01*
G01X192737D01*
G03X193020Y244684I0J400D01*
G01X173406Y264298D01*
X164657D01*
G03X164578Y264222I2041J-2201D01*
G01X128378Y228022D01*
G03X127498Y225900I2121J-2123D01*
G01Y209043D01*
X126902Y208446D01*
Y203500D01*
G02X126022Y201378I-3001J1D01*
G01X102022Y177378D01*
G02X99900Y176498I-2123J2121D01*
G01X98590D01*
G02X97351Y174814I-3704J1428D01*
G03Y174186I248J-314D01*
G02X98590Y172502I-2465J-3112D01*
G01X113413D01*
G02X114904Y172105I-1J-3002D01*
G02X118080Y173938I3176J-1835D01*
G01X122620D01*
G02X126288Y170270I0J-3668D01*
G01Y165730D01*
G02X123503Y162169I-3669J0D01*
G01X123352Y162132D01*
Y150150D01*
G02X122472Y148028I-3001J1D01*
G01X106822Y132378D01*
G02X104700Y131498I-2123J2121D01*
G01X97208D01*
X97171Y131347D01*
G02X93610Y128562I-3561J884D01*
G01X89070D01*
G02X85402Y132230I0J3668D01*
G01Y136770D01*
G02X89070Y140438I3668J0D01*
G01X93610D01*
G02X97171Y137653I0J-3669D01*
G01X97208Y137502D01*
X103457D01*
X117348Y151393D01*
Y162132D01*
X117197Y162169D01*
G02X114479Y165030I883J3561D01*
G02X112791Y165878I435J2970D01*
G01X112170Y166498D01*
X98590D01*
G02X97351Y164814I-3704J1428D01*
G03Y164186I248J-314D01*
G02X98856Y161075I-2465J-3112D01*
G01Y157925D01*
G02X94886Y153956I-3970J1D01*
G01X89374D01*
G02X85404Y157925I0J3970D01*
G01Y161075D01*
G02X86909Y164186I3970J-1D01*
G03Y164814I-248J314D01*
G02X85404Y167925I2465J3112D01*
G01Y168745D01*
G03X84722Y169028I-400J0D01*
G01X83702Y168008D01*
Y105948D01*
X86887Y102763D01*
G03X87463Y102774I283J283D01*
G02X87909Y103186I2909J-2702D01*
G03Y103814I-248J314D01*
G02X86404Y106925I2465J3112D01*
G01Y110075D01*
G02X90374Y114044I3970J-1D01*
G01X95886D01*
G02X99856Y110075I0J-3970D01*
G01Y106925D01*
G02X98351Y103814I-3970J1D01*
G03Y103186I248J-314D01*
G02X99856Y100075I-2465J-3112D01*
G01Y96925D01*
G02X98351Y93814I-3970J1D01*
G03Y93186I248J-314D01*
G02X99590Y91502I-2465J-3112D01*
G01X113107D01*
X120562Y98956D01*
Y102920D01*
G02X124230Y106588I3668J0D01*
G01X128770D01*
G02X132438Y102920I0J-3668D01*
G01Y98380D01*
G02X128770Y94712I-3668J0D01*
G01X124806D01*
X116472Y86378D01*
G02X114350Y85498I-2123J2121D01*
G01X102523D01*
G03X102240Y84816I0J-400D01*
G01X105322Y81733D01*
G02X106202Y79611I-2121J-2123D01*
G01Y64860D01*
G02X105322Y62738I-3001J1D01*
G01X99278Y56694D01*
Y52730D01*
G02X95610Y49062I-3668J0D01*
G01X91070D01*
G02X87402Y52730I0J3668D01*
G01Y57270D01*
G02X91070Y60938I3668J0D01*
G01X95034D01*
X100198Y66103D01*
Y74980D01*
G03X99440Y75158I-400J0D01*
G02X95886Y72956I-3554J1768D01*
G01X90374D01*
G02X86404Y76925I0J3970D01*
G01Y80075D01*
G02X87909Y83186I3970J-1D01*
G03Y83814I-248J314D01*
G02X86404Y86925I2465J3112D01*
G01Y90075D01*
G02X87909Y93186I3970J-1D01*
G03Y93814I-248J314D01*
G02X86666Y95508I2465J3112D01*
G02X84783Y96378I240J2992D01*
G01X78578Y102583D01*
G02X77698Y104705I2121J2123D01*
G01Y169251D01*
G02X78578Y171373I3001J-1D01*
G01X85230Y178026D01*
X79078Y184179D01*
G02X78198Y186301I2121J2123D01*
G01Y257295D01*
G02X79078Y259417I3001J-1D01*
G01X85783Y266122D01*
G02X87666Y266992I2123J-2122D01*
G02X88909Y268686I3708J-1418D01*
G03Y269314I-248J314D01*
G02X87404Y272425I2465J3112D01*
G01Y275575D01*
G02X91374Y279544I3970J-1D01*
G01X96886D01*
G02X100856Y275575I0J-3970D01*
G01Y272425D01*
G02X99351Y269314I-3970J1D01*
G03Y268686I248J-314D01*
G02X100590Y267002I-2465J-3112D01*
G01X143457D01*
X168798Y292343D01*
Y371157D01*
X164957Y374998D01*
X122892D01*
Y374719D01*
G02X116297Y368124I-6595J0D01*
G01X111703D01*
G02X105108Y374719I0J6595D01*
G01Y381281D01*
G02X111035Y387842I6595J0D01*
G02X111878Y389496I2965J-469D01*
G01X124404Y402022D01*
G02X126526Y402902I2123J-2121D01*
G01X518601D01*
G02X520723Y402022I-1J-3001D01*
G01X576122Y346623D01*
G02X577002Y344501I-2121J-2123D01*
G01Y190000D01*
G02X576122Y187878I-3001J1D01*
G01X565822Y177578D01*
G02X563700Y176698I-2123J2121D01*
G01X548700D01*
G02X546576Y177579I0J3001D01*
G01X542876Y181284D01*
G02X541998Y183405I2123J2121D01*
G01Y204595D01*
G02X542878Y206717I3001J-1D01*
G01X546283Y210122D01*
G02X546470Y210295I2130J-2115D01*
G02X547909Y212686I3904J-721D01*
G03Y213314I-248J314D01*
G02X546404Y216425I2465J3112D01*
G01Y219575D01*
G02X550374Y223544I3970J-1D01*
G01X555886D01*
G37*
G36*
G01X321562Y38080D02*
Y42620D01*
G02X325230Y46288I3668J0D01*
G01X329770D01*
G02X333371Y43320I0J-3669D01*
G02X335059Y42472I-435J-2970D01*
G01X350622Y26909D01*
G02X351501Y24838I-2122J-2123D01*
G02X357392Y18281I-704J-6557D01*
G01Y11719D01*
G02X350797Y5124I-6595J0D01*
G01X346203D01*
G02X339608Y11719I0J6595D01*
G01Y18281D01*
G02X343819Y24429I6595J-1D01*
G03X343957Y25085I-145J373D01*
G01X333226Y35816D01*
G03X332631Y35784I-283J-282D01*
G02X329770Y34412I-2861J2297D01*
G01X325230D01*
G02X321562Y38080I0J3668D01*
G37*
G36*
G01X353062Y50390D02*
Y54930D01*
G02X356730Y58598I3668J0D01*
G01X361270D01*
G02X364938Y54930I0J-3668D01*
G01Y50390D01*
G02X362153Y46829I-3669J0D01*
G01X362002Y46792D01*
Y35117D01*
X370622Y26496D01*
G02X371502Y24374I-2121J-2123D01*
G02X371501Y24354I-2995J140D01*
G02X377392Y15984I-3001J-8370D01*
G01Y14016D01*
G02X359608I-8892J0D01*
G01Y15984D01*
G02X364163Y23746I8891J0D01*
G03X364251Y24378I-195J349D01*
G01X356878Y31752D01*
G02X355998Y33874I2121J2123D01*
G01Y46792D01*
X355847Y46829D01*
G02X353062Y50390I884J3561D01*
G37*
G36*
G01X501126Y143544D02*
G02X505096Y139575I0J-3970D01*
G01Y136425D01*
G02X503591Y133314I-3970J1D01*
G03Y132686I248J-314D01*
G02X504834Y130992I-2465J-3112D01*
G02X506717Y130122I-240J-2992D01*
G01X514722Y122117D01*
G02X515602Y119995I-2121J-2123D01*
G01Y89940D01*
G02X514722Y87818I-3001J1D01*
G01X510598Y83694D01*
Y79730D01*
G02X507813Y76169I-3669J0D01*
G01X507662Y76132D01*
Y63310D01*
G02X506782Y61188I-3001J1D01*
G01X500288Y54694D01*
Y50730D01*
G02X496620Y47062I-3668J0D01*
G01X492080D01*
G02X488412Y50730I0J3668D01*
G01Y55270D01*
G02X492080Y58938I3668J0D01*
G01X496044D01*
X501658Y64553D01*
Y76132D01*
X501507Y76169D01*
G02X498722Y79730I884J3561D01*
G01Y84270D01*
G02X502390Y87938I3668J0D01*
G01X506354D01*
X509598Y91183D01*
Y118752D01*
X504613Y123737D01*
G03X504037Y123726I-283J-283D01*
G02X501127Y122456I-2910J2700D01*
G01X495614D01*
G02X491644Y126425I0J3970D01*
G01Y129575D01*
G02X493149Y132686I3970J-1D01*
G03Y133314I-248J314D01*
G02X491644Y136425I2465J3112D01*
G01Y139575D01*
G02X495614Y143544I3970J-1D01*
G01X501126D01*
G37*
G36*
G01X45108Y377016D02*
Y378984D01*
G02X62892I8892J0D01*
G01Y377016D01*
G02X57002Y368646I-8892J0D01*
G01Y343018D01*
X57153Y342981D01*
G02X59938Y339420I-884J-3561D01*
G01Y335456D01*
X83393Y312002D01*
X153982D01*
X154019Y312153D01*
G02X157580Y314938I3561J-884D01*
G01X162120D01*
G02X165788Y311270I0J-3668D01*
G01Y306730D01*
G02X162120Y303062I-3668J0D01*
G01X157580D01*
G02X154019Y305847I0J3669D01*
G01X153982Y305998D01*
X82150D01*
G02X80028Y306878I1J3001D01*
G01X55694Y331212D01*
X51730D01*
G02X48062Y334880I0J3668D01*
G01Y339420D01*
G02X50847Y342981I3669J0D01*
G01X50998Y343018D01*
Y368646D01*
G02X45108Y377016I3002J8370D01*
G37*
G36*
G01X85108D02*
Y378984D01*
G02X102892I8892J0D01*
G01Y377016D01*
G02X97002Y368646I-8892J0D01*
G01Y343746D01*
G02X97470Y342521I-2502J-1658D01*
G02X100331Y339803I-700J-3601D01*
G01X100368Y339652D01*
X150820D01*
X152291Y341122D01*
G02X153979Y341970I2123J-2122D01*
G02X157580Y344938I3601J-701D01*
G01X162120D01*
G02X165788Y341270I0J-3668D01*
G01Y336730D01*
G02X162120Y333062I-3668J0D01*
G01X157580D01*
G02X154591Y334603I0J3669D01*
G01X154581Y334617D01*
X154428Y334770D01*
X154185Y334528D01*
G02X152063Y333648I-2123J2121D01*
G01X100368D01*
X100331Y333497D01*
G02X96770Y330712I-3561J884D01*
G01X92230D01*
G02X88562Y334380I0J3668D01*
G01Y338920D01*
G02X91006Y342378I3668J0D01*
G02X90998Y342587I2994J219D01*
G01Y368646D01*
G02X85108Y377016I3002J8370D01*
G37*
%LPD*%
G75*
G54D10*
X20000Y3414D03*
Y396486D03*
X570551Y3414D03*
Y396486D03*
G54D20*
X74000Y378000D03*
X54000D03*
X94000D03*
X186000Y16000D03*
X206000D03*
X226000D03*
X244500Y378000D03*
X264500D03*
X284500D03*
X368500Y15000D03*
X388500D03*
X408500D03*
X409500Y378000D03*
X429500D03*
X449500D03*
G54D11*
X20000Y3414D03*
Y396486D03*
X570551Y3414D03*
Y396486D03*
G54D12*
X31000Y54850D03*
Y98150D03*
X33000Y136850D03*
Y180150D03*
X24000Y293850D03*
Y337150D03*
X54000Y293850D03*
Y337150D03*
X94500Y293350D03*
Y336650D03*
X126500Y57350D03*
Y100650D03*
X235000Y178850D03*
Y222150D03*
G54D21*
X74000Y378000D03*
X54000D03*
X94000D03*
X186000Y16000D03*
X206000D03*
X226000D03*
X244500Y378000D03*
X264500D03*
X284500D03*
X368500Y15000D03*
X388500D03*
X408500D03*
X409500Y378000D03*
X429500D03*
X449500D03*
G54D22*
X114000D03*
X304500D03*
X469500D03*
G54D13*
X31000Y54850D03*
Y98150D03*
X33000Y136850D03*
Y180150D03*
X24000Y293850D03*
Y337150D03*
X54000Y293850D03*
Y337150D03*
X94500Y293350D03*
Y336650D03*
X126500Y57350D03*
Y100650D03*
X235000Y178850D03*
Y222150D03*
G54D23*
X114000Y378000D03*
X304500D03*
X469500D03*
G54D14*
X63660Y55000D03*
X61660Y134500D03*
X93340Y55000D03*
X91340Y134500D03*
X270660Y167500D03*
X300340D03*
X424160Y163500D03*
X441850Y268000D03*
X453840Y163500D03*
X485150Y268000D03*
X509660Y267000D03*
X539340D03*
G54D24*
X166000Y16000D03*
X348500Y15000D03*
G54D15*
X63660Y55000D03*
X61660Y134500D03*
X93340Y55000D03*
X91340Y134500D03*
X270660Y167500D03*
X300340D03*
X424160Y163500D03*
X441850Y268000D03*
X453840Y163500D03*
X485150Y268000D03*
X509660Y267000D03*
X539340D03*
G54D16*
X61870Y98500D03*
Y88500D03*
Y78500D03*
Y108500D03*
X60870Y179500D03*
Y169500D03*
Y159500D03*
Y189500D03*
X62870Y244000D03*
Y264000D03*
Y254000D03*
Y274000D03*
X93130Y78500D03*
Y88500D03*
Y98500D03*
Y108500D03*
X92130Y159500D03*
Y169500D03*
Y179500D03*
Y189500D03*
X94130Y244000D03*
Y254000D03*
Y264000D03*
Y274000D03*
X156370Y94500D03*
Y124500D03*
Y114500D03*
Y104500D03*
X187630Y94500D03*
Y104500D03*
Y114500D03*
Y124500D03*
X170870Y241000D03*
Y231000D03*
Y221000D03*
Y251000D03*
X202130Y221000D03*
Y231000D03*
Y241000D03*
Y251000D03*
X269370Y128000D03*
Y118000D03*
Y108000D03*
Y138000D03*
X271870Y215500D03*
Y235500D03*
Y225500D03*
Y245500D03*
X271370Y292500D03*
Y322500D03*
Y312500D03*
Y302500D03*
X300630Y108000D03*
Y118000D03*
Y128000D03*
Y138000D03*
X303130Y215500D03*
Y225500D03*
Y235500D03*
Y245500D03*
X302630Y292500D03*
Y302500D03*
Y312500D03*
Y322500D03*
X367870Y293500D03*
Y323500D03*
Y313500D03*
Y303500D03*
X403370Y127000D03*
Y117000D03*
Y107000D03*
Y137000D03*
X399130Y293500D03*
Y303500D03*
Y313500D03*
Y323500D03*
X434630Y107000D03*
Y117000D03*
Y127000D03*
Y137000D03*
X424370Y187000D03*
Y207000D03*
Y197000D03*
Y217000D03*
X455630Y187000D03*
Y197000D03*
Y207000D03*
Y217000D03*
X498370Y128000D03*
Y118000D03*
Y108000D03*
Y138000D03*
X529630Y108000D03*
Y118000D03*
Y128000D03*
Y138000D03*
X521870Y208000D03*
Y198000D03*
Y188000D03*
Y218000D03*
X511870Y294500D03*
Y324500D03*
Y314500D03*
Y304500D03*
X553130Y188000D03*
Y198000D03*
Y208000D03*
Y218000D03*
X543130Y294500D03*
Y304500D03*
Y314500D03*
Y324500D03*
G54D25*
X166000Y16000D03*
X348500Y15000D03*
G54D17*
X61870Y98500D03*
Y88500D03*
Y78500D03*
Y108500D03*
X60870Y179500D03*
Y169500D03*
Y159500D03*
Y189500D03*
X62870Y244000D03*
Y264000D03*
Y254000D03*
Y274000D03*
X93130Y78500D03*
Y88500D03*
Y98500D03*
Y108500D03*
X92130Y159500D03*
Y169500D03*
Y179500D03*
Y189500D03*
X94130Y244000D03*
Y254000D03*
Y264000D03*
Y274000D03*
X156370Y94500D03*
Y124500D03*
Y114500D03*
Y104500D03*
X187630Y94500D03*
Y104500D03*
Y114500D03*
Y124500D03*
X170870Y241000D03*
Y231000D03*
Y221000D03*
Y251000D03*
X202130Y221000D03*
Y231000D03*
Y241000D03*
Y251000D03*
X269370Y128000D03*
Y118000D03*
Y108000D03*
Y138000D03*
X271870Y215500D03*
Y235500D03*
Y225500D03*
Y245500D03*
X271370Y292500D03*
Y322500D03*
Y312500D03*
Y302500D03*
X300630Y108000D03*
Y118000D03*
Y128000D03*
Y138000D03*
X303130Y215500D03*
Y225500D03*
Y235500D03*
Y245500D03*
X302630Y292500D03*
Y302500D03*
Y312500D03*
Y322500D03*
X367870Y293500D03*
Y323500D03*
Y313500D03*
Y303500D03*
X403370Y127000D03*
Y117000D03*
Y107000D03*
Y137000D03*
X399130Y293500D03*
Y303500D03*
Y313500D03*
Y323500D03*
X434630Y107000D03*
Y117000D03*
Y127000D03*
Y137000D03*
X424370Y187000D03*
Y207000D03*
Y197000D03*
Y217000D03*
X455630Y187000D03*
Y197000D03*
Y207000D03*
Y217000D03*
X498370Y128000D03*
Y118000D03*
Y108000D03*
Y138000D03*
X529630Y108000D03*
Y118000D03*
Y128000D03*
Y138000D03*
X521870Y208000D03*
Y198000D03*
Y188000D03*
Y218000D03*
X511870Y294500D03*
Y324500D03*
Y314500D03*
Y304500D03*
X553130Y188000D03*
Y198000D03*
Y208000D03*
Y218000D03*
X543130Y294500D03*
Y304500D03*
Y314500D03*
Y324500D03*
G54D26*
X327500Y40350D03*
Y83650D03*
X359000Y52660D03*
Y72340D03*
X375000Y165350D03*
Y208650D03*
X490000Y176350D03*
Y219650D03*
G54D27*
X327500Y40350D03*
Y83650D03*
X359000Y52660D03*
Y72340D03*
X375000Y165350D03*
Y208650D03*
X490000Y176350D03*
Y219650D03*
G54D18*
X53850Y215500D03*
X97150D03*
X120350Y168000D03*
X151850Y57000D03*
X163650Y168000D03*
X163850Y196000D03*
X159850Y309000D03*
Y339000D03*
Y369000D03*
X195150Y57000D03*
X212850Y85500D03*
X207150Y196000D03*
X203150Y309000D03*
Y339000D03*
Y369000D03*
X255850Y56500D03*
X256150Y85500D03*
X269350Y192000D03*
X266850Y270500D03*
X299150Y56500D03*
X312650Y192000D03*
X310150Y270500D03*
X338350Y119000D03*
X381650D03*
X367350Y269500D03*
X402660Y58500D03*
X392350Y85000D03*
X410650Y269500D03*
X422340Y58500D03*
X435650Y85000D03*
X432350Y312500D03*
X494350Y53000D03*
X475650Y312500D03*
X504660Y82000D03*
X524340D03*
X506350Y351500D03*
X537650Y53000D03*
X549650Y351500D03*
G54D28*
G01X59689Y159500D02*
X54489Y164700D01*
X24900D01*
X14600Y175000D01*
Y205100D01*
X53500Y244000D01*
X62870D01*
G01Y254000D02*
X26600D01*
X13400Y267200D01*
Y304100D01*
X17000Y307700D01*
X30100D01*
X43950Y293850D01*
X54000D01*
G01X59689Y159500D02*
X38893D01*
X15900Y136507D01*
Y50199D01*
X63399Y2700D01*
X241601D01*
X275600Y36699D01*
Y102951D01*
X270551Y108000D01*
G01X166000Y16000D02*
X58700D01*
X31000Y43700D01*
Y54850D01*
G01X33000Y136850D02*
X19900Y123750D01*
Y77900D01*
X41900Y55900D01*
Y46000D01*
X57100Y30800D01*
X180574D01*
X186000Y25374D01*
Y16000D01*
G01X61870Y78500D02*
X33201D01*
X23900Y87801D01*
Y111800D01*
X60870Y148770D01*
Y159500D01*
G01X31000Y98150D02*
X55295D01*
X55645Y98500D01*
X61870D01*
G01X33000Y180150D02*
X53995D01*
X54645Y179500D01*
X60870D01*
G01X62870Y264000D02*
X46100D01*
X24000Y286100D01*
Y293850D01*
G01X156370Y94500D02*
X157551D01*
X165400Y86651D01*
Y47800D01*
X158800Y41200D01*
X55300D01*
X48065Y48435D01*
Y59651D01*
X61870Y73456D01*
Y78500D01*
G01X63660Y55000D02*
X75600Y66940D01*
Y90995D01*
X68095Y98500D01*
X61870D01*
G01X60870Y179500D02*
X67095D01*
X70100Y176495D01*
Y142940D01*
X61660Y134500D01*
G01X60870Y159500D02*
X59689D01*
G01X62870Y264000D02*
X64051D01*
X70500Y257551D01*
Y232150D01*
X53850Y215500D01*
G01X54000Y293850D02*
X88563D01*
X89063Y293350D01*
X94500D01*
G01X159850Y309000D02*
X82150D01*
X54000Y337150D01*
G01Y378000D02*
Y337150D01*
G01X94311Y88500D02*
X103200Y79611D01*
Y64860D01*
X93340Y55000D01*
G01X93130Y98500D02*
X86905D01*
X80700Y104705D01*
Y169251D01*
X90949Y179500D01*
G01X93130Y88500D02*
X94311D01*
G01D02*
X114350D01*
X126500Y100650D01*
G01X91340Y134500D02*
X104700D01*
X120350Y150150D01*
Y168000D01*
G01X92130Y179500D02*
X99900D01*
X123900Y203500D01*
Y229600D01*
X161600Y267300D01*
X174649D01*
X200949Y241000D01*
G01X90949Y179500D02*
X92130D01*
G01X90949D02*
X88001D01*
X81200Y186301D01*
Y257295D01*
X87905Y264000D01*
X94130D01*
G01X92130Y169500D02*
X113413D01*
X114913Y168000D01*
X120350D01*
G01X97150Y215500D02*
X86100Y226550D01*
Y247151D01*
X92949Y254000D01*
X94130D01*
G01Y264000D02*
X144700D01*
X171800Y291100D01*
Y372400D01*
X166200Y378000D01*
X114000D01*
G01X94130Y254000D02*
X140357D01*
X175800Y289443D01*
Y371201D01*
X189516Y384917D01*
X238567D01*
X244500Y378984D01*
Y378000D01*
G01X94000D02*
Y342587D01*
X94500Y342087D01*
Y336650D01*
G01D02*
X152063D01*
X154413Y339000D01*
X159850D01*
G01X126500Y57350D02*
X146063D01*
X146413Y57000D01*
X151850D01*
G01X553130Y208000D02*
X548405D01*
X545000Y204595D01*
Y183405D01*
X548700Y179700D01*
X563700D01*
X574000Y190000D01*
Y344501D01*
X518601Y399900D01*
X126526D01*
X114000Y387374D01*
Y378000D01*
G01X156370Y114500D02*
X149601D01*
X144100Y108999D01*
Y70187D01*
X151850Y62437D01*
Y57000D01*
G01X156370Y104500D02*
X171900Y120030D01*
Y200140D01*
X162700Y209340D01*
Y224011D01*
X169689Y231000D01*
X170870D01*
G01X156370Y104500D02*
X172300Y88570D01*
Y59074D01*
X206000Y25374D01*
Y16000D01*
G01X182096Y-45067D02*
X182970Y-44192D01*
X183625Y-42734D01*
X184062Y-40691D01*
X183625Y-38942D01*
X182752Y-37775D01*
X181223Y-36900D01*
X175328D01*
Y-54400D01*
X182533D01*
X184062Y-53234D01*
X184935Y-51483D01*
X185372Y-49442D01*
X184935Y-47400D01*
X183625Y-45650D01*
X182096Y-45067D01*
X175328D01*
G01X197850Y-54400D02*
X196103Y-54108D01*
X194575Y-52942D01*
X193265Y-51192D01*
X192391Y-49150D01*
X191955Y-46817D01*
Y-44483D01*
X192391Y-42150D01*
X193265Y-40108D01*
X194575Y-38359D01*
X196103Y-37192D01*
X197850Y-36900D01*
X199596Y-37192D01*
X201125Y-38359D01*
X202435Y-40108D01*
X203309Y-42150D01*
X203745Y-44483D01*
Y-46817D01*
X203309Y-49150D01*
X202435Y-51192D01*
X201125Y-52942D01*
X199596Y-54108D01*
X197850Y-54400D01*
G01X215350Y-36900D02*
Y-54400D01*
G01X210328Y-36900D02*
X220372D01*
G01X232850D02*
Y-54400D01*
G01X227828Y-36900D02*
X237872D01*
G01X250350Y-54400D02*
X248603Y-54108D01*
X247075Y-52942D01*
X245765Y-51192D01*
X244891Y-49150D01*
X244455Y-46817D01*
Y-44483D01*
X244891Y-42150D01*
X245765Y-40108D01*
X247075Y-38359D01*
X248603Y-37192D01*
X250350Y-36900D01*
X252096Y-37192D01*
X253625Y-38359D01*
X254935Y-40108D01*
X255809Y-42150D01*
X256245Y-44483D01*
Y-46817D01*
X255809Y-49150D01*
X254935Y-51192D01*
X253625Y-52942D01*
X252096Y-54108D01*
X250350Y-54400D01*
G01X262173D02*
Y-36900D01*
X267850Y-51483D01*
X273527Y-36900D01*
Y-54400D01*
G01X278800Y-60233D02*
X291900D01*
G01X298483Y-36900D02*
Y-54400D01*
X307217D01*
G01X314891D02*
X320350Y-36900D01*
X325809Y-54400D01*
G01X323843Y-48275D02*
X316856D01*
G01X337850Y-54400D02*
Y-46525D01*
X333483Y-36900D01*
G01X342217D02*
X337850Y-46525D01*
G01X359717Y-54400D02*
X350983D01*
Y-36900D01*
X359717D01*
G01X356223Y-45358D02*
X350983D01*
G01X368483Y-54400D02*
Y-36900D01*
X373942D01*
X375688Y-37775D01*
X376780Y-38942D01*
X377217Y-41275D01*
X376780Y-43609D01*
X375470Y-45067D01*
X373942Y-45942D01*
X368483D01*
G01X373942D02*
X377217Y-54400D01*
G01X271370Y292500D02*
Y287030D01*
X277000Y281400D01*
Y267200D01*
X255000Y245200D01*
Y226514D01*
X219300Y190814D01*
Y173792D01*
X224900Y168192D01*
Y56500D01*
X213700Y45300D01*
X192300D01*
X176300Y61300D01*
Y216751D01*
X172051Y221000D01*
X170870D01*
G01X163850Y196000D02*
Y173637D01*
X163650Y173437D01*
Y168000D01*
G01X170870Y241000D02*
X164645D01*
X157400Y233755D01*
Y202450D01*
X163850Y196000D01*
G01X301949Y235500D02*
X295000Y242449D01*
Y298248D01*
X290300Y302948D01*
Y328843D01*
X275443Y343700D01*
X248200D01*
X211000Y380900D01*
X191600D01*
X179800Y369100D01*
Y292300D01*
X214500Y257600D01*
Y247145D01*
X208355Y241000D01*
X202130D01*
G01X195150Y57000D02*
X212850Y74700D01*
Y85500D01*
G01X187630Y104500D02*
X199287D01*
X212850Y90937D01*
Y85500D01*
G01X187630Y114500D02*
X188811D01*
X198700Y124389D01*
Y152300D01*
X187800Y163200D01*
Y239000D01*
X189800Y241000D01*
X200949D01*
G01X207150Y196000D02*
X211660Y200510D01*
X213360D01*
X235000Y222150D01*
G01X200949Y241000D02*
X202130D01*
G01Y231000D02*
X226150D01*
X235000Y222150D01*
G01X203150Y369000D02*
X196600Y362450D01*
Y323857D01*
X192700Y319957D01*
Y302100D01*
X215500Y279300D01*
X258050D01*
X266850Y270500D01*
G01X271370Y302500D02*
X270189D01*
X257589Y289900D01*
X210600D01*
X196700Y303800D01*
Y318300D01*
X203150Y324750D01*
Y339000D01*
G01Y309000D02*
X261645D01*
X265145Y312500D01*
X271370D01*
G01X203150Y309000D02*
X216900Y322750D01*
Y355250D01*
X203150Y369000D01*
G01X269370Y108000D02*
Y45809D01*
X262161Y38600D01*
X239600D01*
X234300Y43900D01*
Y170106D01*
X227300Y177106D01*
Y187500D01*
X255300Y215500D01*
X270689D01*
G01X226000Y16000D02*
Y33700D01*
X230300Y38000D01*
Y168449D01*
X223300Y175449D01*
Y189157D01*
X259643Y225500D01*
X271870D01*
G01X235000Y178850D02*
X239510Y174340D01*
Y163390D01*
X255200Y147700D01*
Y137100D01*
X259640Y132656D01*
X267288D01*
X269288Y130656D01*
Y128082D01*
G01X256150Y85500D02*
Y62237D01*
X255850Y61937D01*
Y56500D01*
G01X256150Y85500D02*
X250500Y91150D01*
Y115700D01*
X262882Y128082D01*
X269288D01*
G01X269370Y108000D02*
X270551D01*
G01X269288Y128082D02*
X269370Y128000D01*
G01X271370Y292500D02*
X277595D01*
X284100Y285995D01*
Y163000D01*
X279700Y158600D01*
X263900D01*
X261100Y161400D01*
Y205911D01*
X270689Y215500D01*
G01X269350Y192000D02*
Y174247D01*
X270660Y172937D01*
Y167500D01*
G01X271870Y235500D02*
X273051D01*
X279400Y229151D01*
Y196613D01*
X274787Y192000D01*
X269350D01*
G01X264500Y378000D02*
Y360300D01*
X294300Y330500D01*
Y304605D01*
X296405Y302500D01*
X302630D01*
G01X270551Y108000D02*
X275595D01*
X280200Y103395D01*
Y30100D01*
X312000Y-1700D01*
X440300D01*
X476000Y34000D01*
Y86811D01*
X497189Y108000D01*
X498370D01*
G01X300630Y128000D02*
X299449D01*
X289600Y118151D01*
Y49900D01*
X294500Y45000D01*
X312800D01*
X331700Y63900D01*
X364500D01*
X380600Y47800D01*
X408600D01*
X414600Y53800D01*
Y73100D01*
X421900Y80400D01*
Y115451D01*
X433449Y127000D01*
X434630D01*
G01X301949Y235500D02*
X296700D01*
X293500Y232300D01*
Y161200D01*
X310300Y144400D01*
Y131445D01*
X306855Y128000D01*
X300630D01*
G01X270689Y215500D02*
X271870D01*
G01X284500Y378000D02*
Y365600D01*
X287000Y363100D01*
X393100D01*
X438087Y318113D01*
Y285287D01*
X416563Y263763D01*
X402138D01*
X386000Y279901D01*
Y340800D01*
X377500Y349300D01*
X339600D01*
X331400Y341100D01*
Y251600D01*
X305300Y225500D01*
G01X304769Y117432D02*
X312200Y109999D01*
Y69550D01*
X299150Y56500D01*
G01X300630Y118000D02*
X301198Y117432D01*
X304769D01*
G01D02*
X312300D01*
X320500Y125632D01*
Y147340D01*
X300340Y167500D01*
G01X305300Y225500D02*
X310600D01*
X312700Y223400D01*
Y197487D01*
X312650Y197437D01*
Y192000D01*
G01X301949Y235500D02*
X303130D01*
G01D02*
X304311D01*
X326400Y257589D01*
Y307700D01*
X321600Y312500D01*
X303811D01*
G01X303130Y225500D02*
X305300D01*
G01X310150Y270500D02*
X318300Y278650D01*
Y297600D01*
X313400Y302500D01*
X302630D01*
G01X303811Y312500D02*
X302630D01*
G01X399130Y313500D02*
X392905D01*
X390200Y316205D01*
Y344200D01*
X381100Y353300D01*
X331000D01*
X321300Y343600D01*
Y329989D01*
X303811Y312500D01*
G01X304500Y378000D02*
X391201D01*
X449600Y319601D01*
Y275750D01*
X441850Y268000D01*
G01X553130Y198000D02*
X563300D01*
X568400Y203100D01*
Y342800D01*
X516100Y395100D01*
X320616D01*
X304500Y378984D01*
Y378000D01*
G01X327500Y40350D02*
X332937D01*
X348500Y24787D01*
Y15000D01*
G01X327500Y83650D02*
X385563D01*
X386913Y85000D01*
X392350D01*
G01X423189Y187000D02*
X419489Y183300D01*
X367500D01*
X342900Y207900D01*
Y326300D01*
X347500Y330900D01*
X374500D01*
X376500Y328900D01*
Y295905D01*
X374095Y293500D01*
X367870D01*
G01X367350Y269500D02*
X354800Y282050D01*
Y307300D01*
X361000Y313500D01*
X367870D01*
G01X359000Y52660D02*
Y33874D01*
X368500Y24374D01*
Y15000D01*
G01X403370Y107000D02*
X375900D01*
X358900Y124000D01*
Y167800D01*
X368200Y177100D01*
X422200D01*
X424370Y179270D01*
Y187000D01*
G01X403370Y117000D02*
X389087D01*
X387087Y119000D01*
X381650D01*
G01X424160Y163500D02*
X418723D01*
X416873Y165350D01*
X375000D01*
G01X429500Y378000D02*
Y361400D01*
X461500Y329400D01*
Y269300D01*
X503600Y227200D01*
Y211500D01*
X498900Y206800D01*
X486900D01*
X460300Y233400D01*
X399750D01*
X375000Y208650D01*
G01X409500Y378000D02*
Y365358D01*
X453600Y321258D01*
Y269300D01*
X435900Y251600D01*
X398900D01*
X370500Y280000D01*
X366600D01*
X359800Y286800D01*
Y301655D01*
X361645Y303500D01*
X367870D01*
G01X490000Y219650D02*
X464150Y245500D01*
X398500D01*
X374500Y269500D01*
X367350D01*
G01X422340Y58500D02*
Y49824D01*
X388500Y15984D01*
Y15000D01*
G01X528449Y118000D02*
X513600Y132849D01*
Y143600D01*
X507700Y149500D01*
X470600D01*
X465100Y144000D01*
Y72584D01*
X408500Y15984D01*
Y15000D01*
G01X392350Y85000D02*
Y68810D01*
X402660Y58500D01*
G01X392350Y85000D02*
X403800D01*
X411500Y92700D01*
Y125095D01*
X409595Y127000D01*
X403370D01*
G01X521870Y188000D02*
X500043D01*
X458643Y229400D01*
X419700D01*
X410700Y220400D01*
Y193800D01*
X417500Y187000D01*
X423189D01*
G01X410650Y269500D02*
Y298205D01*
X405355Y303500D01*
X400311D01*
G01D02*
X399130D01*
G01X432350Y312500D02*
X409311D01*
X400311Y303500D01*
G01X422340Y58500D02*
Y71690D01*
X435650Y85000D01*
G01X434630Y117000D02*
X433449D01*
X426500Y110051D01*
Y94150D01*
X435650Y85000D01*
G01X434630Y127000D02*
X440855D01*
X443000Y129145D01*
Y201399D01*
X448601Y207000D01*
X455630D01*
G01X424160Y163500D02*
X438100Y177440D01*
Y199495D01*
X430595Y207000D01*
X424370D01*
G01X423189Y187000D02*
X424370D01*
G01X453840Y163500D02*
X477150D01*
X490000Y176350D01*
G01D02*
X469350Y197000D01*
X455630D01*
G01X529630Y128000D02*
X528449D01*
X519700Y136749D01*
Y157300D01*
X470000Y207000D01*
X455630D01*
G01X521870Y198000D02*
X515645D01*
X509700Y203945D01*
Y227800D01*
X465500Y272000D01*
Y341900D01*
X449500Y357900D01*
Y378000D01*
G01X521870Y188000D02*
X560700Y149170D01*
Y55900D01*
X539300Y34500D01*
X492700D01*
X481700Y45500D01*
Y75800D01*
X498370Y92470D01*
Y108000D01*
G01X504660Y82000D02*
Y63310D01*
X494350Y53000D01*
G01X485150Y268000D02*
X490587D01*
X491587Y267000D01*
X509660D01*
G01X511870Y294500D02*
X481100D01*
X469500Y306100D01*
Y378000D01*
G01X475650Y312500D02*
X503645D01*
X505645Y314500D01*
X508800D01*
G01X537650Y53000D02*
X524340Y66310D01*
Y82000D01*
G01X528449Y118000D02*
X522400Y111951D01*
Y89377D01*
X524340Y87437D01*
Y82000D01*
G01X498370Y128000D02*
X504595D01*
X512600Y119995D01*
Y89940D01*
X504660Y82000D01*
G01X521870Y188000D02*
X534200Y200330D01*
Y236400D01*
X522300Y248300D01*
Y285251D01*
X513051Y294500D01*
X511870D01*
G01X509660Y267000D02*
Y245840D01*
X528395Y227105D01*
Y213344D01*
X523051Y208000D01*
X521870D01*
G01X508800Y314500D02*
X511870D01*
G01X508800D02*
X498300Y325000D01*
Y343450D01*
X506350Y351500D01*
G01X529630Y118000D02*
X528449D01*
G01X553130Y208000D02*
X559355D01*
X564000Y212645D01*
Y303300D01*
X552800Y314500D01*
X543130D01*
G01Y304500D02*
X549355D01*
X552400Y301455D01*
Y280060D01*
X539340Y267000D01*
G01X543130Y304500D02*
X536905D01*
X533200Y308205D01*
Y327700D01*
X549650Y344150D01*
Y351500D01*
G54D19*
X53850Y215500D03*
X97150D03*
X120350Y168000D03*
X151850Y57000D03*
X163650Y168000D03*
X163850Y196000D03*
X159850Y309000D03*
Y339000D03*
Y369000D03*
X195150Y57000D03*
X212850Y85500D03*
X207150Y196000D03*
X203150Y309000D03*
Y339000D03*
Y369000D03*
X255850Y56500D03*
X256150Y85500D03*
X269350Y192000D03*
X266850Y270500D03*
X299150Y56500D03*
X312650Y192000D03*
X310150Y270500D03*
X338350Y119000D03*
X381650D03*
X367350Y269500D03*
X402660Y58500D03*
X392350Y85000D03*
X410650Y269500D03*
X422340Y58500D03*
X435650Y85000D03*
X432350Y312500D03*
X494350Y53000D03*
X475650Y312500D03*
X504660Y82000D03*
X524340D03*
X506350Y351500D03*
X537650Y53000D03*
X549650Y351500D03*
M02*
