G04 ================== begin FILE IDENTIFICATION RECORD ==================*
G04 Layout Name:  analogater_after_clg_arun.brd*
G04 Film Name:    PLACEMENT_TOP*
G04 File Format:  Gerber RS274X*
G04 File Origin:  Cadence Allegro -unreleased*
G04 Origin Date:  Tue Mar 25 13:31:54 2025*
G04 *
G04 Layer:  VIA KEEPOUT/TOP*
G04 Layer:  VIA CLASS/TOP*
G04 Layer:  ROUTE KEEPOUT/TOP*
G04 Layer:  PIN/SOLDERMASK_TOP*
G04 Layer:  PIN/PASTEMASK_TOP*
G04 Layer:  PIN/TOP*
G04 Layer:  PACKAGE KEEPOUT/TOP*
G04 Layer:  PACKAGE GEOMETRY/ASSEMBLY_TOP*
G04 Layer:  PACKAGE GEOMETRY/PLACE_BOUND_TOP*
G04 Layer:  PACKAGE GEOMETRY/SILKSCREEN_TOP*
G04 Layer:  PACKAGE GEOMETRY/SOLDERMASK_TOP*
G04 Layer:  PACKAGE GEOMETRY/PASTEMASK_TOP*
G04 Layer:  ETCH/TOP*
G04 Layer:  BOARD GEOMETRY/OUTLINE*
G04 Layer:  BOARD GEOMETRY/ASSEMBLY_NOTES*
G04 Layer:  BOARD GEOMETRY/SOLDERMASK_TOP*
G04 *
G04 Offset:    (0.00 0.00)*
G04 Mirror:    No*
G04 Mode:      Positive*
G04 Rotation:  0*
G04 FullContactRelief:  No*
G04 UndefLineWidth:     0.00*
G04 ================== end FILE IDENTIFICATION RECORD ====================*
%FSLAX25Y25*MOIN*%
%IR0*IPPOS*OFA0.00000B0.00000*MIA0B0*SFA1.00000B1.00000*%
%AMMACRO15*
4,1,40,-.0227,-.03937,
.0227,-.03937,
.025595,-.039117,
.028401,-.038365,
.031035,-.037137,
.033415,-.03547,
.03547,-.033415,
.037137,-.031035,
.038365,-.028401,
.039117,-.025595,
.03937,-.0227,
.03937,.0227,
.039117,.025595,
.038365,.028401,
.037137,.031035,
.03547,.033415,
.033415,.03547,
.031035,.037137,
.028401,.038365,
.025595,.039117,
.0227,.03937,
-.0227,.03937,
-.025595,.039117,
-.028401,.038365,
-.031035,.037137,
-.033415,.03547,
-.03547,.033415,
-.037137,.031035,
-.038365,.028401,
-.039117,.025595,
-.03937,.0227,
-.03937,-.0227,
-.039117,-.025595,
-.038365,-.028401,
-.037137,-.031035,
-.03547,-.033415,
-.033415,-.03547,
-.031035,-.037137,
-.028401,-.038365,
-.025595,-.039117,
-.0227,-.03937,
0.0*
%
%ADD15MACRO15*%
%AMMACRO13*
4,1,40,.03937,-.0227,
.03937,.0227,
.039117,.025595,
.038365,.028401,
.037137,.031035,
.03547,.033415,
.033415,.03547,
.031035,.037137,
.028401,.038365,
.025595,.039117,
.0227,.03937,
-.0227,.03937,
-.025595,.039117,
-.028401,.038365,
-.031035,.037137,
-.033415,.03547,
-.03547,.033415,
-.037137,.031035,
-.038365,.028401,
-.039117,.025595,
-.03937,.0227,
-.03937,-.0227,
-.039117,-.025595,
-.038365,-.028401,
-.037137,-.031035,
-.03547,-.033415,
-.033415,-.03547,
-.031035,-.037137,
-.028401,-.038365,
-.025595,-.039117,
-.0227,-.03937,
.0227,-.03937,
.025595,-.039117,
.028401,-.038365,
.031035,-.037137,
.033415,-.03547,
.03547,-.033415,
.037137,-.031035,
.038365,-.028401,
.039117,-.025595,
.03937,-.0227,
0.0*
%
%ADD13MACRO13*%
%AMMACRO24*
4,1,40,.02347,.08024,
-.02347,.08024,
-.031619,.079527,
-.039521,.07741,
-.046935,.073953,
-.053636,.06926,
-.05942,.063476,
-.064113,.056775,
-.06757,.049361,
-.069687,.041459,
-.0704,.03331,
-.0704,-.03331,
-.069687,-.041459,
-.06757,-.049361,
-.064113,-.056775,
-.05942,-.063476,
-.053636,-.06926,
-.046935,-.073953,
-.039521,-.07741,
-.031619,-.079527,
-.02347,-.08024,
.02347,-.08024,
.031619,-.079527,
.039521,-.07741,
.046935,-.073953,
.053636,-.06926,
.05942,-.063476,
.064113,-.056775,
.06757,-.049361,
.069687,-.041459,
.0704,-.03331,
.0704,.03331,
.069687,.041459,
.06757,.049361,
.064113,.056775,
.05942,.063476,
.053636,.06926,
.046935,.073953,
.039521,.07741,
.031619,.079527,
.02347,.08024,
0.0*
%
%ADD24MACRO24*%
%AMMACRO26*
4,1,40,-.04087,.01362,
-.04087,-.01362,
-.040456,-.018352,
-.039227,-.02294,
-.037219,-.027245,
-.034495,-.031136,
-.031136,-.034495,
-.027245,-.037219,
-.02294,-.039227,
-.018352,-.040456,
-.01362,-.04087,
.01362,-.04087,
.018352,-.040456,
.02294,-.039227,
.027245,-.037219,
.031136,-.034495,
.034495,-.031136,
.037219,-.027245,
.039227,-.02294,
.040456,-.018352,
.04087,-.01362,
.04087,.01362,
.040456,.018352,
.039227,.02294,
.037219,.027245,
.034495,.031136,
.031136,.034495,
.027245,.037219,
.02294,.039227,
.018352,.040456,
.01362,.04087,
-.01362,.04087,
-.018352,.040456,
-.02294,.039227,
-.027245,.037219,
-.031136,.034495,
-.034495,.031136,
-.037219,.027245,
-.039227,.02294,
-.040456,.018352,
-.04087,.01362,
0.0*
%
%ADD26MACRO26*%
%AMMACRO18*
4,1,40,.01362,.04087,
-.01362,.04087,
-.018352,.040456,
-.02294,.039227,
-.027245,.037219,
-.031136,.034495,
-.034495,.031136,
-.037219,.027245,
-.039227,.02294,
-.040456,.018352,
-.04087,.01362,
-.04087,-.01362,
-.040456,-.018352,
-.039227,-.02294,
-.037219,-.027245,
-.034495,-.031136,
-.031136,-.034495,
-.027245,-.037219,
-.02294,-.039227,
-.018352,-.040456,
-.01362,-.04087,
.01362,-.04087,
.018352,-.040456,
.02294,-.039227,
.027245,-.037219,
.031136,-.034495,
.034495,-.031136,
.037219,-.027245,
.039227,-.02294,
.040456,-.018352,
.04087,-.01362,
.04087,.01362,
.040456,.018352,
.039227,.02294,
.037219,.027245,
.034495,.031136,
.031136,.034495,
.027245,.037219,
.02294,.039227,
.018352,.040456,
.01362,.04087,
0.0*
%
%ADD18MACRO18*%
%AMMACRO25*
4,1,40,.02297,.07874,
-.02297,.07874,
-.030946,.078042,
-.038679,.07597,
-.045935,.072587,
-.052493,.067994,
-.058154,.062333,
-.062747,.055775,
-.06613,.048519,
-.068202,.040786,
-.0689,.03281,
-.0689,-.03281,
-.068202,-.040786,
-.06613,-.048519,
-.062747,-.055775,
-.058154,-.062333,
-.052493,-.067994,
-.045935,-.072587,
-.038679,-.07597,
-.030946,-.078042,
-.02297,-.07874,
.02297,-.07874,
.030946,-.078042,
.038679,-.07597,
.045935,-.072587,
.052493,-.067994,
.058154,-.062333,
.062747,-.055775,
.06613,-.048519,
.068202,-.040786,
.0689,-.03281,
.0689,.03281,
.068202,.040786,
.06613,.048519,
.062747,.055775,
.058154,.062333,
.052493,.067994,
.045935,.072587,
.038679,.07597,
.030946,.078042,
.02297,.07874,
0.0*
%
%ADD25MACRO25*%
%AMMACRO27*
4,1,40,-.03937,.0227,
-.03937,-.0227,
-.039117,-.025595,
-.038365,-.028401,
-.037137,-.031035,
-.03547,-.033415,
-.033415,-.03547,
-.031035,-.037137,
-.028401,-.038365,
-.025595,-.039117,
-.0227,-.03937,
.0227,-.03937,
.025595,-.039117,
.028401,-.038365,
.031035,-.037137,
.033415,-.03547,
.03547,-.033415,
.037137,-.031035,
.038365,-.028401,
.039117,-.025595,
.03937,-.0227,
.03937,.0227,
.039117,.025595,
.038365,.028401,
.037137,.031035,
.03547,.033415,
.033415,.03547,
.031035,.037137,
.028401,.038365,
.025595,.039117,
.0227,.03937,
-.0227,.03937,
-.025595,.039117,
-.028401,.038365,
-.031035,.037137,
-.033415,.03547,
-.03547,.033415,
-.037137,.031035,
-.038365,.028401,
-.039117,.025595,
-.03937,.0227,
0.0*
%
%ADD27MACRO27*%
%AMMACRO19*
4,1,40,.0227,.03937,
-.0227,.03937,
-.025595,.039117,
-.028401,.038365,
-.031035,.037137,
-.033415,.03547,
-.03547,.033415,
-.037137,.031035,
-.038365,.028401,
-.039117,.025595,
-.03937,.0227,
-.03937,-.0227,
-.039117,-.025595,
-.038365,-.028401,
-.037137,-.031035,
-.03547,-.033415,
-.033415,-.03547,
-.031035,-.037137,
-.028401,-.038365,
-.025595,-.039117,
-.0227,-.03937,
.0227,-.03937,
.025595,-.039117,
.028401,-.038365,
.031035,-.037137,
.033415,-.03547,
.03547,-.033415,
.037137,-.031035,
.038365,-.028401,
.039117,-.025595,
.03937,-.0227,
.03937,.0227,
.039117,.025595,
.038365,.028401,
.037137,.031035,
.03547,.033415,
.033415,.03547,
.031035,.037137,
.028401,.038365,
.025595,.039117,
.0227,.03937,
0.0*
%
%ADD19MACRO19*%
%AMMACRO17*
4,1,44,.02755,.03543,
-.02755,.03543,
-.030969,.035137,
-.034285,.034249,
-.037396,.0328,
-.040208,.030832,
-.042635,.028405,
-.044605,.025594,
-.046056,.022484,
-.046945,.019169,
-.047245,.01575,
-.04724,.01574,
-.04724,-.01574,
-.046947,-.019159,
-.046059,-.022475,
-.04461,-.025586,
-.042642,-.028398,
-.040215,-.030825,
-.037404,-.032795,
-.034294,-.034246,
-.030979,-.035135,
-.02756,-.035435,
-.02755,-.03543,
.02755,-.03543,
.030969,-.035137,
.034285,-.034249,
.037396,-.0328,
.040208,-.030832,
.042635,-.028405,
.044605,-.025594,
.046056,-.022484,
.046945,-.019169,
.047245,-.01575,
.04724,-.01574,
.04724,.01574,
.046947,.019159,
.046059,.022475,
.04461,.025586,
.042642,.028398,
.040215,.030825,
.037404,.032795,
.034294,.034246,
.030979,.035135,
.02756,.035435,
.02755,.03543,
0.0*
%
%ADD17MACRO17*%
%AMMACRO16*
4,1,44,.02905,.03693,
-.02905,.03693,
-.032469,.036637,
-.035785,.035749,
-.038896,.0343,
-.041708,.032332,
-.044135,.029905,
-.046105,.027094,
-.047556,.023984,
-.048445,.020669,
-.048745,.01725,
-.04874,.01724,
-.04874,-.01724,
-.048447,-.020659,
-.047559,-.023975,
-.04611,-.027086,
-.044142,-.029898,
-.041715,-.032325,
-.038904,-.034295,
-.035794,-.035746,
-.032479,-.036635,
-.02906,-.036935,
-.02905,-.03693,
.02905,-.03693,
.032469,-.036637,
.035785,-.035749,
.038896,-.0343,
.041708,-.032332,
.044135,-.029905,
.046105,-.027094,
.047556,-.023984,
.048445,-.020669,
.048745,-.01725,
.04874,-.01724,
.04874,.01724,
.048447,.020659,
.047559,.023975,
.04611,.027086,
.044142,.029898,
.041715,.032325,
.038904,.034295,
.035794,.035746,
.032479,.036635,
.02906,.036935,
.02905,.03693,
0.0*
%
%ADD16MACRO16*%
%ADD10C,.161*%
%ADD11C,.158*%
%ADD20O,.1408X.16048*%
%AMMACRO22*
4,1,40,-.02347,-.08024,
.02347,-.08024,
.031619,-.079527,
.039521,-.07741,
.046935,-.073953,
.053636,-.06926,
.05942,-.063476,
.064113,-.056775,
.06757,-.049361,
.069687,-.041459,
.0704,-.03331,
.0704,.03331,
.069687,.041459,
.06757,.049361,
.064113,.056775,
.05942,.063476,
.053636,.06926,
.046935,.073953,
.039521,.07741,
.031619,.079527,
.02347,.08024,
-.02347,.08024,
-.031619,.079527,
-.039521,.07741,
-.046935,.073953,
-.053636,.06926,
-.05942,.063476,
-.064113,.056775,
-.06757,.049361,
-.069687,.041459,
-.0704,.03331,
-.0704,-.03331,
-.069687,-.041459,
-.06757,-.049361,
-.064113,-.056775,
-.05942,-.063476,
-.053636,-.06926,
-.046935,-.073953,
-.039521,-.07741,
-.031619,-.079527,
-.02347,-.08024,
0.0*
%
%ADD22MACRO22*%
%ADD21O,.1378X.15748*%
%AMMACRO14*
4,1,40,-.01362,-.04087,
.01362,-.04087,
.018352,-.040456,
.02294,-.039227,
.027245,-.037219,
.031136,-.034495,
.034495,-.031136,
.037219,-.027245,
.039227,-.02294,
.040456,-.018352,
.04087,-.01362,
.04087,.01362,
.040456,.018352,
.039227,.02294,
.037219,.027245,
.034495,.031136,
.031136,.034495,
.027245,.037219,
.02294,.039227,
.018352,.040456,
.01362,.04087,
-.01362,.04087,
-.018352,.040456,
-.02294,.039227,
-.027245,.037219,
-.031136,.034495,
-.034495,.031136,
-.037219,.027245,
-.039227,.02294,
-.040456,.018352,
-.04087,.01362,
-.04087,-.01362,
-.040456,-.018352,
-.039227,-.02294,
-.037219,-.027245,
-.034495,-.031136,
-.031136,-.034495,
-.027245,-.037219,
-.02294,-.039227,
-.018352,-.040456,
-.01362,-.04087,
0.0*
%
%ADD14MACRO14*%
%AMMACRO12*
4,1,40,.04087,-.01362,
.04087,.01362,
.040456,.018352,
.039227,.02294,
.037219,.027245,
.034495,.031136,
.031136,.034495,
.027245,.037219,
.02294,.039227,
.018352,.040456,
.01362,.04087,
-.01362,.04087,
-.018352,.040456,
-.02294,.039227,
-.027245,.037219,
-.031136,.034495,
-.034495,.031136,
-.037219,.027245,
-.039227,.02294,
-.040456,.018352,
-.04087,.01362,
-.04087,-.01362,
-.040456,-.018352,
-.039227,-.02294,
-.037219,-.027245,
-.034495,-.031136,
-.031136,-.034495,
-.027245,-.037219,
-.02294,-.039227,
-.018352,-.040456,
-.01362,-.04087,
.01362,-.04087,
.018352,-.040456,
.02294,-.039227,
.027245,-.037219,
.031136,-.034495,
.034495,-.031136,
.037219,-.027245,
.039227,-.02294,
.040456,-.018352,
.04087,-.01362,
0.0*
%
%ADD12MACRO12*%
%AMMACRO23*
4,1,40,-.02297,-.07874,
.02297,-.07874,
.030946,-.078042,
.038679,-.07597,
.045935,-.072587,
.052493,-.067994,
.058154,-.062333,
.062747,-.055775,
.06613,-.048519,
.068202,-.040786,
.0689,-.03281,
.0689,.03281,
.068202,.040786,
.06613,.048519,
.062747,.055775,
.058154,.062333,
.052493,.067994,
.045935,.072587,
.038679,.07597,
.030946,.078042,
.02297,.07874,
-.02297,.07874,
-.030946,.078042,
-.038679,.07597,
-.045935,.072587,
-.052493,.067994,
-.058154,.062333,
-.062747,.055775,
-.06613,.048519,
-.068202,.040786,
-.0689,.03281,
-.0689,-.03281,
-.068202,-.040786,
-.06613,-.048519,
-.062747,-.055775,
-.058154,-.062333,
-.052493,-.067994,
-.045935,-.072587,
-.038679,-.07597,
-.030946,-.078042,
-.02297,-.07874,
0.0*
%
%ADD23MACRO23*%
%ADD28C,.02*%
%ADD29C,.005*%
%ADD30C,.006*%
G75*
%LPD*%
G75*
G36*
G01X34350Y101500D02*
Y90870D01*
X37100D01*
Y62130D01*
X34350D01*
Y51500D01*
X27650D01*
Y62130D01*
X24900D01*
Y90870D01*
X27650D01*
Y101500D01*
X34350D01*
G37*
G36*
G01X36350Y183500D02*
Y172870D01*
X39100D01*
Y144130D01*
X36350D01*
Y133500D01*
X29650D01*
Y144130D01*
X26900D01*
Y172870D01*
X29650D01*
Y183500D01*
X36350D01*
G37*
G36*
G01X27350Y340500D02*
Y329870D01*
X30100D01*
Y301130D01*
X27350D01*
Y290500D01*
X20650D01*
Y301130D01*
X17900D01*
Y329870D01*
X20650D01*
Y340500D01*
X27350D01*
G37*
G36*
G01X96760Y50630D02*
Y59370D01*
X60240D01*
Y50630D01*
X96760D01*
G37*
G36*
G01X93750Y73500D02*
Y113500D01*
X61250D01*
Y73500D01*
X93750D01*
G37*
G36*
G01X92750Y154500D02*
Y194500D01*
X60250D01*
Y154500D01*
X92750D01*
G37*
G36*
G01X94760Y130130D02*
Y138870D01*
X58240D01*
Y130130D01*
X94760D01*
G37*
G36*
G01X50500Y218850D02*
X61130D01*
Y221600D01*
X89870D01*
Y218850D01*
X100500D01*
Y212150D01*
X89870D01*
Y209400D01*
X61130D01*
Y212150D01*
X50500D01*
Y218850D01*
G37*
G36*
G01X94750Y239000D02*
Y279000D01*
X62250D01*
Y239000D01*
X94750D01*
G37*
G36*
G01X57350Y340500D02*
Y329870D01*
X60100D01*
Y301130D01*
X57350D01*
Y290500D01*
X50650D01*
Y301130D01*
X47900D01*
Y329870D01*
X50650D01*
Y340500D01*
X57350D01*
G37*
G36*
G01X126360Y361860D02*
Y394140D01*
X44000D01*
Y361860D01*
X126360D01*
G37*
G36*
G01X97850Y340000D02*
Y329370D01*
X100600D01*
Y300630D01*
X97850D01*
Y290000D01*
X91150D01*
Y300630D01*
X88400D01*
Y329370D01*
X91150D01*
Y340000D01*
X97850D01*
G37*
G36*
G01X129850Y104000D02*
Y93370D01*
X132600D01*
Y64630D01*
X129850D01*
Y54000D01*
X123150D01*
Y64630D01*
X120400D01*
Y93370D01*
X123150D01*
Y104000D01*
X129850D01*
G37*
G36*
G01X117000Y171350D02*
X127630D01*
Y174100D01*
X156370D01*
Y171350D01*
X167000D01*
Y164650D01*
X156370D01*
Y161900D01*
X127630D01*
Y164650D01*
X117000D01*
Y171350D01*
G37*
G36*
G01X153640Y32140D02*
Y-140D01*
X236000D01*
Y32140D01*
X153640D01*
G37*
G36*
G01X148500Y60350D02*
X159130D01*
Y63100D01*
X187870D01*
Y60350D01*
X198500D01*
Y53650D01*
X187870D01*
Y50900D01*
X159130D01*
Y53650D01*
X148500D01*
Y60350D01*
G37*
G36*
G01X188250Y89500D02*
Y129500D01*
X155750D01*
Y89500D01*
X188250D01*
G37*
G36*
G01X160500Y199350D02*
X171130D01*
Y202100D01*
X199870D01*
Y199350D01*
X210500D01*
Y192650D01*
X199870D01*
Y189900D01*
X171130D01*
Y192650D01*
X160500D01*
Y199350D01*
G37*
G36*
G01X202750Y216000D02*
Y256000D01*
X170250D01*
Y216000D01*
X202750D01*
G37*
G36*
G01X156500Y312350D02*
X167130D01*
Y315100D01*
X195870D01*
Y312350D01*
X206500D01*
Y305650D01*
X195870D01*
Y302900D01*
X167130D01*
Y305650D01*
X156500D01*
Y312350D01*
G37*
G36*
G01Y342350D02*
X167130D01*
Y345100D01*
X195870D01*
Y342350D01*
X206500D01*
Y335650D01*
X195870D01*
Y332900D01*
X167130D01*
Y335650D01*
X156500D01*
Y342350D01*
G37*
G36*
G01Y372350D02*
X167130D01*
Y375100D01*
X195870D01*
Y372350D01*
X206500D01*
Y365650D01*
X195870D01*
Y362900D01*
X167130D01*
Y365650D01*
X156500D01*
Y372350D01*
G37*
G36*
G01X209500Y88850D02*
X220130D01*
Y91600D01*
X248870D01*
Y88850D01*
X259500D01*
Y82150D01*
X248870D01*
Y79400D01*
X220130D01*
Y82150D01*
X209500D01*
Y88850D01*
G37*
G36*
G01X238350Y225500D02*
Y214870D01*
X241100D01*
Y186130D01*
X238350D01*
Y175500D01*
X231650D01*
Y186130D01*
X228900D01*
Y214870D01*
X231650D01*
Y225500D01*
X238350D01*
G37*
G36*
G01X316860Y361860D02*
Y394140D01*
X234500D01*
Y361860D01*
X316860D01*
G37*
G36*
G01X252500Y59850D02*
X263130D01*
Y62600D01*
X291870D01*
Y59850D01*
X302500D01*
Y53150D01*
X291870D01*
Y50400D01*
X263130D01*
Y53150D01*
X252500D01*
Y59850D01*
G37*
G36*
G01X301250Y103000D02*
Y143000D01*
X268750D01*
Y103000D01*
X301250D01*
G37*
G36*
G01X303760Y163130D02*
Y171870D01*
X267240D01*
Y163130D01*
X303760D01*
G37*
G36*
G01X266000Y195350D02*
X276630D01*
Y198100D01*
X305370D01*
Y195350D01*
X316000D01*
Y188650D01*
X305370D01*
Y185900D01*
X276630D01*
Y188650D01*
X266000D01*
Y195350D01*
G37*
G36*
G01X263500Y273850D02*
X274130D01*
Y276600D01*
X302870D01*
Y273850D01*
X313500D01*
Y267150D01*
X302870D01*
Y264400D01*
X274130D01*
Y267150D01*
X263500D01*
Y273850D01*
G37*
G36*
G01X303750Y210500D02*
Y250500D01*
X271250D01*
Y210500D01*
X303750D01*
G37*
G36*
G01X303250Y287500D02*
Y327500D01*
X270750D01*
Y287500D01*
X303250D01*
G37*
G36*
G01X324150Y37000D02*
Y47630D01*
X321400D01*
Y76370D01*
X324150D01*
Y87000D01*
X330850D01*
Y76370D01*
X333600D01*
Y47630D01*
X330850D01*
Y37000D01*
X324150D01*
G37*
G36*
G01X336140Y31140D02*
Y-1140D01*
X418500D01*
Y31140D01*
X336140D01*
G37*
G36*
G01X351130Y47340D02*
X366870D01*
Y77660D01*
X351130D01*
Y47340D01*
G37*
G36*
G01X335000Y122350D02*
X345630D01*
Y125100D01*
X374370D01*
Y122350D01*
X385000D01*
Y115650D01*
X374370D01*
Y112900D01*
X345630D01*
Y115650D01*
X335000D01*
Y122350D01*
G37*
G36*
G01X371650Y162000D02*
Y172630D01*
X368900D01*
Y201370D01*
X371650D01*
Y212000D01*
X378350D01*
Y201370D01*
X381100D01*
Y172630D01*
X378350D01*
Y162000D01*
X371650D01*
G37*
G36*
G01X364000Y272850D02*
X374630D01*
Y275600D01*
X403370D01*
Y272850D01*
X414000D01*
Y266150D01*
X403370D01*
Y263400D01*
X374630D01*
Y266150D01*
X364000D01*
Y272850D01*
G37*
G36*
G01X399750Y288500D02*
Y328500D01*
X367250D01*
Y288500D01*
X399750D01*
G37*
G36*
G01X397340Y66370D02*
Y50630D01*
X427660D01*
Y66370D01*
X397340D01*
G37*
G36*
G01X389000Y88350D02*
X399630D01*
Y91100D01*
X428370D01*
Y88350D01*
X439000D01*
Y81650D01*
X428370D01*
Y78900D01*
X399630D01*
Y81650D01*
X389000D01*
Y88350D01*
G37*
G36*
G01X435250Y102000D02*
Y142000D01*
X402750D01*
Y102000D01*
X435250D01*
G37*
G36*
G01X481860Y361860D02*
Y394140D01*
X399500D01*
Y361860D01*
X481860D01*
G37*
G36*
G01X456250Y182000D02*
Y222000D01*
X423750D01*
Y182000D01*
X456250D01*
G37*
G36*
G01X457260Y159130D02*
Y167870D01*
X420740D01*
Y159130D01*
X457260D01*
G37*
G36*
G01X488500Y264650D02*
X477870D01*
Y261900D01*
X449130D01*
Y264650D01*
X438500D01*
Y271350D01*
X449130D01*
Y274100D01*
X477870D01*
Y271350D01*
X488500D01*
Y264650D01*
G37*
G36*
G01X429000Y315850D02*
X439630D01*
Y318600D01*
X468370D01*
Y315850D01*
X479000D01*
Y309150D01*
X468370D01*
Y306400D01*
X439630D01*
Y309150D01*
X429000D01*
Y315850D01*
G37*
G36*
G01X491000Y56350D02*
X501630D01*
Y59100D01*
X530370D01*
Y56350D01*
X541000D01*
Y49650D01*
X530370D01*
Y46900D01*
X501630D01*
Y49650D01*
X491000D01*
Y56350D01*
G37*
G36*
G01X486650Y173000D02*
Y183630D01*
X483900D01*
Y212370D01*
X486650D01*
Y223000D01*
X493350D01*
Y212370D01*
X496100D01*
Y183630D01*
X493350D01*
Y173000D01*
X486650D01*
G37*
G36*
G01X499340Y89870D02*
Y74130D01*
X529660D01*
Y89870D01*
X499340D01*
G37*
G36*
G01X530250Y103000D02*
Y143000D01*
X497750D01*
Y103000D01*
X530250D01*
G37*
G36*
G01X553750Y183000D02*
Y223000D01*
X521250D01*
Y183000D01*
X553750D01*
G37*
G36*
G01X542760Y262630D02*
Y271370D01*
X506240D01*
Y262630D01*
X542760D01*
G37*
G36*
G01X543750Y289500D02*
Y329500D01*
X511250D01*
Y289500D01*
X543750D01*
G37*
G36*
G01X503000Y354850D02*
X513630D01*
Y357600D01*
X542370D01*
Y354850D01*
X553000D01*
Y348150D01*
X542370D01*
Y345400D01*
X513630D01*
Y348150D01*
X503000D01*
Y354850D01*
G37*
G54D10*
X20000Y3414D03*
Y396486D03*
X570551Y3414D03*
Y396486D03*
G54D20*
X74000Y378000D03*
X54000D03*
X94000D03*
X186000Y16000D03*
X206000D03*
X226000D03*
X244500Y378000D03*
X264500D03*
X284500D03*
X368500Y15000D03*
X388500D03*
X408500D03*
X409500Y378000D03*
X429500D03*
X449500D03*
G54D11*
X20000Y3414D03*
Y396486D03*
X570551Y3414D03*
Y396486D03*
G54D30*
G01X105940Y401813D02*
Y397813D01*
G01Y398413D02*
X105732Y398080D01*
X105523Y397880D01*
X105190Y397813D01*
X104898Y397880D01*
X104607Y398213D01*
X104482Y398680D01*
X104440Y399147D01*
X104482Y399613D01*
X104607Y400080D01*
X104857Y400347D01*
X105190Y400480D01*
X105482Y400413D01*
X105773Y400213D01*
X105940Y399947D01*
G01X101423Y398147D02*
X101715Y397880D01*
X101965Y397813D01*
X102298Y397947D01*
X102548Y398213D01*
X102715Y398680D01*
X102757Y399147D01*
X102715Y399613D01*
X102548Y400013D01*
X102298Y400347D01*
X101965Y400480D01*
X101673Y400347D01*
X101423Y400080D01*
G01X99740Y400480D02*
Y396480D01*
G01Y398480D02*
X99532Y398080D01*
X99282Y397880D01*
X99032Y397813D01*
X98657Y397947D01*
X98407Y398213D01*
X98240Y398680D01*
Y399213D01*
X98323Y399747D01*
X98490Y400147D01*
X98782Y400413D01*
X99032Y400480D01*
X99282Y400413D01*
X99532Y400213D01*
X99740Y399880D01*
G01X97140Y401813D02*
X94640D01*
G01X93415Y398680D02*
X92082D01*
X92207Y398213D01*
X92415Y397947D01*
X92707Y397813D01*
X92998Y397880D01*
X93248Y398080D01*
X93415Y398547D01*
X93498Y398947D01*
Y399347D01*
X93415Y399747D01*
X93207Y400147D01*
X92957Y400413D01*
X92665Y400480D01*
X92373Y400347D01*
X92082Y399947D01*
G01X88940Y396480D02*
Y400480D01*
G01Y399880D02*
X89107Y400213D01*
X89357Y400413D01*
X89648Y400480D01*
X89982Y400347D01*
X90232Y400013D01*
X90398Y399613D01*
X90440Y399147D01*
X90398Y398680D01*
X90232Y398280D01*
X89982Y397947D01*
X89648Y397813D01*
X89357Y397880D01*
X89148Y398013D01*
X88940Y398280D01*
G01X87173Y401480D02*
X86882Y401747D01*
X86548Y401813D01*
X86257Y401747D01*
X86007Y401413D01*
X85840Y400947D01*
Y397813D01*
G01Y398347D02*
X86007Y398080D01*
X86257Y397880D01*
X86548Y397813D01*
X86882Y397947D01*
X87090Y398213D01*
X87257Y398680D01*
X87340Y399147D01*
X87298Y399547D01*
X87132Y400013D01*
X86882Y400347D01*
X86548Y400480D01*
X86298Y400413D01*
X86007Y400147D01*
X85840Y399880D01*
G01X84115Y398680D02*
X82782D01*
X82907Y398213D01*
X83115Y397947D01*
X83407Y397813D01*
X83698Y397880D01*
X83948Y398080D01*
X84115Y398547D01*
X84198Y398947D01*
Y399347D01*
X84115Y399747D01*
X83907Y400147D01*
X83657Y400413D01*
X83365Y400480D01*
X83073Y400347D01*
X82782Y399947D01*
G01X174060Y-7813D02*
Y-3813D01*
G01Y-4413D02*
X174268Y-4080D01*
X174477Y-3880D01*
X174810Y-3813D01*
X175102Y-3880D01*
X175393Y-4213D01*
X175518Y-4680D01*
X175560Y-5147D01*
X175518Y-5613D01*
X175393Y-6080D01*
X175143Y-6347D01*
X174810Y-6480D01*
X174518Y-6413D01*
X174227Y-6213D01*
X174060Y-5947D01*
G01X178577Y-4147D02*
X178285Y-3880D01*
X178035Y-3813D01*
X177702Y-3947D01*
X177452Y-4213D01*
X177285Y-4680D01*
X177243Y-5147D01*
X177285Y-5613D01*
X177452Y-6013D01*
X177702Y-6347D01*
X178035Y-6480D01*
X178327Y-6347D01*
X178577Y-6080D01*
G01X180260Y-6480D02*
Y-2480D01*
G01Y-4480D02*
X180468Y-4080D01*
X180718Y-3880D01*
X180968Y-3813D01*
X181343Y-3947D01*
X181593Y-4213D01*
X181760Y-4680D01*
Y-5213D01*
X181677Y-5747D01*
X181510Y-6147D01*
X181218Y-6413D01*
X180968Y-6480D01*
X180718Y-6413D01*
X180468Y-6213D01*
X180260Y-5880D01*
G01X182860Y-7813D02*
X185360D01*
G01X186585Y-4680D02*
X187918D01*
X187793Y-4213D01*
X187585Y-3947D01*
X187293Y-3813D01*
X187002Y-3880D01*
X186752Y-4080D01*
X186585Y-4547D01*
X186502Y-4947D01*
Y-5347D01*
X186585Y-5747D01*
X186793Y-6147D01*
X187043Y-6413D01*
X187335Y-6480D01*
X187627Y-6347D01*
X187918Y-5947D01*
G01X191060Y-2480D02*
Y-6480D01*
G01Y-5880D02*
X190893Y-6213D01*
X190643Y-6413D01*
X190352Y-6480D01*
X190018Y-6347D01*
X189768Y-6013D01*
X189602Y-5613D01*
X189560Y-5147D01*
X189602Y-4680D01*
X189768Y-4280D01*
X190018Y-3947D01*
X190352Y-3813D01*
X190643Y-3880D01*
X190852Y-4013D01*
X191060Y-4280D01*
G01X192827Y-7480D02*
X193118Y-7747D01*
X193452Y-7813D01*
X193743Y-7747D01*
X193993Y-7413D01*
X194160Y-6947D01*
Y-3813D01*
G01Y-4347D02*
X193993Y-4080D01*
X193743Y-3880D01*
X193452Y-3813D01*
X193118Y-3947D01*
X192910Y-4213D01*
X192743Y-4680D01*
X192660Y-5147D01*
X192702Y-5547D01*
X192868Y-6013D01*
X193118Y-6347D01*
X193452Y-6480D01*
X193702Y-6413D01*
X193993Y-6147D01*
X194160Y-5880D01*
G01X195885Y-4680D02*
X197218D01*
X197093Y-4213D01*
X196885Y-3947D01*
X196593Y-3813D01*
X196302Y-3880D01*
X196052Y-4080D01*
X195885Y-4547D01*
X195802Y-4947D01*
Y-5347D01*
X195885Y-5747D01*
X196093Y-6147D01*
X196343Y-6413D01*
X196635Y-6480D01*
X196927Y-6347D01*
X197218Y-5947D01*
G01X296440Y401813D02*
Y397813D01*
G01Y398413D02*
X296232Y398080D01*
X296023Y397880D01*
X295690Y397813D01*
X295398Y397880D01*
X295107Y398213D01*
X294982Y398680D01*
X294940Y399147D01*
X294982Y399613D01*
X295107Y400080D01*
X295357Y400347D01*
X295690Y400480D01*
X295982Y400413D01*
X296273Y400213D01*
X296440Y399947D01*
G01X291923Y398147D02*
X292215Y397880D01*
X292465Y397813D01*
X292798Y397947D01*
X293048Y398213D01*
X293215Y398680D01*
X293257Y399147D01*
X293215Y399613D01*
X293048Y400013D01*
X292798Y400347D01*
X292465Y400480D01*
X292173Y400347D01*
X291923Y400080D01*
G01X290240Y400480D02*
Y396480D01*
G01Y398480D02*
X290032Y398080D01*
X289782Y397880D01*
X289532Y397813D01*
X289157Y397947D01*
X288907Y398213D01*
X288740Y398680D01*
Y399213D01*
X288823Y399747D01*
X288990Y400147D01*
X289282Y400413D01*
X289532Y400480D01*
X289782Y400413D01*
X290032Y400213D01*
X290240Y399880D01*
G01X287640Y401813D02*
X285140D01*
G01X283915Y398680D02*
X282582D01*
X282707Y398213D01*
X282915Y397947D01*
X283207Y397813D01*
X283498Y397880D01*
X283748Y398080D01*
X283915Y398547D01*
X283998Y398947D01*
Y399347D01*
X283915Y399747D01*
X283707Y400147D01*
X283457Y400413D01*
X283165Y400480D01*
X282873Y400347D01*
X282582Y399947D01*
G01X279440Y396480D02*
Y400480D01*
G01Y399880D02*
X279607Y400213D01*
X279857Y400413D01*
X280148Y400480D01*
X280482Y400347D01*
X280732Y400013D01*
X280898Y399613D01*
X280940Y399147D01*
X280898Y398680D01*
X280732Y398280D01*
X280482Y397947D01*
X280148Y397813D01*
X279857Y397880D01*
X279648Y398013D01*
X279440Y398280D01*
G01X277673Y401480D02*
X277382Y401747D01*
X277048Y401813D01*
X276757Y401747D01*
X276507Y401413D01*
X276340Y400947D01*
Y397813D01*
G01Y398347D02*
X276507Y398080D01*
X276757Y397880D01*
X277048Y397813D01*
X277382Y397947D01*
X277590Y398213D01*
X277757Y398680D01*
X277840Y399147D01*
X277798Y399547D01*
X277632Y400013D01*
X277382Y400347D01*
X277048Y400480D01*
X276798Y400413D01*
X276507Y400147D01*
X276340Y399880D01*
G01X274615Y398680D02*
X273282D01*
X273407Y398213D01*
X273615Y397947D01*
X273907Y397813D01*
X274198Y397880D01*
X274448Y398080D01*
X274615Y398547D01*
X274698Y398947D01*
Y399347D01*
X274615Y399747D01*
X274407Y400147D01*
X274157Y400413D01*
X273865Y400480D01*
X273573Y400347D01*
X273282Y399947D01*
G01X356560Y-8813D02*
Y-4813D01*
G01Y-5413D02*
X356768Y-5080D01*
X356977Y-4880D01*
X357310Y-4813D01*
X357602Y-4880D01*
X357893Y-5213D01*
X358018Y-5680D01*
X358060Y-6147D01*
X358018Y-6613D01*
X357893Y-7080D01*
X357643Y-7347D01*
X357310Y-7480D01*
X357018Y-7413D01*
X356727Y-7213D01*
X356560Y-6947D01*
G01X361077Y-5147D02*
X360785Y-4880D01*
X360535Y-4813D01*
X360202Y-4947D01*
X359952Y-5213D01*
X359785Y-5680D01*
X359743Y-6147D01*
X359785Y-6613D01*
X359952Y-7013D01*
X360202Y-7347D01*
X360535Y-7480D01*
X360827Y-7347D01*
X361077Y-7080D01*
G01X362760Y-7480D02*
Y-3480D01*
G01Y-5480D02*
X362968Y-5080D01*
X363218Y-4880D01*
X363468Y-4813D01*
X363843Y-4947D01*
X364093Y-5213D01*
X364260Y-5680D01*
Y-6213D01*
X364177Y-6747D01*
X364010Y-7147D01*
X363718Y-7413D01*
X363468Y-7480D01*
X363218Y-7413D01*
X362968Y-7213D01*
X362760Y-6880D01*
G01X365360Y-8813D02*
X367860D01*
G01X369085Y-5680D02*
X370418D01*
X370293Y-5213D01*
X370085Y-4947D01*
X369793Y-4813D01*
X369502Y-4880D01*
X369252Y-5080D01*
X369085Y-5547D01*
X369002Y-5947D01*
Y-6347D01*
X369085Y-6747D01*
X369293Y-7147D01*
X369543Y-7413D01*
X369835Y-7480D01*
X370127Y-7347D01*
X370418Y-6947D01*
G01X373560Y-3480D02*
Y-7480D01*
G01Y-6880D02*
X373393Y-7213D01*
X373143Y-7413D01*
X372852Y-7480D01*
X372518Y-7347D01*
X372268Y-7013D01*
X372102Y-6613D01*
X372060Y-6147D01*
X372102Y-5680D01*
X372268Y-5280D01*
X372518Y-4947D01*
X372852Y-4813D01*
X373143Y-4880D01*
X373352Y-5013D01*
X373560Y-5280D01*
G01X375327Y-8480D02*
X375618Y-8747D01*
X375952Y-8813D01*
X376243Y-8747D01*
X376493Y-8413D01*
X376660Y-7947D01*
Y-4813D01*
G01Y-5347D02*
X376493Y-5080D01*
X376243Y-4880D01*
X375952Y-4813D01*
X375618Y-4947D01*
X375410Y-5213D01*
X375243Y-5680D01*
X375160Y-6147D01*
X375202Y-6547D01*
X375368Y-7013D01*
X375618Y-7347D01*
X375952Y-7480D01*
X376202Y-7413D01*
X376493Y-7147D01*
X376660Y-6880D01*
G01X378385Y-5680D02*
X379718D01*
X379593Y-5213D01*
X379385Y-4947D01*
X379093Y-4813D01*
X378802Y-4880D01*
X378552Y-5080D01*
X378385Y-5547D01*
X378302Y-5947D01*
Y-6347D01*
X378385Y-6747D01*
X378593Y-7147D01*
X378843Y-7413D01*
X379135Y-7480D01*
X379427Y-7347D01*
X379718Y-6947D01*
G01X461440Y401813D02*
Y397813D01*
G01Y398413D02*
X461232Y398080D01*
X461023Y397880D01*
X460690Y397813D01*
X460398Y397880D01*
X460107Y398213D01*
X459982Y398680D01*
X459940Y399147D01*
X459982Y399613D01*
X460107Y400080D01*
X460357Y400347D01*
X460690Y400480D01*
X460982Y400413D01*
X461273Y400213D01*
X461440Y399947D01*
G01X456923Y398147D02*
X457215Y397880D01*
X457465Y397813D01*
X457798Y397947D01*
X458048Y398213D01*
X458215Y398680D01*
X458257Y399147D01*
X458215Y399613D01*
X458048Y400013D01*
X457798Y400347D01*
X457465Y400480D01*
X457173Y400347D01*
X456923Y400080D01*
G01X455240Y400480D02*
Y396480D01*
G01Y398480D02*
X455032Y398080D01*
X454782Y397880D01*
X454532Y397813D01*
X454157Y397947D01*
X453907Y398213D01*
X453740Y398680D01*
Y399213D01*
X453823Y399747D01*
X453990Y400147D01*
X454282Y400413D01*
X454532Y400480D01*
X454782Y400413D01*
X455032Y400213D01*
X455240Y399880D01*
G01X452640Y401813D02*
X450140D01*
G01X448915Y398680D02*
X447582D01*
X447707Y398213D01*
X447915Y397947D01*
X448207Y397813D01*
X448498Y397880D01*
X448748Y398080D01*
X448915Y398547D01*
X448998Y398947D01*
Y399347D01*
X448915Y399747D01*
X448707Y400147D01*
X448457Y400413D01*
X448165Y400480D01*
X447873Y400347D01*
X447582Y399947D01*
G01X444440Y396480D02*
Y400480D01*
G01Y399880D02*
X444607Y400213D01*
X444857Y400413D01*
X445148Y400480D01*
X445482Y400347D01*
X445732Y400013D01*
X445898Y399613D01*
X445940Y399147D01*
X445898Y398680D01*
X445732Y398280D01*
X445482Y397947D01*
X445148Y397813D01*
X444857Y397880D01*
X444648Y398013D01*
X444440Y398280D01*
G01X442673Y401480D02*
X442382Y401747D01*
X442048Y401813D01*
X441757Y401747D01*
X441507Y401413D01*
X441340Y400947D01*
Y397813D01*
G01Y398347D02*
X441507Y398080D01*
X441757Y397880D01*
X442048Y397813D01*
X442382Y397947D01*
X442590Y398213D01*
X442757Y398680D01*
X442840Y399147D01*
X442798Y399547D01*
X442632Y400013D01*
X442382Y400347D01*
X442048Y400480D01*
X441798Y400413D01*
X441507Y400147D01*
X441340Y399880D01*
G01X439615Y398680D02*
X438282D01*
X438407Y398213D01*
X438615Y397947D01*
X438907Y397813D01*
X439198Y397880D01*
X439448Y398080D01*
X439615Y398547D01*
X439698Y398947D01*
Y399347D01*
X439615Y399747D01*
X439407Y400147D01*
X439157Y400413D01*
X438865Y400480D01*
X438573Y400347D01*
X438282Y399947D01*
G54D12*
X31000Y54850D03*
Y98150D03*
X33000Y136850D03*
Y180150D03*
X24000Y293850D03*
Y337150D03*
X54000Y293850D03*
Y337150D03*
X94500Y293350D03*
Y336650D03*
X126500Y57350D03*
Y100650D03*
X235000Y178850D03*
Y222150D03*
G54D21*
X74000Y378000D03*
X54000D03*
X94000D03*
X186000Y16000D03*
X206000D03*
X226000D03*
X244500Y378000D03*
X264500D03*
X284500D03*
X368500Y15000D03*
X388500D03*
X408500D03*
X409500Y378000D03*
X429500D03*
X449500D03*
G54D22*
X114000D03*
X304500D03*
X469500D03*
G54D13*
X31000Y54850D03*
Y98150D03*
X33000Y136850D03*
Y180150D03*
X24000Y293850D03*
Y337150D03*
X54000Y293850D03*
Y337150D03*
X94500Y293350D03*
Y336650D03*
X126500Y57350D03*
Y100650D03*
X235000Y178850D03*
Y222150D03*
G54D23*
X114000Y378000D03*
X304500D03*
X469500D03*
G54D14*
X63660Y55000D03*
X61660Y134500D03*
X93340Y55000D03*
X91340Y134500D03*
X270660Y167500D03*
X300340D03*
X424160Y163500D03*
X441850Y268000D03*
X453840Y163500D03*
X485150Y268000D03*
X509660Y267000D03*
X539340D03*
G54D24*
X166000Y16000D03*
X348500Y15000D03*
G54D15*
X63660Y55000D03*
X61660Y134500D03*
X93340Y55000D03*
X91340Y134500D03*
X270660Y167500D03*
X300340D03*
X424160Y163500D03*
X441850Y268000D03*
X453840Y163500D03*
X485150Y268000D03*
X509660Y267000D03*
X539340D03*
G54D16*
X61870Y98500D03*
Y88500D03*
Y78500D03*
Y108500D03*
X60870Y179500D03*
Y169500D03*
Y159500D03*
Y189500D03*
X62870Y244000D03*
Y264000D03*
Y254000D03*
Y274000D03*
X93130Y78500D03*
Y88500D03*
Y98500D03*
Y108500D03*
X92130Y159500D03*
Y169500D03*
Y179500D03*
Y189500D03*
X94130Y244000D03*
Y254000D03*
Y264000D03*
Y274000D03*
X156370Y94500D03*
Y124500D03*
Y114500D03*
Y104500D03*
X187630Y94500D03*
Y104500D03*
Y114500D03*
Y124500D03*
X170870Y241000D03*
Y231000D03*
Y221000D03*
Y251000D03*
X202130Y221000D03*
Y231000D03*
Y241000D03*
Y251000D03*
X269370Y128000D03*
Y118000D03*
Y108000D03*
Y138000D03*
X271870Y215500D03*
Y235500D03*
Y225500D03*
Y245500D03*
X271370Y292500D03*
Y322500D03*
Y312500D03*
Y302500D03*
X300630Y108000D03*
Y118000D03*
Y128000D03*
Y138000D03*
X303130Y215500D03*
Y225500D03*
Y235500D03*
Y245500D03*
X302630Y292500D03*
Y302500D03*
Y312500D03*
Y322500D03*
X367870Y293500D03*
Y323500D03*
Y313500D03*
Y303500D03*
X403370Y127000D03*
Y117000D03*
Y107000D03*
Y137000D03*
X399130Y293500D03*
Y303500D03*
Y313500D03*
Y323500D03*
X434630Y107000D03*
Y117000D03*
Y127000D03*
Y137000D03*
X424370Y187000D03*
Y207000D03*
Y197000D03*
Y217000D03*
X455630Y187000D03*
Y197000D03*
Y207000D03*
Y217000D03*
X498370Y128000D03*
Y118000D03*
Y108000D03*
Y138000D03*
X529630Y108000D03*
Y118000D03*
Y128000D03*
Y138000D03*
X521870Y208000D03*
Y198000D03*
Y188000D03*
Y218000D03*
X511870Y294500D03*
Y324500D03*
Y314500D03*
Y304500D03*
X553130Y188000D03*
Y198000D03*
Y208000D03*
Y218000D03*
X543130Y294500D03*
Y304500D03*
Y314500D03*
Y324500D03*
G54D25*
X166000Y16000D03*
X348500Y15000D03*
G54D17*
X61870Y98500D03*
Y88500D03*
Y78500D03*
Y108500D03*
X60870Y179500D03*
Y169500D03*
Y159500D03*
Y189500D03*
X62870Y244000D03*
Y264000D03*
Y254000D03*
Y274000D03*
X93130Y78500D03*
Y88500D03*
Y98500D03*
Y108500D03*
X92130Y159500D03*
Y169500D03*
Y179500D03*
Y189500D03*
X94130Y244000D03*
Y254000D03*
Y264000D03*
Y274000D03*
X156370Y94500D03*
Y124500D03*
Y114500D03*
Y104500D03*
X187630Y94500D03*
Y104500D03*
Y114500D03*
Y124500D03*
X170870Y241000D03*
Y231000D03*
Y221000D03*
Y251000D03*
X202130Y221000D03*
Y231000D03*
Y241000D03*
Y251000D03*
X269370Y128000D03*
Y118000D03*
Y108000D03*
Y138000D03*
X271870Y215500D03*
Y235500D03*
Y225500D03*
Y245500D03*
X271370Y292500D03*
Y322500D03*
Y312500D03*
Y302500D03*
X300630Y108000D03*
Y118000D03*
Y128000D03*
Y138000D03*
X303130Y215500D03*
Y225500D03*
Y235500D03*
Y245500D03*
X302630Y292500D03*
Y302500D03*
Y312500D03*
Y322500D03*
X367870Y293500D03*
Y323500D03*
Y313500D03*
Y303500D03*
X403370Y127000D03*
Y117000D03*
Y107000D03*
Y137000D03*
X399130Y293500D03*
Y303500D03*
Y313500D03*
Y323500D03*
X434630Y107000D03*
Y117000D03*
Y127000D03*
Y137000D03*
X424370Y187000D03*
Y207000D03*
Y197000D03*
Y217000D03*
X455630Y187000D03*
Y197000D03*
Y207000D03*
Y217000D03*
X498370Y128000D03*
Y118000D03*
Y108000D03*
Y138000D03*
X529630Y108000D03*
Y118000D03*
Y128000D03*
Y138000D03*
X521870Y208000D03*
Y198000D03*
Y188000D03*
Y218000D03*
X511870Y294500D03*
Y324500D03*
Y314500D03*
Y304500D03*
X553130Y188000D03*
Y198000D03*
Y208000D03*
Y218000D03*
X543130Y294500D03*
Y304500D03*
Y314500D03*
Y324500D03*
G54D26*
X327500Y40350D03*
Y83650D03*
X359000Y52660D03*
Y72340D03*
X375000Y165350D03*
Y208650D03*
X490000Y176350D03*
Y219650D03*
G54D27*
X327500Y40350D03*
Y83650D03*
X359000Y52660D03*
Y72340D03*
X375000Y165350D03*
Y208650D03*
X490000Y176350D03*
Y219650D03*
G54D18*
X53850Y215500D03*
X97150D03*
X120350Y168000D03*
X151850Y57000D03*
X163650Y168000D03*
X163850Y196000D03*
X159850Y309000D03*
Y339000D03*
Y369000D03*
X195150Y57000D03*
X212850Y85500D03*
X207150Y196000D03*
X203150Y309000D03*
Y339000D03*
Y369000D03*
X255850Y56500D03*
X256150Y85500D03*
X269350Y192000D03*
X266850Y270500D03*
X299150Y56500D03*
X312650Y192000D03*
X310150Y270500D03*
X338350Y119000D03*
X381650D03*
X367350Y269500D03*
X402660Y58500D03*
X392350Y85000D03*
X410650Y269500D03*
X422340Y58500D03*
X435650Y85000D03*
X432350Y312500D03*
X494350Y53000D03*
X475650Y312500D03*
X504660Y82000D03*
X524340D03*
X506350Y351500D03*
X537650Y53000D03*
X549650Y351500D03*
G54D28*
G01X248450Y-32400D02*
Y-49900D01*
G01X243428Y-32400D02*
X253472D01*
G01X265950Y-49900D02*
X264203Y-49608D01*
X262675Y-48442D01*
X261365Y-46692D01*
X260491Y-44650D01*
X260055Y-42317D01*
Y-39983D01*
X260491Y-37650D01*
X261365Y-35608D01*
X262675Y-33859D01*
X264203Y-32692D01*
X265950Y-32400D01*
X267696Y-32692D01*
X269225Y-33859D01*
X270535Y-35608D01*
X271409Y-37650D01*
X271845Y-39983D01*
Y-42317D01*
X271409Y-44650D01*
X270535Y-46692D01*
X269225Y-48442D01*
X267696Y-49608D01*
X265950Y-49900D01*
G01X279083D02*
Y-32400D01*
X284323D01*
X286070Y-33275D01*
X287380Y-35317D01*
X287817Y-37650D01*
X287380Y-39983D01*
X286288Y-41733D01*
X284323Y-42609D01*
X279083D01*
G54D19*
X53850Y215500D03*
X97150D03*
X120350Y168000D03*
X151850Y57000D03*
X163650Y168000D03*
X163850Y196000D03*
X159850Y309000D03*
Y339000D03*
Y369000D03*
X195150Y57000D03*
X212850Y85500D03*
X207150Y196000D03*
X203150Y309000D03*
Y339000D03*
Y369000D03*
X255850Y56500D03*
X256150Y85500D03*
X269350Y192000D03*
X266850Y270500D03*
X299150Y56500D03*
X312650Y192000D03*
X310150Y270500D03*
X338350Y119000D03*
X381650D03*
X367350Y269500D03*
X402660Y58500D03*
X392350Y85000D03*
X410650Y269500D03*
X422340Y58500D03*
X435650Y85000D03*
X432350Y312500D03*
X494350Y53000D03*
X475650Y312500D03*
X504660Y82000D03*
X524340D03*
X506350Y351500D03*
X537650Y53000D03*
X549650Y351500D03*
G54D29*
G01X34850Y102000D02*
Y91370D01*
X37600D01*
Y61630D01*
X34850D01*
Y51000D01*
X27150D01*
Y61630D01*
X24400D01*
Y91370D01*
X27150D01*
Y102000D01*
X34850D01*
G01X36120Y89890D02*
X25880D01*
Y63110D01*
X36120D01*
Y89890D01*
G01X31000Y57210D02*
Y63110D01*
G01Y95790D02*
Y89890D01*
G01X36850Y184000D02*
Y173370D01*
X39600D01*
Y143630D01*
X36850D01*
Y133000D01*
X29150D01*
Y143630D01*
X26400D01*
Y173370D01*
X29150D01*
Y184000D01*
X36850D01*
G01X38120Y171890D02*
X27880D01*
Y145110D01*
X38120D01*
Y171890D01*
G01X33000Y139210D02*
Y145110D01*
G01Y177790D02*
Y171890D01*
G01X27850Y341000D02*
Y330370D01*
X30600D01*
Y300630D01*
X27850D01*
Y290000D01*
X20150D01*
Y300630D01*
X17400D01*
Y330370D01*
X20150D01*
Y341000D01*
X27850D01*
G01X24000Y296210D02*
Y302110D01*
G01X29120Y328890D02*
X18880D01*
Y302110D01*
X29120D01*
Y328890D01*
G01X24000Y334790D02*
Y328890D01*
G01X97260Y50130D02*
X59740D01*
Y59870D01*
X97260D01*
Y50130D01*
G01X60250Y72500D02*
X94750D01*
G01X60250Y114500D02*
X94750D01*
Y72500D01*
X60250D01*
Y114500D01*
G01X56510Y113800D02*
G03I-1410J0D01*
G01X62910Y108500D02*
G03I-1410J0D01*
G01X60250Y114500D02*
X94750D01*
G01X59250Y153500D02*
X93750D01*
G01X59250Y195500D02*
X93750D01*
Y153500D01*
X59250D01*
Y195500D01*
G01X95260Y129630D02*
X57740D01*
Y139370D01*
X95260D01*
Y129630D01*
G01X83990Y131110D02*
X69010D01*
Y137890D01*
X83990D01*
Y131110D01*
G01D02*
X69010D01*
Y137890D01*
X83990D01*
Y131110D01*
G01X54210Y189900D02*
G03I-1410J0D01*
G01X61910Y189500D02*
G03I-1410J0D01*
G01X59250Y195500D02*
X93750D01*
G01X50000Y219350D02*
X60630D01*
Y222100D01*
X90370D01*
Y219350D01*
X101000D01*
Y211650D01*
X90370D01*
Y208900D01*
X60630D01*
Y211650D01*
X50000D01*
Y219350D01*
G01X62110Y220620D02*
Y210380D01*
X88890D01*
Y220620D01*
X62110D01*
G01X61250Y238000D02*
X95750D01*
G01X61250Y280000D02*
X95750D01*
Y238000D01*
X61250D01*
Y280000D01*
G01X56210Y215500D02*
X62110D01*
G01X56110Y274000D02*
G03I-1410J0D01*
G01X63910D02*
G03I-1410J0D01*
G01X61250Y280000D02*
X95750D01*
G01X57850Y341000D02*
Y330370D01*
X60600D01*
Y300630D01*
X57850D01*
Y290000D01*
X50150D01*
Y300630D01*
X47400D01*
Y330370D01*
X50150D01*
Y341000D01*
X57850D01*
G01X54000Y296210D02*
Y302110D01*
G01X59120Y328890D02*
X48880D01*
Y302110D01*
X59120D01*
Y328890D01*
G01X54000Y334790D02*
Y328890D01*
G01X127340Y360870D02*
X43020D01*
Y395130D01*
X127340D01*
Y360870D01*
G01D02*
X43020D01*
Y395130D01*
X127340D01*
Y360870D01*
G01X80200Y46500D02*
X84100D01*
G01X77600D02*
X73700D01*
G01X80200Y43900D02*
Y49100D01*
G01Y46500D02*
X77600Y43900D01*
G01D02*
Y49100D01*
G01D02*
X80200Y46500D01*
G01D02*
X84100D01*
G01X77600D02*
X73700D01*
G01X80200Y43900D02*
Y49100D01*
G01Y46500D02*
X77600Y43900D01*
Y49100D01*
X80200Y46500D01*
G01X85990Y51610D02*
X71010D01*
Y58390D01*
X85990D01*
Y51610D01*
G01D02*
X71010D01*
Y58390D01*
X85990D01*
Y51610D01*
G01X78200Y126000D02*
X82100D01*
G01X75600D02*
X71700D01*
G01X78200Y123400D02*
Y128600D01*
G01Y126000D02*
X75600Y123400D01*
G01D02*
Y128600D01*
G01D02*
X78200Y126000D01*
G01D02*
X82100D01*
G01X75600D02*
X71700D01*
G01X78200Y123400D02*
Y128600D01*
G01Y126000D02*
X75600Y123400D01*
Y128600D01*
X78200Y126000D01*
G01X94790Y215500D02*
X88890D01*
G01X98350Y340500D02*
Y329870D01*
X101100D01*
Y300130D01*
X98350D01*
Y289500D01*
X90650D01*
Y300130D01*
X87900D01*
Y329870D01*
X90650D01*
Y340500D01*
X98350D01*
G01X94500Y295710D02*
Y301610D01*
G01X99620Y328390D02*
X89380D01*
Y301610D01*
X99620D01*
Y328390D01*
G01X94500Y334290D02*
Y328390D01*
G01X130350Y104500D02*
Y93870D01*
X133100D01*
Y64130D01*
X130350D01*
Y53500D01*
X122650D01*
Y64130D01*
X119900D01*
Y93870D01*
X122650D01*
Y104500D01*
X130350D01*
G01X131620Y92390D02*
X121380D01*
Y65610D01*
X131620D01*
Y92390D01*
G01X126500Y59710D02*
Y65610D01*
G01Y98290D02*
Y92390D01*
G01X116500Y171850D02*
X127130D01*
Y174600D01*
X156870D01*
Y171850D01*
X167500D01*
Y164150D01*
X156870D01*
Y161400D01*
X127130D01*
Y164150D01*
X116500D01*
Y171850D01*
G01X122710Y168000D02*
X128610D01*
G01X152060Y16470D02*
X145720Y10130D01*
Y22810D01*
X152060Y16470D01*
G01D02*
X145720Y10130D01*
Y22810D01*
X152060Y16470D01*
G01X152660Y33130D02*
X236980D01*
Y-1130D01*
X152660D01*
Y33130D01*
G01D02*
X236980D01*
Y-1130D01*
X152660D01*
Y33130D01*
G01X148000Y60850D02*
X158630D01*
Y63600D01*
X188370D01*
Y60850D01*
X199000D01*
Y53150D01*
X188370D01*
Y50400D01*
X158630D01*
Y53150D01*
X148000D01*
Y60850D01*
G01X154210Y57000D02*
X160110D01*
G01X154750Y88500D02*
X189250D01*
G01X154750Y130500D02*
X189250D01*
Y88500D01*
X154750D01*
Y130500D01*
G01X157410Y124500D02*
G03I-1410J0D01*
G01X150810Y130200D02*
G03I-1410J0D01*
G01X154750Y130500D02*
X189250D01*
G01X128610Y173120D02*
Y162880D01*
X155390D01*
Y173120D01*
X128610D01*
G01X161290Y168000D02*
X155390D01*
G01X127940Y377530D02*
X134280Y383870D01*
Y371190D01*
X127940Y377530D01*
G01D02*
X134280Y383870D01*
Y371190D01*
X127940Y377530D01*
G01X160110Y62120D02*
Y51880D01*
X186890D01*
Y62120D01*
X160110D01*
G01X160000Y199850D02*
X170630D01*
Y202600D01*
X200370D01*
Y199850D01*
X211000D01*
Y192150D01*
X200370D01*
Y189400D01*
X170630D01*
Y192150D01*
X160000D01*
Y199850D01*
G01X172110Y201120D02*
Y190880D01*
X198890D01*
Y201120D01*
X172110D01*
G01X166210Y196000D02*
X172110D01*
G01X169250Y215000D02*
X203750D01*
G01X169250Y257000D02*
X203750D01*
Y215000D01*
X169250D01*
Y257000D01*
G01X163710Y249900D02*
G03I-1410J0D01*
G01X171910Y251000D02*
G03I-1410J0D01*
G01X169250Y257000D02*
X203750D01*
G01X156000Y312850D02*
X166630D01*
Y315600D01*
X196370D01*
Y312850D01*
X207000D01*
Y305150D01*
X196370D01*
Y302400D01*
X166630D01*
Y305150D01*
X156000D01*
Y312850D01*
G01X168110Y314120D02*
Y303880D01*
X194890D01*
Y314120D01*
X168110D01*
G01X162210Y309000D02*
X168110D01*
G01X156000Y342850D02*
X166630D01*
Y345600D01*
X196370D01*
Y342850D01*
X207000D01*
Y335150D01*
X196370D01*
Y332400D01*
X166630D01*
Y335150D01*
X156000D01*
Y342850D01*
G01X168110Y344120D02*
Y333880D01*
X194890D01*
Y344120D01*
X168110D01*
G01X162210Y339000D02*
X168110D01*
G01X156000Y372850D02*
X166630D01*
Y375600D01*
X196370D01*
Y372850D01*
X207000D01*
Y365150D01*
X196370D01*
Y362400D01*
X166630D01*
Y365150D01*
X156000D01*
Y372850D01*
G01X168110Y374120D02*
Y363880D01*
X194890D01*
Y374120D01*
X168110D01*
G01X162210Y369000D02*
X168110D01*
G01X192790Y57000D02*
X186890D01*
G01X209000Y89350D02*
X219630D01*
Y92100D01*
X249370D01*
Y89350D01*
X260000D01*
Y81650D01*
X249370D01*
Y78900D01*
X219630D01*
Y81650D01*
X209000D01*
Y89350D01*
G01X204790Y196000D02*
X198890D01*
G01X200790Y309000D02*
X194890D01*
G01X200790Y339000D02*
X194890D01*
G01X200790Y369000D02*
X194890D01*
G01X221110Y90620D02*
Y80380D01*
X247890D01*
Y90620D01*
X221110D01*
G01X215210Y85500D02*
X221110D01*
G01X238850Y226000D02*
Y215370D01*
X241600D01*
Y185630D01*
X238850D01*
Y175000D01*
X231150D01*
Y185630D01*
X228400D01*
Y215370D01*
X231150D01*
Y226000D01*
X238850D01*
G01X235000Y181210D02*
Y187110D01*
G01X240120Y213890D02*
X229880D01*
Y187110D01*
X240120D01*
Y213890D01*
G01X235000Y219790D02*
Y213890D01*
G01X317840Y360870D02*
X233520D01*
Y395130D01*
X317840D01*
Y360870D01*
G01D02*
X233520D01*
Y395130D01*
X317840D01*
Y360870D01*
G01X252000Y60350D02*
X262630D01*
Y63100D01*
X292370D01*
Y60350D01*
X303000D01*
Y52650D01*
X292370D01*
Y49900D01*
X262630D01*
Y52650D01*
X252000D01*
Y60350D01*
G01X264110Y61620D02*
Y51380D01*
X290890D01*
Y61620D01*
X264110D01*
G01X258210Y56500D02*
X264110D01*
G01X253790Y85500D02*
X247890D01*
G01X267750Y102000D02*
X302250D01*
G01X267750Y144000D02*
X302250D01*
Y102000D01*
X267750D01*
Y144000D01*
G01X265910Y138000D02*
G03I-1410J0D01*
G01X270410D02*
G03I-1410J0D01*
G01X267750Y144000D02*
X302250D01*
G01X304260Y162630D02*
X266740D01*
Y172370D01*
X304260D01*
Y162630D01*
G01X265500Y195850D02*
X276130D01*
Y198600D01*
X305870D01*
Y195850D01*
X316500D01*
Y188150D01*
X305870D01*
Y185400D01*
X276130D01*
Y188150D01*
X265500D01*
Y195850D01*
G01X265510Y247900D02*
G03I-1410J0D01*
G01X263000Y274350D02*
X273630D01*
Y277100D01*
X303370D01*
Y274350D01*
X314000D01*
Y266650D01*
X303370D01*
Y263900D01*
X273630D01*
Y266650D01*
X263000D01*
Y274350D01*
G01X269210Y270500D02*
X275110D01*
G01X265310Y323000D02*
G03I-1410J0D01*
G01X296790Y56500D02*
X290890D01*
G01X287200Y159000D02*
X291100D01*
G01X284600D02*
X280700D01*
G01X287200Y156400D02*
Y161600D01*
G01Y159000D02*
X284600Y156400D01*
G01D02*
Y161600D01*
G01D02*
X287200Y159000D01*
G01D02*
X291100D01*
G01X284600D02*
X280700D01*
G01X287200Y156400D02*
Y161600D01*
G01Y159000D02*
X284600Y156400D01*
Y161600D01*
X287200Y159000D01*
G01X292990Y164110D02*
X278010D01*
Y170890D01*
X292990D01*
Y164110D01*
G01D02*
X278010D01*
Y170890D01*
X292990D01*
Y164110D01*
G01X270250Y209500D02*
X304750D01*
G01X270250Y251500D02*
X304750D01*
Y209500D01*
X270250D01*
Y251500D01*
G01X277610Y197120D02*
Y186880D01*
X304390D01*
Y197120D01*
X277610D01*
G01X271710Y192000D02*
X277610D01*
G01X272910Y245500D02*
G03I-1410J0D01*
G01X270250Y251500D02*
X304750D01*
G01X275110Y275620D02*
Y265380D01*
X301890D01*
Y275620D01*
X275110D01*
G01X269750Y286500D02*
X304250D01*
G01X269750Y328500D02*
X304250D01*
Y286500D01*
X269750D01*
Y328500D01*
G01X272410Y322500D02*
G03I-1410J0D01*
G01X269750Y328500D02*
X304250D01*
G01X323650Y36500D02*
Y47130D01*
X320900D01*
Y76870D01*
X323650D01*
Y87500D01*
X331350D01*
Y76870D01*
X334100D01*
Y47130D01*
X331350D01*
Y36500D01*
X323650D01*
G01X322380Y48610D02*
X332620D01*
Y75390D01*
X322380D01*
Y48610D01*
G01X310290Y192000D02*
X304390D01*
G01X307790Y270500D02*
X301890D01*
G01X318440Y377530D02*
X324780Y383870D01*
Y371190D01*
X318440Y377530D01*
G01D02*
X324780Y383870D01*
Y371190D01*
X318440Y377530D01*
G01X334560Y15470D02*
X328220Y9130D01*
Y21810D01*
X334560Y15470D01*
G01D02*
X328220Y9130D01*
Y21810D01*
X334560Y15470D01*
G01X335160Y32130D02*
X419480D01*
Y-2130D01*
X335160D01*
Y32130D01*
G01D02*
X419480D01*
Y-2130D01*
X335160D01*
Y32130D01*
G01X327500Y42710D02*
Y48610D01*
G01X350140Y46360D02*
Y78640D01*
X367860D01*
Y46360D01*
X350140D01*
G01D02*
Y78640D01*
X367860D01*
Y46360D01*
X350140D01*
G01X327500Y81290D02*
Y75390D01*
G01X334500Y122850D02*
X345130D01*
Y125600D01*
X374870D01*
Y122850D01*
X385500D01*
Y115150D01*
X374870D01*
Y112400D01*
X345130D01*
Y115150D01*
X334500D01*
Y122850D01*
G01X346610Y124120D02*
Y113880D01*
X373390D01*
Y124120D01*
X346610D01*
G01X340710Y119000D02*
X346610D01*
G01X360990Y43800D02*
G03I-1890J0D01*
G01X361090Y52800D02*
G03I-1890J0D01*
G01X379290Y119000D02*
X373390D01*
G01X371150Y161500D02*
Y172130D01*
X368400D01*
Y201870D01*
X371150D01*
Y212500D01*
X378850D01*
Y201870D01*
X381600D01*
Y172130D01*
X378850D01*
Y161500D01*
X371150D01*
G01X369880Y173610D02*
X380120D01*
Y200390D01*
X369880D01*
Y173610D01*
G01X375000Y167710D02*
Y173610D01*
G01Y206290D02*
Y200390D01*
G01X363500Y273350D02*
X374130D01*
Y276100D01*
X403870D01*
Y273350D01*
X414500D01*
Y265650D01*
X403870D01*
Y262900D01*
X374130D01*
Y265650D01*
X363500D01*
Y273350D01*
G01X375610Y274620D02*
Y264380D01*
X402390D01*
Y274620D01*
X375610D01*
G01X366250Y287500D02*
X400750D01*
G01X366250Y329500D02*
X400750D01*
Y287500D01*
X366250D01*
Y329500D01*
G01X369710Y269500D02*
X375610D01*
G01X361710Y323800D02*
G03I-1410J0D01*
G01X368910Y323500D02*
G03I-1410J0D01*
G01X366250Y329500D02*
X400750D01*
G01X404690Y58300D02*
G03I-1890J0D01*
G01X395690Y58400D02*
G03I-1890J0D01*
G01X396360Y67360D02*
X428640D01*
Y49640D01*
X396360D01*
Y67360D01*
G01D02*
X428640D01*
Y49640D01*
X396360D01*
Y67360D01*
G01X388500Y88850D02*
X399130D01*
Y91600D01*
X428870D01*
Y88850D01*
X439500D01*
Y81150D01*
X428870D01*
Y78400D01*
X399130D01*
Y81150D01*
X388500D01*
Y88850D01*
G01X400610Y90120D02*
Y79880D01*
X427390D01*
Y90120D01*
X400610D01*
G01X394710Y85000D02*
X400610D01*
G01X401750Y101000D02*
X436250D01*
G01X401750Y143000D02*
X436250D01*
Y101000D01*
X401750D01*
Y143000D01*
G01X397610Y136200D02*
G03I-1410J0D01*
G01X404410Y137000D02*
G03I-1410J0D01*
G01X401750Y143000D02*
X436250D01*
G01X408290Y269500D02*
X402390D01*
G01X482840Y360870D02*
X398520D01*
Y395130D01*
X482840D01*
Y360870D01*
G01D02*
X398520D01*
Y395130D01*
X482840D01*
Y360870D01*
G01X433290Y85000D02*
X427390D01*
G01X438100Y155000D02*
X434200D01*
G01X440700D02*
X438100Y152400D01*
G01D02*
Y157600D01*
G01Y155000D02*
X434200D01*
G01X440700D02*
X438100Y152400D01*
Y157600D01*
X440700Y155000D01*
G01X422750Y181000D02*
X457250D01*
G01X422750Y223000D02*
X457250D01*
Y181000D01*
X422750D01*
Y223000D01*
G01X457760Y158630D02*
X420240D01*
Y168370D01*
X457760D01*
Y158630D01*
G01X438100Y157600D02*
X440700Y155000D01*
G01X446490Y160110D02*
X431510D01*
Y166890D01*
X446490D01*
Y160110D01*
G01D02*
X431510D01*
Y166890D01*
X446490D01*
Y160110D01*
G01X417910Y216800D02*
G03I-1410J0D01*
G01X425410Y217000D02*
G03I-1410J0D01*
G01X422750Y223000D02*
X457250D01*
G01X489000Y264150D02*
X478370D01*
Y261400D01*
X448630D01*
Y264150D01*
X438000D01*
Y271850D01*
X448630D01*
Y274600D01*
X478370D01*
Y271850D01*
X489000D01*
Y264150D01*
G01X428500Y316350D02*
X439130D01*
Y319100D01*
X468870D01*
Y316350D01*
X479500D01*
Y308650D01*
X468870D01*
Y305900D01*
X439130D01*
Y308650D01*
X428500D01*
Y316350D01*
G01X434710Y312500D02*
X440610D01*
G01X440700Y155000D02*
X444600D01*
G01X440700Y152400D02*
Y157600D01*
G01Y155000D02*
X444600D01*
G01X440700Y152400D02*
Y157600D01*
G01X476890Y262880D02*
Y273120D01*
X450110D01*
Y262880D01*
X476890D01*
G01X444210Y268000D02*
X450110D01*
G01X440610Y317620D02*
Y307380D01*
X467390D01*
Y317620D01*
X440610D01*
G01X473290Y312500D02*
X467390D01*
G01X490500Y56850D02*
X501130D01*
Y59600D01*
X530870D01*
Y56850D01*
X541500D01*
Y49150D01*
X530870D01*
Y46400D01*
X501130D01*
Y49150D01*
X490500D01*
Y56850D01*
G01X497690Y81900D02*
G03I-1890J0D01*
G01X494910Y138000D02*
G03I-1410J0D01*
G01X499410D02*
G03I-1410J0D01*
G01X486150Y172500D02*
Y183130D01*
X483400D01*
Y212870D01*
X486150D01*
Y223500D01*
X493850D01*
Y212870D01*
X496600D01*
Y183130D01*
X493850D01*
Y172500D01*
X486150D01*
G01X490000Y178710D02*
Y184610D01*
G01X484880D02*
X495120D01*
Y211390D01*
X484880D01*
Y184610D01*
G01X490000Y217290D02*
Y211390D01*
G01X482790Y268000D02*
X476890D01*
G01X483440Y377530D02*
X489780Y383870D01*
Y371190D01*
X483440Y377530D01*
G01D02*
X489780Y383870D01*
Y371190D01*
X483440Y377530D01*
G01X502610Y58120D02*
Y47880D01*
X529390D01*
Y58120D01*
X502610D01*
G01X496710Y53000D02*
X502610D01*
G01X506690Y81800D02*
G03I-1890J0D01*
G01X498360Y90860D02*
X530640D01*
Y73140D01*
X498360D01*
Y90860D01*
G01D02*
X530640D01*
Y73140D01*
X498360D01*
Y90860D01*
G01X496750Y102000D02*
X531250D01*
G01X496750Y144000D02*
X531250D01*
Y102000D01*
X496750D01*
Y144000D01*
G01D02*
X531250D01*
G01X520250Y182000D02*
X554750D01*
G01X520250Y224000D02*
X554750D01*
Y182000D01*
X520250D01*
Y224000D01*
G01X515410Y223400D02*
G03I-1410J0D01*
G01X522910Y218000D02*
G03I-1410J0D01*
G01X520250Y224000D02*
X554750D01*
G01X543260Y262130D02*
X505740D01*
Y271870D01*
X543260D01*
Y262130D01*
G01X523600Y258500D02*
X519700D01*
G01X526200D02*
X523600Y255900D01*
G01D02*
Y261100D01*
G01D02*
X526200Y258500D01*
G01X523600D02*
X519700D01*
G01X526200D02*
X523600Y255900D01*
Y261100D01*
X526200Y258500D01*
G01X531990Y263610D02*
X517010D01*
Y270390D01*
X531990D01*
Y263610D01*
G01D02*
X517010D01*
Y270390D01*
X531990D01*
Y263610D01*
G01X510250Y288500D02*
X544750D01*
G01X510250Y330500D02*
X544750D01*
Y288500D01*
X510250D01*
Y330500D01*
G01X512910Y324500D02*
G03I-1410J0D01*
G01X504810Y328300D02*
G03I-1410J0D01*
G01X510250Y330500D02*
X544750D01*
G01X502500Y355350D02*
X513130D01*
Y358100D01*
X542870D01*
Y355350D01*
X553500D01*
Y347650D01*
X542870D01*
Y344900D01*
X513130D01*
Y347650D01*
X502500D01*
Y355350D01*
G01X514610Y356620D02*
Y346380D01*
X541390D01*
Y356620D01*
X514610D01*
G01X508710Y351500D02*
X514610D01*
G01X535290Y53000D02*
X529390D01*
G01X526200Y258500D02*
X530100D01*
G01X526200Y255900D02*
Y261100D01*
G01Y258500D02*
X530100D01*
G01X526200Y255900D02*
Y261100D01*
G01X547290Y351500D02*
X541390D01*
M02*
