G04 ================== begin FILE IDENTIFICATION RECORD ==================*
G04 Layout Name:  analogater_after_clg_arun.brd*
G04 Film Name:    SILK_TOP*
G04 File Format:  Gerber RS274X*
G04 File Origin:  Cadence Allegro -unreleased*
G04 Origin Date:  Tue Mar 25 13:31:54 2025*
G04 *
G04 Layer:  REF DES/SILKSCREEN_TOP*
G04 Layer:  PACKAGE GEOMETRY/SILKSCREEN_TOP*
G04 Layer:  BOARD GEOMETRY/OUTLINE*
G04 Layer:  BOARD GEOMETRY/SILKSCREEN_TOP*
G04 *
G04 Offset:    (0.00 0.00)*
G04 Mirror:    No*
G04 Mode:      Positive*
G04 Rotation:  0*
G04 FullContactRelief:  No*
G04 UndefLineWidth:     6.00*
G04 ================== end FILE IDENTIFICATION RECORD ====================*
%FSLAX25Y25*MOIN*%
%IR0*IPPOS*OFA0.00000B0.00000*MIA0B0*SFA1.00000B1.00000*%
%ADD10C,.02*%
%ADD11C,.005*%
%ADD12C,.006*%
G75*
%LPD*%
G75*
G54D10*
G01X199491Y396800D02*
X204950Y414300D01*
X210409Y396800D01*
G01X208443Y402925D02*
X201456D01*
G01X217428Y396800D02*
Y414300D01*
X227472Y396800D01*
Y414300D01*
G01X234491Y396800D02*
X239950Y414300D01*
X245409Y396800D01*
G01X243443Y402925D02*
X236456D01*
G01X253083Y414300D02*
Y396800D01*
X261817D01*
G01X274950D02*
X273203Y397092D01*
X271675Y398258D01*
X270365Y400008D01*
X269491Y402050D01*
X269055Y404383D01*
Y406717D01*
X269491Y409050D01*
X270365Y411092D01*
X271675Y412841D01*
X273203Y414008D01*
X274950Y414300D01*
X276696Y414008D01*
X278225Y412841D01*
X279535Y411092D01*
X280409Y409050D01*
X280845Y406717D01*
Y404383D01*
X280409Y402050D01*
X279535Y400008D01*
X278225Y398258D01*
X276696Y397092D01*
X274950Y396800D01*
G01X293760Y405550D02*
X298127D01*
Y400300D01*
X296817Y398550D01*
X295288Y397383D01*
X293105Y396800D01*
X290922Y397383D01*
X289393Y398550D01*
X288083Y400300D01*
X287210Y402342D01*
X286773Y404675D01*
Y406717D01*
X287210Y408466D01*
X288083Y410509D01*
X289393Y412258D01*
X290703Y413425D01*
X292450Y414300D01*
X293978D01*
X295725Y413717D01*
X297035Y412550D01*
G01X304491Y396800D02*
X309950Y414300D01*
X315409Y396800D01*
G01X313443Y402925D02*
X306456D01*
G01X327450Y414300D02*
Y396800D01*
G01X322428Y414300D02*
X332472D01*
G01X349317Y396800D02*
X340583D01*
Y414300D01*
X349317D01*
G01X345823Y405842D02*
X340583D01*
G01X358083Y396800D02*
Y414300D01*
X363542D01*
X365288Y413425D01*
X366380Y412258D01*
X366817Y409925D01*
X366380Y407591D01*
X365070Y406133D01*
X363542Y405258D01*
X358083D01*
G01X363542D02*
X366817Y396800D01*
G54D11*
G01X34850Y102000D02*
Y91370D01*
X37600D01*
Y61630D01*
X34850D01*
Y51000D01*
X27150D01*
Y61630D01*
X24400D01*
Y91370D01*
X27150D01*
Y102000D01*
X34850D01*
G01X36850Y184000D02*
Y173370D01*
X39600D01*
Y143630D01*
X36850D01*
Y133000D01*
X29150D01*
Y143630D01*
X26400D01*
Y173370D01*
X29150D01*
Y184000D01*
X36850D01*
G01X27850Y341000D02*
Y330370D01*
X30600D01*
Y300630D01*
X27850D01*
Y290000D01*
X20150D01*
Y300630D01*
X17400D01*
Y330370D01*
X20150D01*
Y341000D01*
X27850D01*
G01X97260Y50130D02*
X59740D01*
Y59870D01*
X97260D01*
Y50130D01*
G01X60250Y72500D02*
X94750D01*
G01X56510Y113800D02*
G03I-1410J0D01*
G01X60250Y114500D02*
X94750D01*
G01X59250Y153500D02*
X93750D01*
G01X95260Y129630D02*
X57740D01*
Y139370D01*
X95260D01*
Y129630D01*
G01X83990Y131110D02*
X69010D01*
Y137890D01*
X83990D01*
Y131110D01*
G01X54210Y189900D02*
G03I-1410J0D01*
G01X59250Y195500D02*
X93750D01*
G01X50000Y219350D02*
X60630D01*
Y222100D01*
X90370D01*
Y219350D01*
X101000D01*
Y211650D01*
X90370D01*
Y208900D01*
X60630D01*
Y211650D01*
X50000D01*
Y219350D01*
G01X61250Y238000D02*
X95750D01*
G01X56110Y274000D02*
G03I-1410J0D01*
G01X61250Y280000D02*
X95750D01*
G01X57850Y341000D02*
Y330370D01*
X60600D01*
Y300630D01*
X57850D01*
Y290000D01*
X50150D01*
Y300630D01*
X47400D01*
Y330370D01*
X50150D01*
Y341000D01*
X57850D01*
G01X127340Y360870D02*
X43020D01*
Y395130D01*
X127340D01*
Y360870D01*
G01X80200Y46500D02*
X84100D01*
G01X77600D02*
X73700D01*
G01X80200Y43900D02*
Y49100D01*
G01Y46500D02*
X77600Y43900D01*
G01D02*
Y49100D01*
G01D02*
X80200Y46500D01*
G01X85990Y51610D02*
X71010D01*
Y58390D01*
X85990D01*
Y51610D01*
G01X78200Y126000D02*
X82100D01*
G01X75600D02*
X71700D01*
G01X78200Y123400D02*
Y128600D01*
G01Y126000D02*
X75600Y123400D01*
G01D02*
Y128600D01*
G01D02*
X78200Y126000D01*
G01X98350Y340500D02*
Y329870D01*
X101100D01*
Y300130D01*
X98350D01*
Y289500D01*
X90650D01*
Y300130D01*
X87900D01*
Y329870D01*
X90650D01*
Y340500D01*
X98350D01*
G01X130350Y104500D02*
Y93870D01*
X133100D01*
Y64130D01*
X130350D01*
Y53500D01*
X122650D01*
Y64130D01*
X119900D01*
Y93870D01*
X122650D01*
Y104500D01*
X130350D01*
G01X116500Y171850D02*
X127130D01*
Y174600D01*
X156870D01*
Y171850D01*
X167500D01*
Y164150D01*
X156870D01*
Y161400D01*
X127130D01*
Y164150D01*
X116500D01*
Y171850D01*
G01X152060Y16470D02*
X145720Y10130D01*
Y22810D01*
X152060Y16470D01*
G01X152660Y33130D02*
X236980D01*
Y-1130D01*
X152660D01*
Y33130D01*
G01X148000Y60850D02*
X158630D01*
Y63600D01*
X188370D01*
Y60850D01*
X199000D01*
Y53150D01*
X188370D01*
Y50400D01*
X158630D01*
Y53150D01*
X148000D01*
Y60850D01*
G01X154750Y88500D02*
X189250D01*
G01X150810Y130200D02*
G03I-1410J0D01*
G01X154750Y130500D02*
X189250D01*
G01X127940Y377530D02*
X134280Y383870D01*
Y371190D01*
X127940Y377530D01*
G01X160000Y199850D02*
X170630D01*
Y202600D01*
X200370D01*
Y199850D01*
X211000D01*
Y192150D01*
X200370D01*
Y189400D01*
X170630D01*
Y192150D01*
X160000D01*
Y199850D01*
G01X169250Y215000D02*
X203750D01*
G01X163710Y249900D02*
G03I-1410J0D01*
G01X169250Y257000D02*
X203750D01*
G01X156000Y312850D02*
X166630D01*
Y315600D01*
X196370D01*
Y312850D01*
X207000D01*
Y305150D01*
X196370D01*
Y302400D01*
X166630D01*
Y305150D01*
X156000D01*
Y312850D01*
G01Y342850D02*
X166630D01*
Y345600D01*
X196370D01*
Y342850D01*
X207000D01*
Y335150D01*
X196370D01*
Y332400D01*
X166630D01*
Y335150D01*
X156000D01*
Y342850D01*
G01Y372850D02*
X166630D01*
Y375600D01*
X196370D01*
Y372850D01*
X207000D01*
Y365150D01*
X196370D01*
Y362400D01*
X166630D01*
Y365150D01*
X156000D01*
Y372850D01*
G01X209000Y89350D02*
X219630D01*
Y92100D01*
X249370D01*
Y89350D01*
X260000D01*
Y81650D01*
X249370D01*
Y78900D01*
X219630D01*
Y81650D01*
X209000D01*
Y89350D01*
G01X238850Y226000D02*
Y215370D01*
X241600D01*
Y185630D01*
X238850D01*
Y175000D01*
X231150D01*
Y185630D01*
X228400D01*
Y215370D01*
X231150D01*
Y226000D01*
X238850D01*
G01X317840Y360870D02*
X233520D01*
Y395130D01*
X317840D01*
Y360870D01*
G01X252000Y60350D02*
X262630D01*
Y63100D01*
X292370D01*
Y60350D01*
X303000D01*
Y52650D01*
X292370D01*
Y49900D01*
X262630D01*
Y52650D01*
X252000D01*
Y60350D01*
G01X267750Y102000D02*
X302250D01*
G01X265910Y138000D02*
G03I-1410J0D01*
G01X267750Y144000D02*
X302250D01*
G01X304260Y162630D02*
X266740D01*
Y172370D01*
X304260D01*
Y162630D01*
G01X265500Y195850D02*
X276130D01*
Y198600D01*
X305870D01*
Y195850D01*
X316500D01*
Y188150D01*
X305870D01*
Y185400D01*
X276130D01*
Y188150D01*
X265500D01*
Y195850D01*
G01X265510Y247900D02*
G03I-1410J0D01*
G01X263000Y274350D02*
X273630D01*
Y277100D01*
X303370D01*
Y274350D01*
X314000D01*
Y266650D01*
X303370D01*
Y263900D01*
X273630D01*
Y266650D01*
X263000D01*
Y274350D01*
G01X265310Y323000D02*
G03I-1410J0D01*
G01X287200Y159000D02*
X291100D01*
G01X284600D02*
X280700D01*
G01X287200Y156400D02*
Y161600D01*
G01Y159000D02*
X284600Y156400D01*
G01D02*
Y161600D01*
G01D02*
X287200Y159000D01*
G01X292990Y164110D02*
X278010D01*
Y170890D01*
X292990D01*
Y164110D01*
G01X270250Y209500D02*
X304750D01*
G01X270250Y251500D02*
X304750D01*
G01X269750Y286500D02*
X304250D01*
G01X269750Y328500D02*
X304250D01*
G01X323650Y36500D02*
Y47130D01*
X320900D01*
Y76870D01*
X323650D01*
Y87500D01*
X331350D01*
Y76870D01*
X334100D01*
Y47130D01*
X331350D01*
Y36500D01*
X323650D01*
G01X318440Y377530D02*
X324780Y383870D01*
Y371190D01*
X318440Y377530D01*
G01X334560Y15470D02*
X328220Y9130D01*
Y21810D01*
X334560Y15470D01*
G01X335160Y32130D02*
X419480D01*
Y-2130D01*
X335160D01*
Y32130D01*
G01X350140Y46360D02*
Y78640D01*
X367860D01*
Y46360D01*
X350140D01*
G01X334500Y122850D02*
X345130D01*
Y125600D01*
X374870D01*
Y122850D01*
X385500D01*
Y115150D01*
X374870D01*
Y112400D01*
X345130D01*
Y115150D01*
X334500D01*
Y122850D01*
G01X360990Y43800D02*
G03I-1890J0D01*
G01X371150Y161500D02*
Y172130D01*
X368400D01*
Y201870D01*
X371150D01*
Y212500D01*
X378850D01*
Y201870D01*
X381600D01*
Y172130D01*
X378850D01*
Y161500D01*
X371150D01*
G01X363500Y273350D02*
X374130D01*
Y276100D01*
X403870D01*
Y273350D01*
X414500D01*
Y265650D01*
X403870D01*
Y262900D01*
X374130D01*
Y265650D01*
X363500D01*
Y273350D01*
G01X366250Y287500D02*
X400750D01*
G01X361710Y323800D02*
G03I-1410J0D01*
G01X366250Y329500D02*
X400750D01*
G01X395690Y58400D02*
G03I-1890J0D01*
G01X396360Y67360D02*
X428640D01*
Y49640D01*
X396360D01*
Y67360D01*
G01X388500Y88850D02*
X399130D01*
Y91600D01*
X428870D01*
Y88850D01*
X439500D01*
Y81150D01*
X428870D01*
Y78400D01*
X399130D01*
Y81150D01*
X388500D01*
Y88850D01*
G01X401750Y101000D02*
X436250D01*
G01X397610Y136200D02*
G03I-1410J0D01*
G01X401750Y143000D02*
X436250D01*
G01X482840Y360870D02*
X398520D01*
Y395130D01*
X482840D01*
Y360870D01*
G01X438100Y155000D02*
X434200D01*
G01X440700D02*
X438100Y152400D01*
G01D02*
Y157600D01*
G01X422750Y181000D02*
X457250D01*
G01X457760Y158630D02*
X420240D01*
Y168370D01*
X457760D01*
Y158630D01*
G01X438100Y157600D02*
X440700Y155000D01*
G01X446490Y160110D02*
X431510D01*
Y166890D01*
X446490D01*
Y160110D01*
G01X417910Y216800D02*
G03I-1410J0D01*
G01X422750Y223000D02*
X457250D01*
G01X489000Y264150D02*
X478370D01*
Y261400D01*
X448630D01*
Y264150D01*
X438000D01*
Y271850D01*
X448630D01*
Y274600D01*
X478370D01*
Y271850D01*
X489000D01*
Y264150D01*
G01X428500Y316350D02*
X439130D01*
Y319100D01*
X468870D01*
Y316350D01*
X479500D01*
Y308650D01*
X468870D01*
Y305900D01*
X439130D01*
Y308650D01*
X428500D01*
Y316350D01*
G01X440700Y155000D02*
X444600D01*
G01X440700Y152400D02*
Y157600D01*
G01X490500Y56850D02*
X501130D01*
Y59600D01*
X530870D01*
Y56850D01*
X541500D01*
Y49150D01*
X530870D01*
Y46400D01*
X501130D01*
Y49150D01*
X490500D01*
Y56850D01*
G01X497690Y81900D02*
G03I-1890J0D01*
G01X494910Y138000D02*
G03I-1410J0D01*
G01X486150Y172500D02*
Y183130D01*
X483400D01*
Y212870D01*
X486150D01*
Y223500D01*
X493850D01*
Y212870D01*
X496600D01*
Y183130D01*
X493850D01*
Y172500D01*
X486150D01*
G01X483440Y377530D02*
X489780Y383870D01*
Y371190D01*
X483440Y377530D01*
G01X498360Y90860D02*
X530640D01*
Y73140D01*
X498360D01*
Y90860D01*
G01X496750Y102000D02*
X531250D01*
G01X496750Y144000D02*
X531250D01*
G01X520250Y182000D02*
X554750D01*
G01X515410Y223400D02*
G03I-1410J0D01*
G01X520250Y224000D02*
X554750D01*
G01X543260Y262130D02*
X505740D01*
Y271870D01*
X543260D01*
Y262130D01*
G01X523600Y258500D02*
X519700D01*
G01X526200D02*
X523600Y255900D01*
G01D02*
Y261100D01*
G01D02*
X526200Y258500D01*
G01X531990Y263610D02*
X517010D01*
Y270390D01*
X531990D01*
Y263610D01*
G01X510250Y288500D02*
X544750D01*
G01X504810Y328300D02*
G03I-1410J0D01*
G01X510250Y330500D02*
X544750D01*
G01X502500Y355350D02*
X513130D01*
Y358100D01*
X542870D01*
Y355350D01*
X553500D01*
Y347650D01*
X542870D01*
Y344900D01*
X513130D01*
Y347650D01*
X502500D01*
Y355350D01*
G01X526200Y258500D02*
X530100D01*
G01X526200Y255900D02*
Y261100D01*
G54D12*
G01X585551Y416486D02*
X5000D01*
X0Y411486D01*
Y-11586D01*
X5000Y-16586D01*
X585551D01*
X590551Y-11586D01*
Y411486D01*
X585551Y416486D01*
G01X15000Y313766D02*
X11000D01*
Y314807D01*
X11200Y315141D01*
X11467Y315349D01*
X12000Y315432D01*
X12533Y315349D01*
X12867Y315099D01*
X13067Y314807D01*
Y313766D01*
G01Y314807D02*
X15000Y315432D01*
G01Y318199D02*
X11000D01*
X13867Y316657D01*
Y318741D01*
G01X23500Y74766D02*
X19500D01*
Y75807D01*
X19700Y76141D01*
X19967Y76349D01*
X20500Y76432D01*
X21033Y76349D01*
X21367Y76099D01*
X21567Y75807D01*
Y74766D01*
G01Y75807D02*
X23500Y76432D01*
G01X20167Y77907D02*
X19767Y78157D01*
X19567Y78449D01*
X19500Y78782D01*
X19633Y79199D01*
X19967Y79491D01*
X20367Y79574D01*
X20767Y79532D01*
X21100Y79366D01*
X21767Y78532D01*
X22233Y78157D01*
X22900Y77907D01*
X23500Y77824D01*
Y79574D01*
G01X23033Y81091D02*
X23367Y81382D01*
X23500Y81716D01*
X23367Y82049D01*
X22967Y82341D01*
X22367Y82549D01*
X21767Y82632D01*
X21033D01*
X20433Y82549D01*
X19900Y82341D01*
X19633Y82091D01*
X19500Y81799D01*
X19633Y81466D01*
X19900Y81216D01*
X20300Y81049D01*
X20833Y80966D01*
X21300Y81049D01*
X21767Y81257D01*
X22033Y81507D01*
X22100Y81799D01*
X21967Y82132D01*
X21633Y82382D01*
X21033Y82632D01*
G01X24400Y156166D02*
X20400D01*
Y157207D01*
X20600Y157541D01*
X20867Y157749D01*
X21400Y157832D01*
X21933Y157749D01*
X22267Y157499D01*
X22467Y157207D01*
Y156166D01*
G01Y157207D02*
X24400Y157832D01*
G01X21067Y159307D02*
X20667Y159557D01*
X20467Y159849D01*
X20400Y160182D01*
X20533Y160599D01*
X20867Y160891D01*
X21267Y160974D01*
X21667Y160932D01*
X22000Y160766D01*
X22667Y159932D01*
X23133Y159557D01*
X23800Y159307D01*
X24400Y159224D01*
Y160974D01*
G01X23600Y162282D02*
X24067Y162532D01*
X24333Y162866D01*
X24400Y163241D01*
X24333Y163574D01*
X24000Y163907D01*
X23600Y164116D01*
X23200Y164157D01*
X22733Y164074D01*
X22400Y163782D01*
X22267Y163491D01*
Y163116D01*
G01Y163491D02*
X22067Y163741D01*
X21733Y163949D01*
X21333Y164032D01*
X20933Y163949D01*
X20600Y163741D01*
X20400Y163366D01*
X20467Y162991D01*
X20733Y162616D01*
G01X45000Y312766D02*
X41000D01*
Y313807D01*
X41200Y314141D01*
X41467Y314349D01*
X42000Y314432D01*
X42533Y314349D01*
X42867Y314099D01*
X43067Y313807D01*
Y312766D01*
G01Y313807D02*
X45000Y314432D01*
G01X44200Y315782D02*
X44667Y316032D01*
X44933Y316366D01*
X45000Y316741D01*
X44933Y317074D01*
X44600Y317407D01*
X44200Y317616D01*
X43800Y317657D01*
X43333Y317574D01*
X43000Y317282D01*
X42867Y316991D01*
Y316616D01*
G01Y316991D02*
X42667Y317241D01*
X42333Y317449D01*
X41933Y317532D01*
X41533Y317449D01*
X41200Y317241D01*
X41000Y316866D01*
X41067Y316491D01*
X41333Y316116D01*
G01X60383Y201330D02*
Y198463D01*
X60550Y197863D01*
X60883Y197463D01*
X61300Y197330D01*
X61717Y197463D01*
X62050Y197863D01*
X62217Y198463D01*
Y201330D01*
G01X63692Y197797D02*
X63983Y197463D01*
X64317Y197330D01*
X64650Y197463D01*
X64942Y197863D01*
X65150Y198463D01*
X65233Y199063D01*
Y199797D01*
X65150Y200397D01*
X64942Y200930D01*
X64692Y201197D01*
X64400Y201330D01*
X64067Y201197D01*
X63817Y200930D01*
X63650Y200530D01*
X63567Y199997D01*
X63650Y199530D01*
X63858Y199063D01*
X64108Y198797D01*
X64400Y198730D01*
X64733Y198863D01*
X64983Y199197D01*
X65233Y199797D01*
G01X49750Y359400D02*
X50750D01*
G01X50250D02*
Y355400D01*
G01X49750D02*
X50750D01*
G01X52392D02*
Y359400D01*
X54308Y355400D01*
Y359400D01*
G01X55658Y358733D02*
X55908Y359133D01*
X56200Y359333D01*
X56533Y359400D01*
X56950Y359267D01*
X57242Y358933D01*
X57325Y358533D01*
X57283Y358133D01*
X57117Y357800D01*
X56283Y357133D01*
X55908Y356667D01*
X55658Y356000D01*
X55575Y355400D01*
X57325D01*
G01X71400Y356400D02*
X72233D01*
Y355200D01*
X71983Y354800D01*
X71692Y354533D01*
X71275Y354400D01*
X70858Y354533D01*
X70567Y354800D01*
X70317Y355200D01*
X70150Y355667D01*
X70067Y356200D01*
Y356667D01*
X70150Y357067D01*
X70317Y357533D01*
X70567Y357933D01*
X70817Y358200D01*
X71150Y358400D01*
X71442D01*
X71775Y358267D01*
X72025Y358000D01*
G01X73292Y354400D02*
Y358400D01*
X75208Y354400D01*
Y358400D01*
G01X76433Y354400D02*
Y358400D01*
X77267D01*
X77600Y358200D01*
X77850Y357933D01*
X78058Y357533D01*
X78225Y357067D01*
X78267Y356400D01*
X78225Y355733D01*
X78058Y355267D01*
X77850Y354867D01*
X77600Y354600D01*
X77267Y354400D01*
X76433D01*
G01X76933Y61649D02*
Y65649D01*
X77767D01*
X78100Y65449D01*
X78350Y65182D01*
X78558Y64782D01*
X78725Y64316D01*
X78767Y63649D01*
X78725Y62982D01*
X78558Y62516D01*
X78350Y62116D01*
X78100Y61849D01*
X77767Y61649D01*
X76933D01*
G01X80033Y62249D02*
X80283Y61916D01*
X80575Y61716D01*
X80950Y61649D01*
X81325Y61782D01*
X81617Y62049D01*
X81825Y62516D01*
X81867Y63049D01*
X81783Y63582D01*
X81575Y63916D01*
X81283Y64182D01*
X80992Y64249D01*
X80700Y64182D01*
X80325Y63916D01*
X80450Y65649D01*
X81575D01*
G01X73833Y121049D02*
Y118182D01*
X74000Y117582D01*
X74333Y117182D01*
X74750Y117049D01*
X75167Y117182D01*
X75500Y117582D01*
X75667Y118182D01*
Y121049D01*
G01X77850Y117049D02*
Y121049D01*
X77350Y120249D01*
G01Y117049D02*
X78350D01*
G01X80950D02*
Y121049D01*
X80450Y120249D01*
G01Y117049D02*
X81450D01*
G01X98033Y131749D02*
Y135749D01*
X98867D01*
X99200Y135549D01*
X99450Y135282D01*
X99658Y134882D01*
X99825Y134416D01*
X99867Y133749D01*
X99825Y133082D01*
X99658Y132616D01*
X99450Y132216D01*
X99200Y131949D01*
X98867Y131749D01*
X98033D01*
G01X101133Y132549D02*
X101383Y132082D01*
X101717Y131816D01*
X102092Y131749D01*
X102425Y131816D01*
X102758Y132149D01*
X102967Y132549D01*
X103008Y132949D01*
X102925Y133416D01*
X102633Y133749D01*
X102342Y133882D01*
X101967D01*
G01X102342D02*
X102592Y134082D01*
X102800Y134416D01*
X102883Y134816D01*
X102800Y135216D01*
X102592Y135549D01*
X102217Y135749D01*
X101842Y135682D01*
X101467Y135416D01*
G01X73317Y202249D02*
Y206249D01*
X74358D01*
X74692Y206049D01*
X74900Y205782D01*
X74983Y205249D01*
X74900Y204716D01*
X74650Y204382D01*
X74358Y204182D01*
X73317D01*
G01X74358D02*
X74983Y202249D01*
G01X77250D02*
Y206249D01*
X76750Y205449D01*
G01Y202249D02*
X77750D01*
G01X74833Y287849D02*
Y284982D01*
X75000Y284382D01*
X75333Y283982D01*
X75750Y283849D01*
X76167Y283982D01*
X76500Y284382D01*
X76667Y284982D01*
Y287849D01*
G01X78850Y283849D02*
Y287849D01*
X78350Y287049D01*
G01Y283849D02*
X79350D01*
G01X85500Y312266D02*
X81500D01*
Y313307D01*
X81700Y313641D01*
X81967Y313849D01*
X82500Y313932D01*
X83033Y313849D01*
X83367Y313599D01*
X83567Y313307D01*
Y312266D01*
G01Y313307D02*
X85500Y313932D01*
G01X82167Y315407D02*
X81767Y315657D01*
X81567Y315949D01*
X81500Y316282D01*
X81633Y316699D01*
X81967Y316991D01*
X82367Y317074D01*
X82767Y317032D01*
X83100Y316866D01*
X83767Y316032D01*
X84233Y315657D01*
X84900Y315407D01*
X85500Y315324D01*
Y317074D01*
G01X91550Y358700D02*
X92550D01*
G01X92050D02*
Y354700D01*
G01X91550D02*
X92550D01*
G01X94192D02*
Y358700D01*
X96108Y354700D01*
Y358700D01*
G01X98250Y354700D02*
Y358700D01*
X97750Y357900D01*
G01Y354700D02*
X98750D01*
G01X110208Y358500D02*
X111250Y354500D01*
X112292Y358500D01*
G01X115267Y358167D02*
X115017Y358367D01*
X114725Y358500D01*
X114392D01*
X114017Y358300D01*
X113725Y357967D01*
X113517Y357567D01*
X113350Y356900D01*
X113308Y356300D01*
X113392Y355700D01*
X113517Y355300D01*
X113767Y354900D01*
X114058Y354633D01*
X114350Y354500D01*
X114642D01*
X114933Y354633D01*
X115183Y354833D01*
X115392Y355100D01*
G01X118367Y358167D02*
X118117Y358367D01*
X117825Y358500D01*
X117492D01*
X117117Y358300D01*
X116825Y357967D01*
X116617Y357567D01*
X116450Y356900D01*
X116408Y356300D01*
X116492Y355700D01*
X116617Y355300D01*
X116867Y354900D01*
X117158Y354633D01*
X117450Y354500D01*
X117742D01*
X118033Y354633D01*
X118283Y354833D01*
X118492Y355100D01*
G01X138400Y77966D02*
X134400D01*
Y79007D01*
X134600Y79341D01*
X134867Y79549D01*
X135400Y79632D01*
X135933Y79549D01*
X136267Y79299D01*
X136467Y79007D01*
Y77966D01*
G01Y79007D02*
X138400Y79632D01*
G01X137600Y80982D02*
X138067Y81232D01*
X138333Y81566D01*
X138400Y81941D01*
X138333Y82274D01*
X138000Y82607D01*
X137600Y82816D01*
X137200Y82857D01*
X136733Y82774D01*
X136400Y82482D01*
X136267Y82191D01*
Y81816D01*
G01Y82191D02*
X136067Y82441D01*
X135733Y82649D01*
X135333Y82732D01*
X134933Y82649D01*
X134600Y82441D01*
X134400Y82066D01*
X134467Y81691D01*
X134733Y81316D01*
G01X134400Y84999D02*
X134533Y84666D01*
X134867Y84416D01*
X135267Y84249D01*
X135800Y84124D01*
X136400Y84082D01*
X137000Y84124D01*
X137533Y84249D01*
X137933Y84416D01*
X138267Y84666D01*
X138400Y84999D01*
X138267Y85332D01*
X137933Y85582D01*
X137533Y85749D01*
X137000Y85874D01*
X136400Y85916D01*
X135800Y85874D01*
X135267Y85749D01*
X134867Y85582D01*
X134533Y85332D01*
X134400Y84999D01*
G01X137417Y176300D02*
Y180300D01*
X138458D01*
X138792Y180100D01*
X139000Y179833D01*
X139083Y179300D01*
X139000Y178767D01*
X138750Y178433D01*
X138458Y178233D01*
X137417D01*
G01X138458D02*
X139083Y176300D01*
G01X140558Y179633D02*
X140808Y180033D01*
X141100Y180233D01*
X141433Y180300D01*
X141850Y180167D01*
X142142Y179833D01*
X142225Y179433D01*
X142183Y179033D01*
X142017Y178700D01*
X141183Y178033D01*
X140808Y177567D01*
X140558Y176900D01*
X140475Y176300D01*
X142225D01*
G01X144950D02*
Y180300D01*
X143408Y177433D01*
X145492D01*
G01X132217Y365249D02*
X132425Y364849D01*
X132675Y364582D01*
X132967Y364449D01*
X133300Y364582D01*
X133550Y364849D01*
X133800Y365249D01*
X133883Y365782D01*
Y368449D01*
G01X136150Y364449D02*
Y368449D01*
X135650Y367649D01*
G01Y364449D02*
X136650D01*
G01X182250Y38500D02*
X183250D01*
G01X182750D02*
Y34500D01*
G01X182250D02*
X183250D01*
G01X184892D02*
Y38500D01*
X186808Y34500D01*
Y38500D01*
G01X188950Y34500D02*
Y38500D01*
X188450Y37700D01*
G01Y34500D02*
X189450D01*
G01X162450Y38400D02*
X163450D01*
G01X162950D02*
Y34400D01*
G01X162450D02*
X163450D01*
G01X165092D02*
Y38400D01*
X167008Y34400D01*
Y38400D01*
G01X168358Y37733D02*
X168608Y38133D01*
X168900Y38333D01*
X169233Y38400D01*
X169650Y38267D01*
X169942Y37933D01*
X170025Y37533D01*
X169983Y37133D01*
X169817Y36800D01*
X168983Y36133D01*
X168608Y35667D01*
X168358Y35000D01*
X168275Y34400D01*
X170025D01*
G01X170717Y65449D02*
Y69449D01*
X171758D01*
X172092Y69249D01*
X172300Y68982D01*
X172383Y68449D01*
X172300Y67916D01*
X172050Y67582D01*
X171758Y67382D01*
X170717D01*
G01X171758D02*
X172383Y65449D01*
G01X173858Y68782D02*
X174108Y69182D01*
X174400Y69382D01*
X174733Y69449D01*
X175150Y69316D01*
X175442Y68982D01*
X175525Y68582D01*
X175483Y68182D01*
X175317Y67849D01*
X174483Y67182D01*
X174108Y66716D01*
X173858Y66049D01*
X173775Y65449D01*
X175525D01*
G01X177667D02*
X177750Y66316D01*
X177875Y67049D01*
X178042Y67716D01*
X178250Y68449D01*
X178583Y69449D01*
X176917D01*
G01X169733Y136549D02*
Y133682D01*
X169900Y133082D01*
X170233Y132682D01*
X170650Y132549D01*
X171067Y132682D01*
X171400Y133082D01*
X171567Y133682D01*
Y136549D01*
G01X173750Y132549D02*
Y136549D01*
X173250Y135749D01*
G01Y132549D02*
X174250D01*
G01X176058Y135882D02*
X176308Y136282D01*
X176600Y136482D01*
X176933Y136549D01*
X177350Y136416D01*
X177642Y136082D01*
X177725Y135682D01*
X177683Y135282D01*
X177517Y134949D01*
X176683Y134282D01*
X176308Y133816D01*
X176058Y133149D01*
X175975Y132549D01*
X177725D01*
G01X172137Y203870D02*
Y207870D01*
X173178D01*
X173512Y207670D01*
X173720Y207403D01*
X173803Y206870D01*
X173720Y206337D01*
X173470Y206003D01*
X173178Y205803D01*
X172137D01*
G01X173178D02*
X173803Y203870D01*
G01X175278Y207203D02*
X175528Y207603D01*
X175820Y207803D01*
X176153Y207870D01*
X176570Y207737D01*
X176862Y207403D01*
X176945Y207003D01*
X176903Y206603D01*
X176737Y206270D01*
X175903Y205603D01*
X175528Y205137D01*
X175278Y204470D01*
X175195Y203870D01*
X176945D01*
G01X179170D02*
Y207870D01*
X178670Y207070D01*
G01Y203870D02*
X179670D01*
G01X180833Y263000D02*
Y260133D01*
X181000Y259533D01*
X181333Y259133D01*
X181750Y259000D01*
X182167Y259133D01*
X182500Y259533D01*
X182667Y260133D01*
Y263000D01*
G01X184850Y259000D02*
Y263000D01*
X184350Y262200D01*
G01Y259000D02*
X185350D01*
G01X187950Y263000D02*
X187617Y262867D01*
X187367Y262533D01*
X187200Y262133D01*
X187075Y261600D01*
X187033Y261000D01*
X187075Y260400D01*
X187200Y259867D01*
X187367Y259467D01*
X187617Y259133D01*
X187950Y259000D01*
X188283Y259133D01*
X188533Y259467D01*
X188700Y259867D01*
X188825Y260400D01*
X188867Y261000D01*
X188825Y261600D01*
X188700Y262133D01*
X188533Y262533D01*
X188283Y262867D01*
X187950Y263000D01*
G01X178737Y316570D02*
Y320570D01*
X179778D01*
X180112Y320370D01*
X180320Y320103D01*
X180403Y319570D01*
X180320Y319037D01*
X180070Y318703D01*
X179778Y318503D01*
X178737D01*
G01X179778D02*
X180403Y316570D01*
G01X181753Y317170D02*
X182003Y316837D01*
X182295Y316637D01*
X182670Y316570D01*
X183045Y316703D01*
X183337Y316970D01*
X183545Y317437D01*
X183587Y317970D01*
X183503Y318503D01*
X183295Y318837D01*
X183003Y319103D01*
X182712Y319170D01*
X182420Y319103D01*
X182045Y318837D01*
X182170Y320570D01*
X183295D01*
G01X178737Y346570D02*
Y350570D01*
X179778D01*
X180112Y350370D01*
X180320Y350103D01*
X180403Y349570D01*
X180320Y349037D01*
X180070Y348703D01*
X179778Y348503D01*
X178737D01*
G01X179778D02*
X180403Y346570D01*
G01X182670D02*
X182962Y346637D01*
X183295Y346837D01*
X183503Y347170D01*
X183587Y347637D01*
X183503Y348103D01*
X183253Y348503D01*
X182878Y348703D01*
X182462D01*
X182212Y348837D01*
X182003Y349170D01*
X181920Y349637D01*
X182045Y350103D01*
X182337Y350437D01*
X182670Y350570D01*
X183003Y350437D01*
X183295Y350103D01*
X183420Y349637D01*
X183337Y349170D01*
X183128Y348837D01*
X182878Y348703D01*
X182462D01*
X182087Y348503D01*
X181837Y348103D01*
X181753Y347637D01*
X181837Y347170D01*
X182045Y346837D01*
X182378Y346637D01*
X182670Y346570D01*
G01X178737Y376570D02*
Y380570D01*
X179778D01*
X180112Y380370D01*
X180320Y380103D01*
X180403Y379570D01*
X180320Y379037D01*
X180070Y378703D01*
X179778Y378503D01*
X178737D01*
G01X179778D02*
X180403Y376570D01*
G01X181878Y378237D02*
X182170Y378703D01*
X182420Y378970D01*
X182753Y379103D01*
X183045Y378970D01*
X183253Y378703D01*
X183420Y378303D01*
X183462Y377837D01*
X183420Y377437D01*
X183253Y377037D01*
X183003Y376703D01*
X182712Y376570D01*
X182378Y376703D01*
X182087Y377103D01*
X181920Y377703D01*
X181878Y378370D01*
X181962Y379237D01*
X182087Y379703D01*
X182295Y380170D01*
X182587Y380503D01*
X182878Y380570D01*
X183170Y380437D01*
X183378Y380103D01*
G01X200250Y34800D02*
X199917Y34867D01*
X199625Y35133D01*
X199375Y35533D01*
X199208Y36000D01*
X199125Y36533D01*
Y37067D01*
X199208Y37600D01*
X199375Y38067D01*
X199625Y38467D01*
X199917Y38733D01*
X200250Y38800D01*
X200583Y38733D01*
X200875Y38467D01*
X201125Y38067D01*
X201292Y37600D01*
X201375Y37067D01*
Y36533D01*
X201292Y36000D01*
X201125Y35533D01*
X200875Y35133D01*
X200583Y34867D01*
X200250Y34800D01*
G01X202558D02*
Y38800D01*
X204142D01*
G01X203558Y36867D02*
X202558D01*
G01X205658Y34800D02*
Y38800D01*
X207242D01*
G01X206658Y36867D02*
X205658D01*
G01X209550Y34800D02*
Y38800D01*
X209050Y38000D01*
G01Y34800D02*
X210050D01*
G01X238817Y13100D02*
X239025Y12700D01*
X239275Y12433D01*
X239567Y12300D01*
X239900Y12433D01*
X240150Y12700D01*
X240400Y13100D01*
X240483Y13633D01*
Y16300D01*
G01X241833Y12900D02*
X242083Y12567D01*
X242375Y12367D01*
X242750Y12300D01*
X243125Y12433D01*
X243417Y12700D01*
X243625Y13167D01*
X243667Y13700D01*
X243583Y14233D01*
X243375Y14567D01*
X243083Y14833D01*
X242792Y14900D01*
X242500Y14833D01*
X242125Y14567D01*
X242250Y16300D01*
X243375D01*
G01X222750Y35200D02*
X222417Y35267D01*
X222125Y35533D01*
X221875Y35933D01*
X221708Y36400D01*
X221625Y36933D01*
Y37467D01*
X221708Y38000D01*
X221875Y38467D01*
X222125Y38867D01*
X222417Y39133D01*
X222750Y39200D01*
X223083Y39133D01*
X223375Y38867D01*
X223625Y38467D01*
X223792Y38000D01*
X223875Y37467D01*
Y36933D01*
X223792Y36400D01*
X223625Y35933D01*
X223375Y35533D01*
X223083Y35267D01*
X222750Y35200D01*
G01X225058D02*
Y39200D01*
X226642D01*
G01X226058Y37267D02*
X225058D01*
G01X228158Y35200D02*
Y39200D01*
X229742D01*
G01X229158Y37267D02*
X228158D01*
G01X231258Y38533D02*
X231508Y38933D01*
X231800Y39133D01*
X232133Y39200D01*
X232550Y39067D01*
X232842Y38733D01*
X232925Y38333D01*
X232883Y37933D01*
X232717Y37600D01*
X231883Y36933D01*
X231508Y36467D01*
X231258Y35800D01*
X231175Y35200D01*
X232925D01*
G01X239975Y354633D02*
X240308Y354300D01*
X240683Y354100D01*
X241017D01*
X241350Y354300D01*
X241600Y354633D01*
X241725Y355100D01*
X241642Y355567D01*
X241433Y355967D01*
X241058Y356233D01*
X240558Y356367D01*
X240267Y356633D01*
X240142Y357100D01*
X240225Y357567D01*
X240433Y357900D01*
X240725Y358100D01*
X241017D01*
X241308Y357967D01*
X241558Y357633D01*
G01X243033Y358100D02*
Y355233D01*
X243200Y354633D01*
X243533Y354233D01*
X243950Y354100D01*
X244367Y354233D01*
X244700Y354633D01*
X244867Y355233D01*
Y358100D01*
G01X245967Y354100D02*
Y358100D01*
X247050Y354767D01*
X248133Y358100D01*
Y354100D01*
G01X264137Y64370D02*
Y68370D01*
X265178D01*
X265512Y68170D01*
X265720Y67903D01*
X265803Y67370D01*
X265720Y66837D01*
X265470Y66503D01*
X265178Y66303D01*
X264137D01*
G01X265178D02*
X265803Y64370D01*
G01X267153Y65170D02*
X267403Y64703D01*
X267737Y64437D01*
X268112Y64370D01*
X268445Y64437D01*
X268778Y64770D01*
X268987Y65170D01*
X269028Y65570D01*
X268945Y66037D01*
X268653Y66370D01*
X268362Y66503D01*
X267987D01*
G01X268362D02*
X268612Y66703D01*
X268820Y67037D01*
X268903Y67437D01*
X268820Y67837D01*
X268612Y68170D01*
X268237Y68370D01*
X267862Y68303D01*
X267487Y68037D01*
G01X270378Y67703D02*
X270628Y68103D01*
X270920Y68303D01*
X271253Y68370D01*
X271670Y68237D01*
X271962Y67903D01*
X272045Y67503D01*
X272003Y67103D01*
X271837Y66770D01*
X271003Y66103D01*
X270628Y65637D01*
X270378Y64970D01*
X270295Y64370D01*
X272045D01*
G01X263266Y84300D02*
Y88300D01*
X264307D01*
X264641Y88100D01*
X264849Y87833D01*
X264932Y87300D01*
X264849Y86767D01*
X264599Y86433D01*
X264307Y86233D01*
X263266D01*
G01X264307D02*
X264932Y84300D01*
G01X266282Y85100D02*
X266532Y84633D01*
X266866Y84367D01*
X267241Y84300D01*
X267574Y84367D01*
X267907Y84700D01*
X268116Y85100D01*
X268157Y85500D01*
X268074Y85967D01*
X267782Y86300D01*
X267491Y86433D01*
X267116D01*
G01X267491D02*
X267741Y86633D01*
X267949Y86967D01*
X268032Y87367D01*
X267949Y87767D01*
X267741Y88100D01*
X267366Y88300D01*
X266991Y88233D01*
X266616Y87967D01*
G01X270299Y84300D02*
Y88300D01*
X269799Y87500D01*
G01Y84300D02*
X270799D01*
G01X248100Y196217D02*
X244100D01*
Y197258D01*
X244300Y197592D01*
X244567Y197800D01*
X245100Y197883D01*
X245633Y197800D01*
X245967Y197550D01*
X246167Y197258D01*
Y196217D01*
G01Y197258D02*
X248100Y197883D01*
G01X244767Y199358D02*
X244367Y199608D01*
X244167Y199900D01*
X244100Y200233D01*
X244233Y200650D01*
X244567Y200942D01*
X244967Y201025D01*
X245367Y200983D01*
X245700Y200817D01*
X246367Y199983D01*
X246833Y199608D01*
X247500Y199358D01*
X248100Y199275D01*
Y201025D01*
G01X247500Y202333D02*
X247833Y202583D01*
X248033Y202875D01*
X248100Y203250D01*
X247967Y203625D01*
X247700Y203917D01*
X247233Y204125D01*
X246700Y204167D01*
X246167Y204083D01*
X245833Y203875D01*
X245567Y203583D01*
X245500Y203292D01*
X245567Y203000D01*
X245833Y202625D01*
X244100Y202750D01*
Y203875D01*
G01X261475Y355333D02*
X261808Y355000D01*
X262183Y354800D01*
X262517D01*
X262850Y355000D01*
X263100Y355333D01*
X263225Y355800D01*
X263142Y356267D01*
X262933Y356667D01*
X262558Y356933D01*
X262058Y357067D01*
X261767Y357333D01*
X261642Y357800D01*
X261725Y358267D01*
X261933Y358600D01*
X262225Y358800D01*
X262517D01*
X262808Y358667D01*
X263058Y358333D01*
G01X264533Y358800D02*
Y355933D01*
X264700Y355333D01*
X265033Y354933D01*
X265450Y354800D01*
X265867Y354933D01*
X266200Y355333D01*
X266367Y355933D01*
Y358800D01*
G01X268883Y356933D02*
X269050Y357133D01*
X269175Y357467D01*
X269258Y357933D01*
X269175Y358333D01*
X269008Y358600D01*
X268717Y358800D01*
X267592D01*
Y354800D01*
X268967D01*
X269258Y355067D01*
X269425Y355467D01*
X269508Y355933D01*
X269425Y356400D01*
X269175Y356800D01*
X268883Y356933D01*
X267592D01*
G01X281333Y150000D02*
Y147133D01*
X281500Y146533D01*
X281833Y146133D01*
X282250Y146000D01*
X282667Y146133D01*
X283000Y146533D01*
X283167Y147133D01*
Y150000D01*
G01X285350Y146000D02*
Y150000D01*
X284850Y149200D01*
G01Y146000D02*
X285850D01*
G01X287533Y146800D02*
X287783Y146333D01*
X288117Y146067D01*
X288492Y146000D01*
X288825Y146067D01*
X289158Y146400D01*
X289367Y146800D01*
X289408Y147200D01*
X289325Y147667D01*
X289033Y148000D01*
X288742Y148133D01*
X288367D01*
G01X288742D02*
X288992Y148333D01*
X289200Y148667D01*
X289283Y149067D01*
X289200Y149467D01*
X288992Y149800D01*
X288617Y150000D01*
X288242Y149933D01*
X287867Y149667D01*
G01X286817Y200800D02*
Y204800D01*
X287858D01*
X288192Y204600D01*
X288400Y204333D01*
X288483Y203800D01*
X288400Y203267D01*
X288150Y202933D01*
X287858Y202733D01*
X286817D01*
G01X287858D02*
X288483Y200800D01*
G01X289958Y204133D02*
X290208Y204533D01*
X290500Y204733D01*
X290833Y204800D01*
X291250Y204667D01*
X291542Y204333D01*
X291625Y203933D01*
X291583Y203533D01*
X291417Y203200D01*
X290583Y202533D01*
X290208Y202067D01*
X289958Y201400D01*
X289875Y200800D01*
X291625D01*
G01X293850Y204800D02*
X293517Y204667D01*
X293267Y204333D01*
X293100Y203933D01*
X292975Y203400D01*
X292933Y202800D01*
X292975Y202200D01*
X293100Y201667D01*
X293267Y201267D01*
X293517Y200933D01*
X293850Y200800D01*
X294183Y200933D01*
X294433Y201267D01*
X294600Y201667D01*
X294725Y202200D01*
X294767Y202800D01*
X294725Y203400D01*
X294600Y203933D01*
X294433Y204333D01*
X294183Y204667D01*
X293850Y204800D01*
G01X271383Y257330D02*
Y254463D01*
X271550Y253863D01*
X271883Y253463D01*
X272300Y253330D01*
X272717Y253463D01*
X273050Y253863D01*
X273217Y254463D01*
Y257330D01*
G01X275400Y253330D02*
Y257330D01*
X274900Y256530D01*
G01Y253330D02*
X275900D01*
G01X279000D02*
Y257330D01*
X277458Y254463D01*
X279542D01*
G01X283417Y358700D02*
Y354700D01*
X285083D01*
G01X287350D02*
X287017Y354767D01*
X286725Y355033D01*
X286475Y355433D01*
X286308Y355900D01*
X286225Y356433D01*
Y356967D01*
X286308Y357500D01*
X286475Y357967D01*
X286725Y358367D01*
X287017Y358633D01*
X287350Y358700D01*
X287683Y358633D01*
X287975Y358367D01*
X288225Y357967D01*
X288392Y357500D01*
X288475Y356967D01*
Y356433D01*
X288392Y355900D01*
X288225Y355433D01*
X287975Y355033D01*
X287683Y354767D01*
X287350Y354700D01*
G01X270883Y334330D02*
Y331463D01*
X271050Y330863D01*
X271383Y330463D01*
X271800Y330330D01*
X272217Y330463D01*
X272550Y330863D01*
X272717Y331463D01*
Y334330D01*
G01X274108Y333663D02*
X274358Y334063D01*
X274650Y334263D01*
X274983Y334330D01*
X275400Y334197D01*
X275692Y333863D01*
X275775Y333463D01*
X275733Y333063D01*
X275567Y332730D01*
X274733Y332063D01*
X274358Y331597D01*
X274108Y330930D01*
X274025Y330330D01*
X275775D01*
G01X317450Y30700D02*
X318450D01*
G01X317950D02*
Y26700D01*
G01X317450D02*
X318450D01*
G01X320217D02*
Y30700D01*
X321217D01*
X321550Y30500D01*
X321800Y30033D01*
X321883Y29500D01*
X321800Y28967D01*
X321592Y28567D01*
X321217Y28367D01*
X320217D01*
G01X322900Y25367D02*
X325400D01*
G01X326750Y30700D02*
X327750D01*
G01X327250D02*
Y26700D01*
G01X326750D02*
X327750D01*
G01X329392D02*
Y30700D01*
X331308Y26700D01*
Y30700D01*
G01X333450D02*
Y26700D01*
G01X332492Y30700D02*
X334408D01*
G01X318200Y59768D02*
X314200D01*
Y60809D01*
X314400Y61143D01*
X314667Y61351D01*
X315200Y61434D01*
X315733Y61351D01*
X316067Y61101D01*
X316267Y60809D01*
Y59768D01*
G01Y60809D02*
X318200Y61434D01*
G01Y63701D02*
X314200D01*
X315000Y63201D01*
G01X318200D02*
Y64201D01*
G01X316533Y66009D02*
X316067Y66301D01*
X315800Y66551D01*
X315667Y66884D01*
X315800Y67176D01*
X316067Y67384D01*
X316467Y67551D01*
X316933Y67593D01*
X317333Y67551D01*
X317733Y67384D01*
X318067Y67134D01*
X318200Y66843D01*
X318067Y66509D01*
X317667Y66218D01*
X317067Y66051D01*
X316400Y66009D01*
X315533Y66093D01*
X315067Y66218D01*
X314600Y66426D01*
X314267Y66718D01*
X314200Y67009D01*
X314333Y67301D01*
X314667Y67509D01*
G01X299133Y156900D02*
Y160900D01*
X299967D01*
X300300Y160700D01*
X300550Y160433D01*
X300758Y160033D01*
X300925Y159567D01*
X300967Y158900D01*
X300925Y158233D01*
X300758Y157767D01*
X300550Y157367D01*
X300300Y157100D01*
X299967Y156900D01*
X299133D01*
G01X303650D02*
Y160900D01*
X302108Y158033D01*
X304192D01*
G01X317117Y268649D02*
Y272649D01*
X318158D01*
X318492Y272449D01*
X318700Y272182D01*
X318783Y271649D01*
X318700Y271116D01*
X318450Y270782D01*
X318158Y270582D01*
X317117D01*
G01X318158D02*
X318783Y268649D01*
G01X320967D02*
X321050Y269516D01*
X321175Y270249D01*
X321342Y270916D01*
X321550Y271649D01*
X321883Y272649D01*
X320217D01*
G01X299975Y354033D02*
X300308Y353700D01*
X300683Y353500D01*
X301017D01*
X301350Y353700D01*
X301600Y354033D01*
X301725Y354500D01*
X301642Y354967D01*
X301433Y355367D01*
X301058Y355633D01*
X300558Y355767D01*
X300267Y356033D01*
X300142Y356500D01*
X300225Y356967D01*
X300433Y357300D01*
X300725Y357500D01*
X301017D01*
X301308Y357367D01*
X301558Y357033D01*
G01X303950Y353500D02*
X303617Y353567D01*
X303325Y353833D01*
X303075Y354233D01*
X302908Y354700D01*
X302825Y355233D01*
Y355767D01*
X302908Y356300D01*
X303075Y356767D01*
X303325Y357167D01*
X303617Y357433D01*
X303950Y357500D01*
X304283Y357433D01*
X304575Y357167D01*
X304825Y356767D01*
X304992Y356300D01*
X305075Y355767D01*
Y355233D01*
X304992Y354700D01*
X304825Y354233D01*
X304575Y353833D01*
X304283Y353567D01*
X303950Y353500D01*
G01X304283Y354567D02*
X304783Y353500D01*
G01X306217D02*
Y357500D01*
X307258D01*
X307592Y357300D01*
X307800Y357033D01*
X307883Y356500D01*
X307800Y355967D01*
X307550Y355633D01*
X307258Y355433D01*
X306217D01*
G01X307258D02*
X307883Y353500D01*
G01X310150Y357500D02*
Y353500D01*
G01X309192Y357500D02*
X311108D01*
G01X320117Y362749D02*
X320325Y362349D01*
X320575Y362082D01*
X320867Y361949D01*
X321200Y362082D01*
X321450Y362349D01*
X321700Y362749D01*
X321783Y363282D01*
Y365949D01*
G01X324550Y361949D02*
Y365949D01*
X323008Y363082D01*
X325092D01*
G01X355150Y38200D02*
X356150D01*
G01X355650D02*
Y34200D01*
G01X355150D02*
X356150D01*
G01X357792D02*
Y38200D01*
X359708Y34200D01*
Y38200D01*
G01X361850D02*
Y34200D01*
G01X360892Y38200D02*
X362808D01*
G01X363700Y32867D02*
X366200D01*
G01X368050Y34200D02*
X367717Y34267D01*
X367425Y34533D01*
X367175Y34933D01*
X367008Y35400D01*
X366925Y35933D01*
Y36467D01*
X367008Y37000D01*
X367175Y37467D01*
X367425Y37867D01*
X367717Y38133D01*
X368050Y38200D01*
X368383Y38133D01*
X368675Y37867D01*
X368925Y37467D01*
X369092Y37000D01*
X369175Y36467D01*
Y35933D01*
X369092Y35400D01*
X368925Y34933D01*
X368675Y34533D01*
X368383Y34267D01*
X368050Y34200D01*
G01X370317D02*
Y38200D01*
X371317D01*
X371650Y38000D01*
X371900Y37533D01*
X371983Y37000D01*
X371900Y36467D01*
X371692Y36067D01*
X371317Y35867D01*
X370317D01*
G01X359783Y131100D02*
Y127100D01*
X358742D01*
X358408Y127300D01*
X358200Y127567D01*
X358117Y128100D01*
X358200Y128633D01*
X358450Y128967D01*
X358742Y129167D01*
X359783D01*
G01X358742D02*
X358117Y131100D01*
G01X355850D02*
Y127100D01*
X356350Y127900D01*
G01Y131100D02*
X355350D01*
G01X352833D02*
X352750Y130233D01*
X352625Y129500D01*
X352458Y128833D01*
X352250Y128100D01*
X351917Y127100D01*
X353583D01*
G01X379633Y34400D02*
Y38400D01*
X380467D01*
X380800Y38200D01*
X381050Y37933D01*
X381258Y37533D01*
X381425Y37067D01*
X381467Y36400D01*
X381425Y35733D01*
X381258Y35267D01*
X381050Y34867D01*
X380800Y34600D01*
X380467Y34400D01*
X379633D01*
G01X383150Y38400D02*
X384150D01*
G01X383650D02*
Y34400D01*
G01X383150D02*
X384150D01*
G01X385958D02*
Y38400D01*
X387542D01*
G01X386958Y36467D02*
X385958D01*
G01X389058Y34400D02*
Y38400D01*
X390642D01*
G01X390058Y36467D02*
X389058D01*
G01X391700Y33067D02*
X394200D01*
G01X396050Y34400D02*
X395717Y34467D01*
X395425Y34733D01*
X395175Y35133D01*
X395008Y35600D01*
X394925Y36133D01*
Y36667D01*
X395008Y37200D01*
X395175Y37667D01*
X395425Y38067D01*
X395717Y38333D01*
X396050Y38400D01*
X396383Y38333D01*
X396675Y38067D01*
X396925Y37667D01*
X397092Y37200D01*
X397175Y36667D01*
Y36133D01*
X397092Y35600D01*
X396925Y35133D01*
X396675Y34733D01*
X396383Y34467D01*
X396050Y34400D01*
G01X398317D02*
Y38400D01*
X399317D01*
X399650Y38200D01*
X399900Y37733D01*
X399983Y37200D01*
X399900Y36667D01*
X399692Y36267D01*
X399317Y36067D01*
X398317D01*
G01X369033Y63167D02*
X368833Y62917D01*
X368700Y62625D01*
Y62292D01*
X368900Y61917D01*
X369233Y61625D01*
X369633Y61417D01*
X370300Y61250D01*
X370900Y61208D01*
X371500Y61292D01*
X371900Y61417D01*
X372300Y61667D01*
X372567Y61958D01*
X372700Y62250D01*
Y62542D01*
X372567Y62833D01*
X372367Y63083D01*
X372100Y63292D01*
G01X369367Y64558D02*
X368967Y64808D01*
X368767Y65100D01*
X368700Y65433D01*
X368833Y65850D01*
X369167Y66142D01*
X369567Y66225D01*
X369967Y66183D01*
X370300Y66017D01*
X370967Y65183D01*
X371433Y64808D01*
X372100Y64558D01*
X372700Y64475D01*
Y66225D01*
G01X377300Y155717D02*
X373300D01*
Y156758D01*
X373500Y157092D01*
X373767Y157300D01*
X374300Y157383D01*
X374833Y157300D01*
X375167Y157050D01*
X375367Y156758D01*
Y155717D01*
G01Y156758D02*
X377300Y157383D01*
G01X376833Y158942D02*
X377167Y159233D01*
X377300Y159567D01*
X377167Y159900D01*
X376767Y160192D01*
X376167Y160400D01*
X375567Y160483D01*
X374833D01*
X374233Y160400D01*
X373700Y160192D01*
X373433Y159942D01*
X373300Y159650D01*
X373433Y159317D01*
X373700Y159067D01*
X374100Y158900D01*
X374633Y158817D01*
X375100Y158900D01*
X375567Y159108D01*
X375833Y159358D01*
X375900Y159650D01*
X375767Y159983D01*
X375433Y160233D01*
X374833Y160483D01*
G01X367383Y335330D02*
Y332463D01*
X367550Y331863D01*
X367883Y331463D01*
X368300Y331330D01*
X368717Y331463D01*
X369050Y331863D01*
X369217Y332463D01*
Y335330D01*
G01X371900Y331330D02*
Y335330D01*
X370358Y332463D01*
X372442D01*
G01X412867Y47267D02*
X412617Y47467D01*
X412325Y47600D01*
X411992D01*
X411617Y47400D01*
X411325Y47067D01*
X411117Y46667D01*
X410950Y46000D01*
X410908Y45400D01*
X410992Y44800D01*
X411117Y44400D01*
X411367Y44000D01*
X411658Y43733D01*
X411950Y43600D01*
X412242D01*
X412533Y43733D01*
X412783Y43933D01*
X412992Y44200D01*
G01X415050Y43600D02*
Y47600D01*
X414550Y46800D01*
G01Y43600D02*
X415550D01*
G01X400637Y92870D02*
Y96870D01*
X401678D01*
X402012Y96670D01*
X402220Y96403D01*
X402303Y95870D01*
X402220Y95337D01*
X401970Y95003D01*
X401678Y94803D01*
X400637D01*
G01X401678D02*
X402303Y92870D01*
G01X404570D02*
Y96870D01*
X404070Y96070D01*
G01Y92870D02*
X405070D01*
G01X406753Y93470D02*
X407003Y93137D01*
X407295Y92937D01*
X407670Y92870D01*
X408045Y93003D01*
X408337Y93270D01*
X408545Y93737D01*
X408587Y94270D01*
X408503Y94803D01*
X408295Y95137D01*
X408003Y95403D01*
X407712Y95470D01*
X407420Y95403D01*
X407045Y95137D01*
X407170Y96870D01*
X408295D01*
G01X387117Y257449D02*
Y261449D01*
X388158D01*
X388492Y261249D01*
X388700Y260982D01*
X388783Y260449D01*
X388700Y259916D01*
X388450Y259582D01*
X388158Y259382D01*
X387117D01*
G01X388158D02*
X388783Y257449D01*
G01X391050D02*
Y261449D01*
X390550Y260649D01*
G01Y257449D02*
X391550D01*
G01X394150D02*
Y261449D01*
X393650Y260649D01*
G01Y257449D02*
X394650D01*
G01X405150Y354400D02*
X404817Y354467D01*
X404525Y354733D01*
X404275Y355133D01*
X404108Y355600D01*
X404025Y356133D01*
Y356667D01*
X404108Y357200D01*
X404275Y357667D01*
X404525Y358067D01*
X404817Y358333D01*
X405150Y358400D01*
X405483Y358333D01*
X405775Y358067D01*
X406025Y357667D01*
X406192Y357200D01*
X406275Y356667D01*
Y356133D01*
X406192Y355600D01*
X406025Y355133D01*
X405775Y354733D01*
X405483Y354467D01*
X405150Y354400D01*
G01X407458D02*
Y358400D01*
X409042D01*
G01X408458Y356467D02*
X407458D01*
G01X410558Y354400D02*
Y358400D01*
X412142D01*
G01X411558Y356467D02*
X410558D01*
G01X413658Y357733D02*
X413908Y358133D01*
X414200Y358333D01*
X414533Y358400D01*
X414950Y358267D01*
X415242Y357933D01*
X415325Y357533D01*
X415283Y357133D01*
X415117Y356800D01*
X414283Y356133D01*
X413908Y355667D01*
X413658Y355000D01*
X413575Y354400D01*
X415325D01*
G01X423344Y15211D02*
X423552Y14811D01*
X423802Y14544D01*
X424094Y14411D01*
X424427Y14544D01*
X424677Y14811D01*
X424927Y15211D01*
X425010Y15744D01*
Y18411D01*
G01X426360Y15211D02*
X426610Y14744D01*
X426944Y14478D01*
X427319Y14411D01*
X427652Y14478D01*
X427985Y14811D01*
X428194Y15211D01*
X428235Y15611D01*
X428152Y16078D01*
X427860Y16411D01*
X427569Y16544D01*
X427194D01*
G01X427569D02*
X427819Y16744D01*
X428027Y17078D01*
X428110Y17478D01*
X428027Y17878D01*
X427819Y18211D01*
X427444Y18411D01*
X427069Y18344D01*
X426694Y18078D01*
G01X423250Y30100D02*
X424250D01*
G01X423750D02*
Y26100D01*
G01X423250D02*
X424250D01*
G01X426017D02*
Y30100D01*
X427017D01*
X427350Y29900D01*
X427600Y29433D01*
X427683Y28900D01*
X427600Y28367D01*
X427392Y27967D01*
X427017Y27767D01*
X426017D01*
G01X428700Y24767D02*
X431200D01*
G01X432133Y26100D02*
Y30100D01*
X432967D01*
X433300Y29900D01*
X433550Y29633D01*
X433758Y29233D01*
X433925Y28767D01*
X433967Y28100D01*
X433925Y27433D01*
X433758Y26967D01*
X433550Y26567D01*
X433300Y26300D01*
X432967Y26100D01*
X432133D01*
G01X435650Y30100D02*
X436650D01*
G01X436150D02*
Y26100D01*
G01X435650D02*
X436650D01*
G01X438458D02*
Y30100D01*
X440042D01*
G01X439458Y28167D02*
X438458D01*
G01X441558Y26100D02*
Y30100D01*
X443142D01*
G01X442558Y28167D02*
X441558D01*
G01X415933Y149600D02*
Y146733D01*
X416100Y146133D01*
X416433Y145733D01*
X416850Y145600D01*
X417267Y145733D01*
X417600Y146133D01*
X417767Y146733D01*
Y149600D01*
G01X419867Y145600D02*
X419950Y146467D01*
X420075Y147200D01*
X420242Y147867D01*
X420450Y148600D01*
X420783Y149600D01*
X419117D01*
G01X423883Y228830D02*
Y225963D01*
X424050Y225363D01*
X424383Y224963D01*
X424800Y224830D01*
X425217Y224963D01*
X425550Y225363D01*
X425717Y225963D01*
Y228830D01*
G01X426983Y225630D02*
X427233Y225163D01*
X427567Y224897D01*
X427942Y224830D01*
X428275Y224897D01*
X428608Y225230D01*
X428817Y225630D01*
X428858Y226030D01*
X428775Y226497D01*
X428483Y226830D01*
X428192Y226963D01*
X427817D01*
G01X428192D02*
X428442Y227163D01*
X428650Y227497D01*
X428733Y227897D01*
X428650Y228297D01*
X428442Y228630D01*
X428067Y228830D01*
X427692Y228763D01*
X427317Y228497D01*
G01X427250Y353400D02*
X426917Y353467D01*
X426625Y353733D01*
X426375Y354133D01*
X426208Y354600D01*
X426125Y355133D01*
Y355667D01*
X426208Y356200D01*
X426375Y356667D01*
X426625Y357067D01*
X426917Y357333D01*
X427250Y357400D01*
X427583Y357333D01*
X427875Y357067D01*
X428125Y356667D01*
X428292Y356200D01*
X428375Y355667D01*
Y355133D01*
X428292Y354600D01*
X428125Y354133D01*
X427875Y353733D01*
X427583Y353467D01*
X427250Y353400D01*
G01X429558D02*
Y357400D01*
X431142D01*
G01X430558Y355467D02*
X429558D01*
G01X432658Y353400D02*
Y357400D01*
X434242D01*
G01X433658Y355467D02*
X432658D01*
G01X436550Y353400D02*
Y357400D01*
X436050Y356600D01*
G01Y353400D02*
X437050D01*
G01X448533Y153049D02*
Y157049D01*
X449367D01*
X449700Y156849D01*
X449950Y156582D01*
X450158Y156182D01*
X450325Y155716D01*
X450367Y155049D01*
X450325Y154382D01*
X450158Y153916D01*
X449950Y153516D01*
X449700Y153249D01*
X449367Y153049D01*
X448533D01*
G01X452550D02*
Y157049D01*
X452050Y156249D01*
G01Y153049D02*
X453050D01*
G01X458717Y276800D02*
Y280800D01*
X459758D01*
X460092Y280600D01*
X460300Y280333D01*
X460383Y279800D01*
X460300Y279267D01*
X460050Y278933D01*
X459758Y278733D01*
X458717D01*
G01X459758D02*
X460383Y276800D01*
G01X462650D02*
Y280800D01*
X462150Y280000D01*
G01Y276800D02*
X463150D01*
G01X464833Y277600D02*
X465083Y277133D01*
X465417Y276867D01*
X465792Y276800D01*
X466125Y276867D01*
X466458Y277200D01*
X466667Y277600D01*
X466708Y278000D01*
X466625Y278467D01*
X466333Y278800D01*
X466042Y278933D01*
X465667D01*
G01X466042D02*
X466292Y279133D01*
X466500Y279467D01*
X466583Y279867D01*
X466500Y280267D01*
X466292Y280600D01*
X465917Y280800D01*
X465542Y280733D01*
X465167Y280467D01*
G01X450217Y321200D02*
Y325200D01*
X451258D01*
X451592Y325000D01*
X451800Y324733D01*
X451883Y324200D01*
X451800Y323667D01*
X451550Y323333D01*
X451258Y323133D01*
X450217D01*
G01X451258D02*
X451883Y321200D01*
G01X454150D02*
Y325200D01*
X453650Y324400D01*
G01Y321200D02*
X454650D01*
G01X457750D02*
Y325200D01*
X456208Y322333D01*
X458292D01*
G01X445150Y358000D02*
X446150D01*
G01X445650D02*
Y354000D01*
G01X445150D02*
X446150D01*
G01X447792D02*
Y358000D01*
X449708Y354000D01*
Y358000D01*
G01X451017Y354000D02*
Y358000D01*
X452017D01*
X452350Y357800D01*
X452600Y357333D01*
X452683Y356800D01*
X452600Y356267D01*
X452392Y355867D01*
X452017Y355667D01*
X451017D01*
G01X454033Y358000D02*
Y355133D01*
X454200Y354533D01*
X454533Y354133D01*
X454950Y354000D01*
X455367Y354133D01*
X455700Y354533D01*
X455867Y355133D01*
Y358000D01*
G01X458050D02*
Y354000D01*
G01X457092Y358000D02*
X459008D01*
G01X493567Y77467D02*
X493317Y77667D01*
X493025Y77800D01*
X492692D01*
X492317Y77600D01*
X492025Y77267D01*
X491817Y76867D01*
X491650Y76200D01*
X491608Y75600D01*
X491692Y75000D01*
X491817Y74600D01*
X492067Y74200D01*
X492358Y73933D01*
X492650Y73800D01*
X492942D01*
X493233Y73933D01*
X493483Y74133D01*
X493692Y74400D01*
G01X494833Y74600D02*
X495083Y74133D01*
X495417Y73867D01*
X495792Y73800D01*
X496125Y73867D01*
X496458Y74200D01*
X496667Y74600D01*
X496708Y75000D01*
X496625Y75467D01*
X496333Y75800D01*
X496042Y75933D01*
X495667D01*
G01X496042D02*
X496292Y76133D01*
X496500Y76467D01*
X496583Y76867D01*
X496500Y77267D01*
X496292Y77600D01*
X495917Y77800D01*
X495542Y77733D01*
X495167Y77467D01*
G01X482000Y196817D02*
X478000D01*
Y197858D01*
X478200Y198192D01*
X478467Y198400D01*
X479000Y198483D01*
X479533Y198400D01*
X479867Y198150D01*
X480067Y197858D01*
Y196817D01*
G01Y197858D02*
X482000Y198483D01*
G01Y200750D02*
X478000D01*
X478800Y200250D01*
G01X482000D02*
Y201250D01*
G01X478000Y203850D02*
X478133Y203517D01*
X478467Y203267D01*
X478867Y203100D01*
X479400Y202975D01*
X480000Y202933D01*
X480600Y202975D01*
X481133Y203100D01*
X481533Y203267D01*
X481867Y203517D01*
X482000Y203850D01*
X481867Y204183D01*
X481533Y204433D01*
X481133Y204600D01*
X480600Y204725D01*
X480000Y204767D01*
X479400Y204725D01*
X478867Y204600D01*
X478467Y204433D01*
X478133Y204183D01*
X478000Y203850D01*
G01X471108Y355333D02*
X472192D01*
G01X473708Y358000D02*
X474750Y354000D01*
X475792Y358000D01*
G01X478767Y357667D02*
X478517Y357867D01*
X478225Y358000D01*
X477892D01*
X477517Y357800D01*
X477225Y357467D01*
X477017Y357067D01*
X476850Y356400D01*
X476808Y355800D01*
X476892Y355200D01*
X477017Y354800D01*
X477267Y354400D01*
X477558Y354133D01*
X477850Y354000D01*
X478142D01*
X478433Y354133D01*
X478683Y354333D01*
X478892Y354600D01*
G01X481867Y357667D02*
X481617Y357867D01*
X481325Y358000D01*
X480992D01*
X480617Y357800D01*
X480325Y357467D01*
X480117Y357067D01*
X479950Y356400D01*
X479908Y355800D01*
X479992Y355200D01*
X480117Y354800D01*
X480367Y354400D01*
X480658Y354133D01*
X480950Y354000D01*
X481242D01*
X481533Y354133D01*
X481783Y354333D01*
X481992Y354600D01*
G01X484017Y386300D02*
X484225Y385900D01*
X484475Y385633D01*
X484767Y385500D01*
X485100Y385633D01*
X485350Y385900D01*
X485600Y386300D01*
X485683Y386833D01*
Y389500D01*
G01X487158Y388833D02*
X487408Y389233D01*
X487700Y389433D01*
X488033Y389500D01*
X488450Y389367D01*
X488742Y389033D01*
X488825Y388633D01*
X488783Y388233D01*
X488617Y387900D01*
X487783Y387233D01*
X487408Y386767D01*
X487158Y386100D01*
X487075Y385500D01*
X488825D01*
G01X509417Y61300D02*
Y65300D01*
X510458D01*
X510792Y65100D01*
X511000Y64833D01*
X511083Y64300D01*
X511000Y63767D01*
X510750Y63433D01*
X510458Y63233D01*
X509417D01*
G01X510458D02*
X511083Y61300D01*
G01X513350D02*
Y65300D01*
X512850Y64500D01*
G01Y61300D02*
X513850D01*
G01X516450D02*
X516742Y61367D01*
X517075Y61567D01*
X517283Y61900D01*
X517367Y62367D01*
X517283Y62833D01*
X517033Y63233D01*
X516658Y63433D01*
X516242D01*
X515992Y63567D01*
X515783Y63900D01*
X515700Y64367D01*
X515825Y64833D01*
X516117Y65167D01*
X516450Y65300D01*
X516783Y65167D01*
X517075Y64833D01*
X517200Y64367D01*
X517117Y63900D01*
X516908Y63567D01*
X516658Y63433D01*
X516242D01*
X515867Y63233D01*
X515617Y62833D01*
X515533Y62367D01*
X515617Y61900D01*
X515825Y61567D01*
X516158Y61367D01*
X516450Y61300D01*
G01X508649Y146433D02*
X511516D01*
X512116Y146600D01*
X512516Y146933D01*
X512649Y147350D01*
X512516Y147767D01*
X512116Y148100D01*
X511516Y148267D01*
X508649D01*
G01X512649Y150450D02*
X512582Y150742D01*
X512382Y151075D01*
X512049Y151283D01*
X511582Y151367D01*
X511116Y151283D01*
X510716Y151033D01*
X510516Y150658D01*
Y150242D01*
X510382Y149992D01*
X510049Y149783D01*
X509582Y149700D01*
X509116Y149825D01*
X508782Y150117D01*
X508649Y150450D01*
X508782Y150783D01*
X509116Y151075D01*
X509582Y151200D01*
X510049Y151117D01*
X510382Y150908D01*
X510516Y150658D01*
Y150242D01*
X510716Y149867D01*
X511116Y149617D01*
X511582Y149533D01*
X512049Y149617D01*
X512382Y149825D01*
X512582Y150158D01*
X512649Y150450D01*
G01X521383Y229830D02*
Y226963D01*
X521550Y226363D01*
X521883Y225963D01*
X522300Y225830D01*
X522717Y225963D01*
X523050Y226363D01*
X523217Y226963D01*
Y229830D01*
G01X524608Y227497D02*
X524900Y227963D01*
X525150Y228230D01*
X525483Y228363D01*
X525775Y228230D01*
X525983Y227963D01*
X526150Y227563D01*
X526192Y227097D01*
X526150Y226697D01*
X525983Y226297D01*
X525733Y225963D01*
X525442Y225830D01*
X525108Y225963D01*
X524817Y226363D01*
X524650Y226963D01*
X524608Y227630D01*
X524692Y228497D01*
X524817Y228963D01*
X525025Y229430D01*
X525317Y229763D01*
X525608Y229830D01*
X525900Y229697D01*
X526108Y229363D01*
G01X511383Y336330D02*
Y333463D01*
X511550Y332863D01*
X511883Y332463D01*
X512300Y332330D01*
X512717Y332463D01*
X513050Y332863D01*
X513217Y333463D01*
Y336330D01*
G01X514483Y332930D02*
X514733Y332597D01*
X515025Y332397D01*
X515400Y332330D01*
X515775Y332463D01*
X516067Y332730D01*
X516275Y333197D01*
X516317Y333730D01*
X516233Y334263D01*
X516025Y334597D01*
X515733Y334863D01*
X515442Y334930D01*
X515150Y334863D01*
X514775Y334597D01*
X514900Y336330D01*
X516025D01*
G01X523717Y359700D02*
Y363700D01*
X524758D01*
X525092Y363500D01*
X525300Y363233D01*
X525383Y362700D01*
X525300Y362167D01*
X525050Y361833D01*
X524758Y361633D01*
X523717D01*
G01X524758D02*
X525383Y359700D01*
G01X527650D02*
Y363700D01*
X527150Y362900D01*
G01Y359700D02*
X528150D01*
G01X529958Y363033D02*
X530208Y363433D01*
X530500Y363633D01*
X530833Y363700D01*
X531250Y363567D01*
X531542Y363233D01*
X531625Y362833D01*
X531583Y362433D01*
X531417Y362100D01*
X530583Y361433D01*
X530208Y360967D01*
X529958Y360300D01*
X529875Y359700D01*
X531625D01*
G01X537333Y254949D02*
Y258949D01*
X538167D01*
X538500Y258749D01*
X538750Y258482D01*
X538958Y258082D01*
X539125Y257616D01*
X539167Y256949D01*
X539125Y256282D01*
X538958Y255816D01*
X538750Y255416D01*
X538500Y255149D01*
X538167Y254949D01*
X537333D01*
G01X540558Y258282D02*
X540808Y258682D01*
X541100Y258882D01*
X541433Y258949D01*
X541850Y258816D01*
X542142Y258482D01*
X542225Y258082D01*
X542183Y257682D01*
X542017Y257349D01*
X541183Y256682D01*
X540808Y256216D01*
X540558Y255549D01*
X540475Y254949D01*
X542225D01*
M02*
