G04 ================== begin FILE IDENTIFICATION RECORD ==================*
G04 Layout Name:  analogater_after_clg_arun.brd*
G04 Film Name:    SOLDERMASK_BOTTOM*
G04 File Format:  Gerber RS274X*
G04 File Origin:  Cadence Allegro -unreleased*
G04 Origin Date:  Tue Mar 25 13:31:54 2025*
G04 *
G04 Layer:  PIN/SOLDERMASK_BOTTOM*
G04 Layer:  VIA CLASS/SOLDERMASK_BOTTOM*
G04 Layer:  PACKAGE GEOMETRY/SOLDERMASK_BOTTOM*
G04 Layer:  BOARD GEOMETRY/OUTLINE*
G04 Layer:  BOARD GEOMETRY/SOLDERMASK_BOTTOM*
G04 *
G04 Offset:    (0.00 0.00)*
G04 Mirror:    No*
G04 Mode:      Positive*
G04 Rotation:  0*
G04 FullContactRelief:  No*
G04 UndefLineWidth:     5.00*
G04 ================== end FILE IDENTIFICATION RECORD ====================*
%FSLAX25Y25*MOIN*%
%IR0*IPPOS*OFA0.00000B0.00000*MIA0B0*SFA1.00000B1.00000*%
%AMMACRO17*
4,1,40,.02347,.08024,
-.02347,.08024,
-.031619,.079527,
-.039521,.07741,
-.046935,.073953,
-.053636,.06926,
-.05942,.063476,
-.064113,.056775,
-.06757,.049361,
-.069687,.041459,
-.0704,.03331,
-.0704,-.03331,
-.069687,-.041459,
-.06757,-.049361,
-.064113,-.056775,
-.05942,-.063476,
-.053636,-.06926,
-.046935,-.073953,
-.039521,-.07741,
-.031619,-.079527,
-.02347,-.08024,
.02347,-.08024,
.031619,-.079527,
.039521,-.07741,
.046935,-.073953,
.053636,-.06926,
.05942,-.063476,
.064113,-.056775,
.06757,-.049361,
.069687,-.041459,
.0704,-.03331,
.0704,.03331,
.069687,.041459,
.06757,.049361,
.064113,.056775,
.05942,.063476,
.053636,.06926,
.046935,.073953,
.039521,.07741,
.031619,.079527,
.02347,.08024,
0.0*
%
%ADD17MACRO17*%
%AMMACRO18*
4,1,40,-.04087,.01362,
-.04087,-.01362,
-.040456,-.018352,
-.039227,-.02294,
-.037219,-.027245,
-.034495,-.031136,
-.031136,-.034495,
-.027245,-.037219,
-.02294,-.039227,
-.018352,-.040456,
-.01362,-.04087,
.01362,-.04087,
.018352,-.040456,
.02294,-.039227,
.027245,-.037219,
.031136,-.034495,
.034495,-.031136,
.037219,-.027245,
.039227,-.02294,
.040456,-.018352,
.04087,-.01362,
.04087,.01362,
.040456,.018352,
.039227,.02294,
.037219,.027245,
.034495,.031136,
.031136,.034495,
.027245,.037219,
.02294,.039227,
.018352,.040456,
.01362,.04087,
-.01362,.04087,
-.018352,.040456,
-.02294,.039227,
-.027245,.037219,
-.031136,.034495,
-.034495,.031136,
-.037219,.027245,
-.039227,.02294,
-.040456,.018352,
-.04087,.01362,
0.0*
%
%ADD18MACRO18*%
%AMMACRO14*
4,1,40,.01362,.04087,
-.01362,.04087,
-.018352,.040456,
-.02294,.039227,
-.027245,.037219,
-.031136,.034495,
-.034495,.031136,
-.037219,.027245,
-.039227,.02294,
-.040456,.018352,
-.04087,.01362,
-.04087,-.01362,
-.040456,-.018352,
-.039227,-.02294,
-.037219,-.027245,
-.034495,-.031136,
-.031136,-.034495,
-.027245,-.037219,
-.02294,-.039227,
-.018352,-.040456,
-.01362,-.04087,
.01362,-.04087,
.018352,-.040456,
.02294,-.039227,
.027245,-.037219,
.031136,-.034495,
.034495,-.031136,
.037219,-.027245,
.039227,-.02294,
.040456,-.018352,
.04087,-.01362,
.04087,.01362,
.040456,.018352,
.039227,.02294,
.037219,.027245,
.034495,.031136,
.031136,.034495,
.027245,.037219,
.02294,.039227,
.018352,.040456,
.01362,.04087,
0.0*
%
%ADD14MACRO14*%
%AMMACRO13*
4,1,44,.02905,.03693,
-.02905,.03693,
-.032469,.036637,
-.035785,.035749,
-.038896,.0343,
-.041708,.032332,
-.044135,.029905,
-.046105,.027094,
-.047556,.023984,
-.048445,.020669,
-.048745,.01725,
-.04874,.01724,
-.04874,-.01724,
-.048447,-.020659,
-.047559,-.023975,
-.04611,-.027086,
-.044142,-.029898,
-.041715,-.032325,
-.038904,-.034295,
-.035794,-.035746,
-.032479,-.036635,
-.02906,-.036935,
-.02905,-.03693,
.02905,-.03693,
.032469,-.036637,
.035785,-.035749,
.038896,-.0343,
.041708,-.032332,
.044135,-.029905,
.046105,-.027094,
.047556,-.023984,
.048445,-.020669,
.048745,-.01725,
.04874,-.01724,
.04874,.01724,
.048447,.020659,
.047559,.023975,
.04611,.027086,
.044142,.029898,
.041715,.032325,
.038904,.034295,
.035794,.035746,
.032479,.036635,
.02906,.036935,
.02905,.03693,
0.0*
%
%ADD13MACRO13*%
%ADD10C,.161*%
%ADD15O,.1408X.16048*%
%AMMACRO16*
4,1,40,-.02347,-.08024,
.02347,-.08024,
.031619,-.079527,
.039521,-.07741,
.046935,-.073953,
.053636,-.06926,
.05942,-.063476,
.064113,-.056775,
.06757,-.049361,
.069687,-.041459,
.0704,-.03331,
.0704,.03331,
.069687,.041459,
.06757,.049361,
.064113,.056775,
.05942,.063476,
.053636,.06926,
.046935,.073953,
.039521,.07741,
.031619,.079527,
.02347,.08024,
-.02347,.08024,
-.031619,.079527,
-.039521,.07741,
-.046935,.073953,
-.053636,.06926,
-.05942,.063476,
-.064113,.056775,
-.06757,.049361,
-.069687,.041459,
-.0704,.03331,
-.0704,-.03331,
-.069687,-.041459,
-.06757,-.049361,
-.064113,-.056775,
-.05942,-.063476,
-.053636,-.06926,
-.046935,-.073953,
-.039521,-.07741,
-.031619,-.079527,
-.02347,-.08024,
0.0*
%
%ADD16MACRO16*%
%AMMACRO12*
4,1,40,-.01362,-.04087,
.01362,-.04087,
.018352,-.040456,
.02294,-.039227,
.027245,-.037219,
.031136,-.034495,
.034495,-.031136,
.037219,-.027245,
.039227,-.02294,
.040456,-.018352,
.04087,-.01362,
.04087,.01362,
.040456,.018352,
.039227,.02294,
.037219,.027245,
.034495,.031136,
.031136,.034495,
.027245,.037219,
.02294,.039227,
.018352,.040456,
.01362,.04087,
-.01362,.04087,
-.018352,.040456,
-.02294,.039227,
-.027245,.037219,
-.031136,.034495,
-.034495,.031136,
-.037219,.027245,
-.039227,.02294,
-.040456,.018352,
-.04087,.01362,
-.04087,-.01362,
-.040456,-.018352,
-.039227,-.02294,
-.037219,-.027245,
-.034495,-.031136,
-.031136,-.034495,
-.027245,-.037219,
-.02294,-.039227,
-.018352,-.040456,
-.01362,-.04087,
0.0*
%
%ADD12MACRO12*%
%AMMACRO11*
4,1,40,.04087,-.01362,
.04087,.01362,
.040456,.018352,
.039227,.02294,
.037219,.027245,
.034495,.031136,
.031136,.034495,
.027245,.037219,
.02294,.039227,
.018352,.040456,
.01362,.04087,
-.01362,.04087,
-.018352,.040456,
-.02294,.039227,
-.027245,.037219,
-.031136,.034495,
-.034495,.031136,
-.037219,.027245,
-.039227,.02294,
-.040456,.018352,
-.04087,.01362,
-.04087,-.01362,
-.040456,-.018352,
-.039227,-.02294,
-.037219,-.027245,
-.034495,-.031136,
-.031136,-.034495,
-.027245,-.037219,
-.02294,-.039227,
-.018352,-.040456,
-.01362,-.04087,
.01362,-.04087,
.018352,-.040456,
.02294,-.039227,
.027245,-.037219,
.031136,-.034495,
.034495,-.031136,
.037219,-.027245,
.039227,-.02294,
.040456,-.018352,
.04087,-.01362,
0.0*
%
%ADD11MACRO11*%
%ADD19C,.005*%
G75*
%LPD*%
G75*
G54D10*
X20000Y3414D03*
Y396486D03*
X570551Y3414D03*
Y396486D03*
G54D11*
X31000Y54850D03*
Y98150D03*
X33000Y136850D03*
Y180150D03*
X24000Y293850D03*
Y337150D03*
X54000Y293850D03*
Y337150D03*
X94500Y293350D03*
Y336650D03*
X126500Y57350D03*
Y100650D03*
X235000Y178850D03*
Y222150D03*
G54D12*
X63660Y55000D03*
X61660Y134500D03*
X93340Y55000D03*
X91340Y134500D03*
X270660Y167500D03*
X300340D03*
X424160Y163500D03*
X441850Y268000D03*
X453840Y163500D03*
X485150Y268000D03*
X509660Y267000D03*
X539340D03*
G54D13*
X61870Y98500D03*
Y88500D03*
Y78500D03*
Y108500D03*
X60870Y179500D03*
Y169500D03*
Y159500D03*
Y189500D03*
X62870Y244000D03*
Y264000D03*
Y254000D03*
Y274000D03*
X93130Y78500D03*
Y88500D03*
Y98500D03*
Y108500D03*
X92130Y159500D03*
Y169500D03*
Y179500D03*
Y189500D03*
X94130Y244000D03*
Y254000D03*
Y264000D03*
Y274000D03*
X156370Y94500D03*
Y124500D03*
Y114500D03*
Y104500D03*
X187630Y94500D03*
Y104500D03*
Y114500D03*
Y124500D03*
X170870Y241000D03*
Y231000D03*
Y221000D03*
Y251000D03*
X202130Y221000D03*
Y231000D03*
Y241000D03*
Y251000D03*
X269370Y128000D03*
Y118000D03*
Y108000D03*
Y138000D03*
X271870Y215500D03*
Y235500D03*
Y225500D03*
Y245500D03*
X271370Y292500D03*
Y322500D03*
Y312500D03*
Y302500D03*
X300630Y108000D03*
Y118000D03*
Y128000D03*
Y138000D03*
X303130Y215500D03*
Y225500D03*
Y235500D03*
Y245500D03*
X302630Y292500D03*
Y302500D03*
Y312500D03*
Y322500D03*
X367870Y293500D03*
Y323500D03*
Y313500D03*
Y303500D03*
X403370Y127000D03*
Y117000D03*
Y107000D03*
Y137000D03*
X399130Y293500D03*
Y303500D03*
Y313500D03*
Y323500D03*
X434630Y107000D03*
Y117000D03*
Y127000D03*
Y137000D03*
X424370Y187000D03*
Y207000D03*
Y197000D03*
Y217000D03*
X455630Y187000D03*
Y197000D03*
Y207000D03*
Y217000D03*
X498370Y128000D03*
Y118000D03*
Y108000D03*
Y138000D03*
X529630Y108000D03*
Y118000D03*
Y128000D03*
Y138000D03*
X521870Y208000D03*
Y198000D03*
Y188000D03*
Y218000D03*
X511870Y294500D03*
Y324500D03*
Y314500D03*
Y304500D03*
X553130Y188000D03*
Y198000D03*
Y208000D03*
Y218000D03*
X543130Y294500D03*
Y304500D03*
Y314500D03*
Y324500D03*
G54D14*
X53850Y215500D03*
X97150D03*
X120350Y168000D03*
X151850Y57000D03*
X163650Y168000D03*
X163850Y196000D03*
X159850Y309000D03*
Y339000D03*
Y369000D03*
X195150Y57000D03*
X212850Y85500D03*
X207150Y196000D03*
X203150Y309000D03*
Y339000D03*
Y369000D03*
X255850Y56500D03*
X256150Y85500D03*
X269350Y192000D03*
X266850Y270500D03*
X299150Y56500D03*
X312650Y192000D03*
X310150Y270500D03*
X338350Y119000D03*
X381650D03*
X367350Y269500D03*
X402660Y58500D03*
X392350Y85000D03*
X410650Y269500D03*
X422340Y58500D03*
X435650Y85000D03*
X432350Y312500D03*
X494350Y53000D03*
X475650Y312500D03*
X504660Y82000D03*
X524340D03*
X506350Y351500D03*
X537650Y53000D03*
X549650Y351500D03*
G54D15*
X74000Y378000D03*
X54000D03*
X94000D03*
X186000Y16000D03*
X206000D03*
X226000D03*
X244500Y378000D03*
X264500D03*
X284500D03*
X368500Y15000D03*
X388500D03*
X408500D03*
X409500Y378000D03*
X429500D03*
X449500D03*
G54D16*
X114000D03*
X304500D03*
X469500D03*
G54D17*
X166000Y16000D03*
X348500Y15000D03*
G54D18*
X327500Y40350D03*
Y83650D03*
X359000Y52660D03*
Y72340D03*
X375000Y165350D03*
Y208650D03*
X490000Y176350D03*
Y219650D03*
G54D19*
G01X585551Y416486D02*
X5000D01*
X0Y411486D01*
Y-11586D01*
X5000Y-16586D01*
X585551D01*
X590551Y-11586D01*
Y411486D01*
X585551Y416486D01*
M02*
