G04 ================== begin FILE IDENTIFICATION RECORD ==================*
G04 Layout Name:  analogater_after_clg_arun.brd*
G04 Film Name:    TOP*
G04 File Format:  Gerber RS274X*
G04 File Origin:  Cadence Allegro -unreleased*
G04 Origin Date:  Tue Mar 25 13:31:54 2025*
G04 *
G04 Layer:  ETCH/TOP*
G04 Layer:  PIN/TOP*
G04 Layer:  VIA CLASS/TOP*
G04 Layer:  BOARD GEOMETRY/OUTLINE*
G04 *
G04 Offset:    (0.00 0.00)*
G04 Mirror:    No*
G04 Mode:      Positive*
G04 Rotation:  0*
G04 FullContactRelief:  Yes*
G04 UndefLineWidth:     5.00*
G04 ================== end FILE IDENTIFICATION RECORD ====================*
%FSLAX25Y25*MOIN*%
%IR0*IPPOS*OFA0.00000B0.00000*MIA0B0*SFA1.00000B1.00000*%
%AMMACRO12*
4,1,40,-.0227,-.03937,
.0227,-.03937,
.025595,-.039117,
.028401,-.038365,
.031035,-.037137,
.033415,-.03547,
.03547,-.033415,
.037137,-.031035,
.038365,-.028401,
.039117,-.025595,
.03937,-.0227,
.03937,.0227,
.039117,.025595,
.038365,.028401,
.037137,.031035,
.03547,.033415,
.033415,.03547,
.031035,.037137,
.028401,.038365,
.025595,.039117,
.0227,.03937,
-.0227,.03937,
-.025595,.039117,
-.028401,.038365,
-.031035,.037137,
-.033415,.03547,
-.03547,.033415,
-.037137,.031035,
-.038365,.028401,
-.039117,.025595,
-.03937,.0227,
-.03937,-.0227,
-.039117,-.025595,
-.038365,-.028401,
-.037137,-.031035,
-.03547,-.033415,
-.033415,-.03547,
-.031035,-.037137,
-.028401,-.038365,
-.025595,-.039117,
-.0227,-.03937,
0.0*
%
%ADD12MACRO12*%
%AMMACRO11*
4,1,40,.03937,-.0227,
.03937,.0227,
.039117,.025595,
.038365,.028401,
.037137,.031035,
.03547,.033415,
.033415,.03547,
.031035,.037137,
.028401,.038365,
.025595,.039117,
.0227,.03937,
-.0227,.03937,
-.025595,.039117,
-.028401,.038365,
-.031035,.037137,
-.033415,.03547,
-.03547,.033415,
-.037137,.031035,
-.038365,.028401,
-.039117,.025595,
-.03937,.0227,
-.03937,-.0227,
-.039117,-.025595,
-.038365,-.028401,
-.037137,-.031035,
-.03547,-.033415,
-.033415,-.03547,
-.031035,-.037137,
-.028401,-.038365,
-.025595,-.039117,
-.0227,-.03937,
.0227,-.03937,
.025595,-.039117,
.028401,-.038365,
.031035,-.037137,
.033415,-.03547,
.03547,-.033415,
.037137,-.031035,
.038365,-.028401,
.039117,-.025595,
.03937,-.0227,
0.0*
%
%ADD11MACRO11*%
%AMMACRO17*
4,1,40,.02297,.07874,
-.02297,.07874,
-.030946,.078042,
-.038679,.07597,
-.045935,.072587,
-.052493,.067994,
-.058154,.062333,
-.062747,.055775,
-.06613,.048519,
-.068202,.040786,
-.0689,.03281,
-.0689,-.03281,
-.068202,-.040786,
-.06613,-.048519,
-.062747,-.055775,
-.058154,-.062333,
-.052493,-.067994,
-.045935,-.072587,
-.038679,-.07597,
-.030946,-.078042,
-.02297,-.07874,
.02297,-.07874,
.030946,-.078042,
.038679,-.07597,
.045935,-.072587,
.052493,-.067994,
.058154,-.062333,
.062747,-.055775,
.06613,-.048519,
.068202,-.040786,
.0689,-.03281,
.0689,.03281,
.068202,.040786,
.06613,.048519,
.062747,.055775,
.058154,.062333,
.052493,.067994,
.045935,.072587,
.038679,.07597,
.030946,.078042,
.02297,.07874,
0.0*
%
%ADD17MACRO17*%
%AMMACRO18*
4,1,40,-.03937,.0227,
-.03937,-.0227,
-.039117,-.025595,
-.038365,-.028401,
-.037137,-.031035,
-.03547,-.033415,
-.033415,-.03547,
-.031035,-.037137,
-.028401,-.038365,
-.025595,-.039117,
-.0227,-.03937,
.0227,-.03937,
.025595,-.039117,
.028401,-.038365,
.031035,-.037137,
.033415,-.03547,
.03547,-.033415,
.037137,-.031035,
.038365,-.028401,
.039117,-.025595,
.03937,-.0227,
.03937,.0227,
.039117,.025595,
.038365,.028401,
.037137,.031035,
.03547,.033415,
.033415,.03547,
.031035,.037137,
.028401,.038365,
.025595,.039117,
.0227,.03937,
-.0227,.03937,
-.025595,.039117,
-.028401,.038365,
-.031035,.037137,
-.033415,.03547,
-.03547,.033415,
-.037137,.031035,
-.038365,.028401,
-.039117,.025595,
-.03937,.0227,
0.0*
%
%ADD18MACRO18*%
%AMMACRO14*
4,1,40,.0227,.03937,
-.0227,.03937,
-.025595,.039117,
-.028401,.038365,
-.031035,.037137,
-.033415,.03547,
-.03547,.033415,
-.037137,.031035,
-.038365,.028401,
-.039117,.025595,
-.03937,.0227,
-.03937,-.0227,
-.039117,-.025595,
-.038365,-.028401,
-.037137,-.031035,
-.03547,-.033415,
-.033415,-.03547,
-.031035,-.037137,
-.028401,-.038365,
-.025595,-.039117,
-.0227,-.03937,
.0227,-.03937,
.025595,-.039117,
.028401,-.038365,
.031035,-.037137,
.033415,-.03547,
.03547,-.033415,
.037137,-.031035,
.038365,-.028401,
.039117,-.025595,
.03937,-.0227,
.03937,.0227,
.039117,.025595,
.038365,.028401,
.037137,.031035,
.03547,.033415,
.033415,.03547,
.031035,.037137,
.028401,.038365,
.025595,.039117,
.0227,.03937,
0.0*
%
%ADD14MACRO14*%
%AMMACRO13*
4,1,44,.02755,.03543,
-.02755,.03543,
-.030969,.035137,
-.034285,.034249,
-.037396,.0328,
-.040208,.030832,
-.042635,.028405,
-.044605,.025594,
-.046056,.022484,
-.046945,.019169,
-.047245,.01575,
-.04724,.01574,
-.04724,-.01574,
-.046947,-.019159,
-.046059,-.022475,
-.04461,-.025586,
-.042642,-.028398,
-.040215,-.030825,
-.037404,-.032795,
-.034294,-.034246,
-.030979,-.035135,
-.02756,-.035435,
-.02755,-.03543,
.02755,-.03543,
.030969,-.035137,
.034285,-.034249,
.037396,-.0328,
.040208,-.030832,
.042635,-.028405,
.044605,-.025594,
.046056,-.022484,
.046945,-.019169,
.047245,-.01575,
.04724,-.01574,
.04724,.01574,
.046947,.019159,
.046059,.022475,
.04461,.025586,
.042642,.028398,
.040215,.030825,
.037404,.032795,
.034294,.034246,
.030979,.035135,
.02756,.035435,
.02755,.03543,
0.0*
%
%ADD13MACRO13*%
%ADD10C,.158*%
%ADD15O,.1378X.15748*%
%AMMACRO16*
4,1,40,-.02297,-.07874,
.02297,-.07874,
.030946,-.078042,
.038679,-.07597,
.045935,-.072587,
.052493,-.067994,
.058154,-.062333,
.062747,-.055775,
.06613,-.048519,
.068202,-.040786,
.0689,-.03281,
.0689,.03281,
.068202,.040786,
.06613,.048519,
.062747,.055775,
.058154,.062333,
.052493,.067994,
.045935,.072587,
.038679,.07597,
.030946,.078042,
.02297,.07874,
-.02297,.07874,
-.030946,.078042,
-.038679,.07597,
-.045935,.072587,
-.052493,.067994,
-.058154,.062333,
-.062747,.055775,
-.06613,.048519,
-.068202,.040786,
-.0689,.03281,
-.0689,-.03281,
-.068202,-.040786,
-.06613,-.048519,
-.062747,-.055775,
-.058154,-.062333,
-.052493,-.067994,
-.045935,-.072587,
-.038679,-.07597,
-.030946,-.078042,
-.02297,-.07874,
0.0*
%
%ADD16MACRO16*%
%ADD19C,.02*%
%ADD20C,.005*%
G75*
%LPD*%
G75*
G54D10*
X20000Y3414D03*
Y396486D03*
X570551Y3414D03*
Y396486D03*
G54D20*
G01X585551Y416486D02*
X5000D01*
X0Y411486D01*
Y-11586D01*
X5000Y-16586D01*
X585551D01*
X590551Y-11586D01*
Y411486D01*
X585551Y416486D01*
G54D11*
X31000Y54850D03*
Y98150D03*
X33000Y136850D03*
Y180150D03*
X24000Y293850D03*
Y337150D03*
X54000Y293850D03*
Y337150D03*
X94500Y293350D03*
Y336650D03*
X126500Y57350D03*
Y100650D03*
X235000Y178850D03*
Y222150D03*
G54D12*
X63660Y55000D03*
X61660Y134500D03*
X93340Y55000D03*
X91340Y134500D03*
X270660Y167500D03*
X300340D03*
X424160Y163500D03*
X441850Y268000D03*
X453840Y163500D03*
X485150Y268000D03*
X509660Y267000D03*
X539340D03*
G54D13*
X61870Y98500D03*
Y88500D03*
Y78500D03*
Y108500D03*
X60870Y179500D03*
Y169500D03*
Y159500D03*
Y189500D03*
X62870Y244000D03*
Y264000D03*
Y254000D03*
Y274000D03*
X93130Y78500D03*
Y88500D03*
Y98500D03*
Y108500D03*
X92130Y159500D03*
Y169500D03*
Y179500D03*
Y189500D03*
X94130Y244000D03*
Y254000D03*
Y264000D03*
Y274000D03*
X156370Y94500D03*
Y124500D03*
Y114500D03*
Y104500D03*
X187630Y94500D03*
Y104500D03*
Y114500D03*
Y124500D03*
X170870Y241000D03*
Y231000D03*
Y221000D03*
Y251000D03*
X202130Y221000D03*
Y231000D03*
Y241000D03*
Y251000D03*
X269370Y128000D03*
Y118000D03*
Y108000D03*
Y138000D03*
X271870Y215500D03*
Y235500D03*
Y225500D03*
Y245500D03*
X271370Y292500D03*
Y322500D03*
Y312500D03*
Y302500D03*
X300630Y108000D03*
Y118000D03*
Y128000D03*
Y138000D03*
X303130Y215500D03*
Y225500D03*
Y235500D03*
Y245500D03*
X302630Y292500D03*
Y302500D03*
Y312500D03*
Y322500D03*
X367870Y293500D03*
Y323500D03*
Y313500D03*
Y303500D03*
X403370Y127000D03*
Y117000D03*
Y107000D03*
Y137000D03*
X399130Y293500D03*
Y303500D03*
Y313500D03*
Y323500D03*
X434630Y107000D03*
Y117000D03*
Y127000D03*
Y137000D03*
X424370Y187000D03*
Y207000D03*
Y197000D03*
Y217000D03*
X455630Y187000D03*
Y197000D03*
Y207000D03*
Y217000D03*
X498370Y128000D03*
Y118000D03*
Y108000D03*
Y138000D03*
X529630Y108000D03*
Y118000D03*
Y128000D03*
Y138000D03*
X521870Y208000D03*
Y198000D03*
Y188000D03*
Y218000D03*
X511870Y294500D03*
Y324500D03*
Y314500D03*
Y304500D03*
X553130Y188000D03*
Y198000D03*
Y208000D03*
Y218000D03*
X543130Y294500D03*
Y304500D03*
Y314500D03*
Y324500D03*
G54D14*
X53850Y215500D03*
X97150D03*
X120350Y168000D03*
X151850Y57000D03*
X163650Y168000D03*
X163850Y196000D03*
X159850Y309000D03*
Y339000D03*
Y369000D03*
X195150Y57000D03*
X212850Y85500D03*
X207150Y196000D03*
X203150Y309000D03*
Y339000D03*
Y369000D03*
X255850Y56500D03*
X256150Y85500D03*
X269350Y192000D03*
X266850Y270500D03*
X299150Y56500D03*
X312650Y192000D03*
X310150Y270500D03*
X338350Y119000D03*
X381650D03*
X367350Y269500D03*
X402660Y58500D03*
X392350Y85000D03*
X410650Y269500D03*
X422340Y58500D03*
X435650Y85000D03*
X432350Y312500D03*
X494350Y53000D03*
X475650Y312500D03*
X504660Y82000D03*
X524340D03*
X506350Y351500D03*
X537650Y53000D03*
X549650Y351500D03*
G54D15*
X74000Y378000D03*
X54000D03*
X94000D03*
X186000Y16000D03*
X206000D03*
X226000D03*
X244500Y378000D03*
X264500D03*
X284500D03*
X368500Y15000D03*
X388500D03*
X408500D03*
X409500Y378000D03*
X429500D03*
X449500D03*
G54D16*
X114000D03*
X304500D03*
X469500D03*
G54D17*
X166000Y16000D03*
X348500Y15000D03*
G54D18*
X327500Y40350D03*
Y83650D03*
X359000Y52660D03*
Y72340D03*
X375000Y165350D03*
Y208650D03*
X490000Y176350D03*
Y219650D03*
G54D19*
G01X248450Y-32400D02*
Y-49900D01*
G01X243428Y-32400D02*
X253472D01*
G01X265950Y-49900D02*
X264203Y-49608D01*
X262675Y-48442D01*
X261365Y-46692D01*
X260491Y-44650D01*
X260055Y-42317D01*
Y-39983D01*
X260491Y-37650D01*
X261365Y-35608D01*
X262675Y-33859D01*
X264203Y-32692D01*
X265950Y-32400D01*
X267696Y-32692D01*
X269225Y-33859D01*
X270535Y-35608D01*
X271409Y-37650D01*
X271845Y-39983D01*
Y-42317D01*
X271409Y-44650D01*
X270535Y-46692D01*
X269225Y-48442D01*
X267696Y-49608D01*
X265950Y-49900D01*
G01X279083D02*
Y-32400D01*
X284323D01*
X286070Y-33275D01*
X287380Y-35317D01*
X287817Y-37650D01*
X287380Y-39983D01*
X286288Y-41733D01*
X284323Y-42609D01*
X279083D01*
M02*
